<?xml version="1.0" encoding="utf-8"?>
<!-- Generator: Adobe Illustrator 19.0.0, SVG Export Plug-In . SVG Version: 6.00 Build 0)  -->
<svg version="1.1" id="Layer_1" xmlns="http://www.w3.org/2000/svg" xmlns:xlink="http://www.w3.org/1999/xlink" x="0px" y="0px"
	 viewBox="107 -47.5 512 512" style="enable-background:new 107 -47.5 512 512;" xml:space="preserve">
<style type="text/css">
	.st0{fill:#FFFFFF;}
</style>
<g>
	<path class="st0" d="M504.7,111.9c0-6.7-4-11.1-10.1-11.1H273.1c-6,0-10.1,4.4-10.1,11.1v22.2c0,6.7,4,11.1,10.1,11.1h221.6
		c6,0,10.1-4.4,10.1-11.1V111.9z"/>
	<path class="st0" d="M504.7,200.7c0-6.7-4-11.1-10.1-11.1H273.1c-6,0-10.1,4.4-10.1,11.1v22.2c0,6.7,4,11.1,10.1,11.1h221.6
		c6,0,10.1-4.4,10.1-11.1V200.7z"/>
	<path class="st0" d="M504.7,289.4c0-6.7-4-11.1-10.1-11.1H273.1c-6,0-10.1,4.4-10.1,11.1v22.2c0,6.7,4,11.1,10.1,11.1h221.6
		c6,0,10.1-4.4,10.1-11.1V289.4z"/>
</g>
</svg>
