<?xml version="1.0" encoding="utf-8"?>
<!-- Generator: Adobe Illustrator 19.0.0, SVG Export Plug-In . SVG Version: 6.00 Build 0)  -->
<svg version="1.1" id="Layer_1" xmlns="http://www.w3.org/2000/svg" xmlns:xlink="http://www.w3.org/1999/xlink" x="0px" y="0px"
	 viewBox="-362 176.6 233.1 209.4" style="enable-background:new -362 176.6 233.1 209.4;" xml:space="preserve">
<style type="text/css">
	.st0{fill:#020000;}
	.st1{fill:none;stroke:#000000;stroke-width:10;stroke-miterlimit:10;}
</style>
<g id="Text">
	<g id="XMLID_58_">
	</g>
	<g id="XMLID_3_">
		<g id="XMLID_7_">
			<g id="XMLID_133_">
				<path d="M-269.5,287.6c-0.3,0-0.5,0-0.7-0.3c-0.3-0.1-0.3-0.4-0.3-0.7v-10.1c0-0.3,0.1-0.5,0.4-0.7c0.3-0.3,0.5-0.3,0.8-0.4
					c1.6-0.1,3.3-0.4,5-0.7v-4.6c-1.8,0.3-3.3,0.5-5,0.7c-0.8,0.1-1.6,0.3-2.3,0.7c-0.7,0.4-1.4,0.8-1.9,1.2c-0.5,0.4-1,1.1-1.2,1.8
					s-0.4,1.4-0.4,2.2v0.8l0,0c1.4,1.4,1.8,3.1,1.4,4.9c-0.1,0.5-0.7,0.7-1,0.4c-0.1,0.1-0.1,0.3-0.1,0.3c0.1,0.1,0.3,0.3,0.4,0.4
					c0.3,0.1,0.4,0.3,0.5,0.4c0.7,0.4,1.1,1.1,1.2,1.9c0.3,0.8,0.1,1.8-0.4,2.4c-0.1,0.1-0.3,0.3-0.3,0.3c-0.1,0.3-0.4,0.4-0.5,0.5
					s-0.3,0.1-0.3,0.1c0,0.1-0.1,0.1-0.1,0.1c0.3,0.5,0.7,1,1.1,1.4c0.5,0.5,1.2,0.8,1.9,1.1s1.5,0.4,2.3,0.3
					c1.8-0.3,3.4-0.5,5.2-0.8v-4.5C-266.1,287.2-267.9,287.4-269.5,287.6z"/>
			</g>
			<g id="XMLID_27_">
				<path d="M-252.7,288.5c-3.7,1.1-7.3,2-11,2.9c0.1-0.1,0.1-0.1,0.3-0.3c0-6.9,0-13.9,0-20.7c1.8-0.4,3.3-0.7,4.9-1.1
					c0,5.4,0,10.9,0,16.3c2-0.5,3.8-1.1,5.7-1.6c0,1.5,0,2.9,0,4.2C-252.9,288.4-252.8,288.4-252.7,288.5z"/>
			</g>
			<g id="XMLID_24_">
				<path d="M-245.2,264.7c1.2-0.4,2.2-0.5,3-0.5c0.8,0,1.6,0.3,2.2,0.5c0.5,0.4,1,0.8,1.2,1.4c0.3,0.7,0.4,1.2,0.4,1.9
					c0,3.4,0,6.8,0,10.2c0,0.7-0.1,1.5-0.4,2.3s-0.7,1.5-1.4,2.2c-0.5,0.7-1.4,1.4-2.2,2c-0.8,0.7-1.9,1.1-3,1.5
					c-1.1,0.4-2.2,0.5-3,0.5c-0.8-0.1-1.6-0.3-2.2-0.5c-0.7-0.4-1.1-0.8-1.4-1.4c-0.3-0.7-0.5-1.2-0.5-1.9c0-3.4,0-6.8,0-10.2
					c0-0.7,0.1-1.5,0.4-2.2c0.3-0.8,0.7-1.5,1.2-2.2s1.4-1.4,2.2-1.9C-247.4,265.7-246.4,265.1-245.2,264.7z M-243.1,269.7
					c0-0.4-0.3-0.7-0.7-0.7c-0.4-0.1-1,0-1.4,0.1c-0.5,0.1-1,0.4-1.4,0.8c-0.4,0.4-0.7,0.7-0.7,1.2c0,3.4,0,6.8,0,10.2
					c0,0.5,0.3,0.8,0.7,0.8c0.4,0.1,0.8,0.1,1.4-0.1c0.5-0.1,1-0.4,1.4-0.8c0.4-0.4,0.7-0.8,0.7-1.4
					C-243.1,276.5-243.1,273.1-243.1,269.7z"/>
			</g>
			<g id="XMLID_22_">
				<path d="M-223.1,258.7c0,5,0,10.1,0,15.1c0,1-0.1,1.8-0.5,2.6s-0.8,1.5-1.5,2.2s-1.4,1.2-2.2,1.6c-0.8,0.5-1.8,0.8-2.6,1.1
					c-0.8,0.3-1.8,0.4-2.6,0.4c-0.8,0-1.6-0.1-2.2-0.4c-0.7-0.3-1.2-0.7-1.6-1.4s-0.7-1.4-0.7-2.3c0-5,0-10.1,0-15.1c0,0,0,0,0,0.1
					c-0.1-0.1-0.3-0.1-0.3-0.3c1.9-0.7,3.7-1.2,5.6-1.8c-0.1,0.1-0.3,0.3-0.4,0.4l0,0c0,5,0,10.1,0,15.1c0,0.4,0.3,0.7,0.7,0.8
					c0.4,0.1,0.8,0.1,1.4-0.1c0.5-0.1,1-0.4,1.4-0.7c0.4-0.4,0.7-0.7,0.7-1.2c0-5,0-10.1,0-15.1l0,0c-0.1-0.1-0.3-0.1-0.3-0.3
					c1.9-0.5,3.7-1,5.6-1.5C-223,258.4-223,258.6-223.1,258.7z"/>
			</g>
			<g id="XMLID_19_">
				<path d="M-214.7,256.9c0.8-0.1,1.6,0,2.3,0.1c0.7,0.3,1.4,0.5,1.9,1c0.5,0.4,1,1.1,1.4,1.8c0.3,0.7,0.5,1.5,0.5,2.3
					c0,3.3,0,6.7,0,10.1c0,1-0.3,1.8-0.5,2.4c-0.3,0.7-0.8,1.2-1.2,1.8c-0.4,0.5-1.2,0.8-1.9,1.1c-0.7,0.3-1.5,0.4-2.3,0.5
					c-2.4,0.3-4.9,0.7-7.2,1.2c0.1-0.1,0.1-0.3,0.3-0.4c0-6.8,0-13.6,0-20.4c-0.1-0.1-0.3-0.1-0.3-0.3
					C-219.6,257.6-217.1,257.2-214.7,256.9z M-213.9,262.4c0-0.3-0.1-0.5-0.3-0.7s-0.4-0.3-0.7-0.3c-0.8,0.1-1.2,0.1-2.2,0.3
					c0,3.9,0,7.9,0,11.8c1-0.1,1.4-0.1,2.2-0.3c0.3,0,0.5-0.1,0.7-0.4c0.3-0.3,0.3-0.4,0.3-0.7
					C-213.9,269.1-213.9,265.7-213.9,262.4z"/>
			</g>
			<g id="XMLID_89_">
				<path d="M-251.7,304.8c0.4-0.4,0.8-0.8,1.1-1.2c0.3-0.4,0.5-0.8,0.7-1.4c0.1-0.5,0.3-0.8,0.4-1.2c0.1-0.4,0.1-0.8,0.1-1.1
					c0-0.8-0.1-1.4-0.4-1.9c-0.3-0.5-0.7-1-1.2-1.2c-0.5-0.3-1.1-0.5-1.8-0.5c-0.7-0.1-1.5,0.1-2.3,0.4c-2.4,0.7-4.9,1.4-7.3,1.9
					c0.1,0.1,0.1,0.1,0.3,0.3v16.5c1.2-0.4,2.7-0.3,3.8,0.1c1.4,0.4,2.7,1.1,3.7,2.2c1.5-0.5,3-1.4,3.9-2.6c1.1-1.4,1.4-3,1.4-4.6
					v-2.9c0-1.1-0.3-1.8-0.7-2.2C-250.6,305-251,304.8-251.7,304.8z M-254.3,312.1c0,0.3-0.1,0.5-0.3,0.7c-0.3,0.3-0.4,0.4-0.7,0.4
					c-0.8,0.3-1.4,0.4-2.2,0.7v-4.6c0.8-0.3,1.4-0.4,2.2-0.7c0.3-0.1,0.4-0.1,0.7,0.1c0.3,0.1,0.4,0.3,0.4,0.5v2.9H-254.3z
					 M-254.6,303.1c-0.3,0.4-0.4,0.7-0.7,0.8c-1,0.3-1.4,0.4-2.3,0.7v-3c0.8-0.3,1.2-0.4,2-0.5c0.4-0.1,0.7-0.1,0.8,0.3
					c0.1,0.3,0.3,0.5,0.3,1C-254.3,302.4-254.4,302.8-254.6,303.1z"/>
			</g>
			<g id="XMLID_12_">
				<path d="M-239.1,308.9c-1.5,0.5-3,1.1-4.5,1.5c-0.4,1.4-0.5,2-0.8,3.4c0.1,0.1,0.3,0.1,0.3,0.1c-1.9,0.7-3.7,1.2-5.7,1.9
					c0.1-0.1,0.3-0.3,0.4-0.4c1.9-7.3,3.7-14.8,5.6-22.2c-0.1-0.1-0.3-0.1-0.3-0.1c1.9-0.7,3.8-1.4,5.7-1.9
					c-0.1,0.1-0.3,0.3-0.3,0.4c1.9,6.3,3.7,12.4,5.6,18.6c0.1,0.1,0.3,0.1,0.3,0.1c-1.9,0.7-3.7,1.2-5.6,1.8
					c0.1-0.1,0.3-0.3,0.3-0.4C-238.5,310.7-238.8,310.1-239.1,308.9z M-241.5,298.7c-0.4,2.3-0.8,4.8-1.2,7.1c1-0.4,1.5-0.5,2.4-0.8
					C-240.6,302.9-241,300.9-241.5,298.7C-241.4,298.7-241.4,298.7-241.5,298.7z"/>
			</g>
			<g id="XMLID_139_">
				<path d="M-226.3,302.1c0.5,1.4,1,2.6,1.5,3.8c0.4-1.2,1.4-2,2.3-2.7c0.4-0.4,1-0.5,1.4-0.8c0.1,0,0.1-0.1,0.3-0.1
					c-0.4-0.8-0.7-1.5-1.1-2.3c1-0.7,1.5-1.4,1.8-2.2c0.4-0.8,0.5-1.6,0.5-2.3v-4.1c0-1-0.3-1.6-0.5-2.2c-0.3-0.7-0.8-1.1-1.4-1.4
					c-0.5-0.4-1.2-0.5-1.9-0.5c-0.7-0.1-1.5,0-2.3,0.3c-2.6,0.7-5.2,1.4-7.6,2.2c0.1,0.1,0.1,0.1,0.3,0.1v20.4
					c-0.1,0.1-0.3,0.3-0.3,0.4c1.8-0.5,3.5-1.1,5.4-1.6c-0.1-0.1-0.3-0.1-0.4-0.1v-6.3C-227.4,302.4-227.1,302.3-226.3,302.1z
					 M-228.2,292.5c1.1-0.3,1.5-0.4,2.4-0.7c0.3-0.1,0.5-0.1,0.7,0.1c0.3,0.1,0.3,0.4,0.3,0.5v4.2c0,0.3-0.1,0.5-0.3,0.7
					c-0.3,0.3-0.4,0.4-0.7,0.4c-1,0.3-1.4,0.4-2.4,0.7V292.5L-228.2,292.5z"/>
			</g>
		</g>
	</g>
	<g id="XMLID_8_">
		<g id="XMLID_577_">
			<g id="XMLID_581_">
				<g id="XMLID_582_">
					<path class="st0" d="M-246.9,316.4c0-0.1,0.3-0.1,0.7-0.3c0.4-0.1,1-0.4,1.6-0.8c0.7-0.4,1.4-1,2.2-1.5
						c0.8-0.5,1.8-1.1,2.9-1.5c1.1-0.4,2-0.8,3.1-1c1.1-0.3,2-0.3,3-0.1c1,0.1,1.6,0.3,2.2,0.4c0.5,0.1,0.8,0.3,0.8,0.3
						c0.3,0.1,0.4,0.3,0.5,0.4c0.1,0.3,0.3,0.4,0.1,0.7c-0.1,0.3-0.3,0.4-0.4,0.5c-0.3,0.1-0.5,0.1-0.8,0c-0.1,0-0.4-0.1-0.8-0.3
						s-1-0.4-1.8-0.4c-0.8-0.1-1.6-0.1-2.4-0.1c-1,0.1-1.9,0.3-2.9,0.7c-1,0.3-1.9,0.7-2.7,1.1c-0.4,0.3-0.8,0.4-1.2,0.7
						c-0.4,0.3-0.8,0.4-1.2,0.7c-0.8,0.4-1.4,0.5-1.9,0.7C-246.5,316.5-246.8,316.5-246.9,316.4z"/>
					<path d="M-246.5,316.5c-0.3,0-0.4-0.1-0.4-0.1l0,0v-0.1c0-0.1,0.1-0.1,0.4-0.3c0.1,0,0.1-0.1,0.3-0.1c0.4-0.1,1-0.4,1.6-0.8
						c0.3-0.3,0.7-0.4,1-0.7c0.4-0.3,0.8-0.5,1.2-0.8c1-0.5,1.9-1.1,2.9-1.5c1.1-0.5,2.2-0.8,3.1-1c1.1-0.3,2-0.3,3-0.1
						c0.8,0.1,1.6,0.3,2.2,0.4c0.4,0.1,0.7,0.3,0.8,0.3c0.1,0,0.1,0.1,0.1,0.1c0.3,0.1,0.4,0.3,0.5,0.4c0.1,0.3,0.3,0.4,0.1,0.7
						s-0.3,0.5-0.5,0.5c-0.3,0.1-0.5,0.1-0.8,0c0,0-0.1,0-0.3-0.1s-0.4-0.1-0.5-0.3c-0.5-0.1-1.1-0.4-1.8-0.4
						c-0.8-0.1-1.8-0.1-2.4-0.1c-1,0.1-1.9,0.3-2.9,0.7c-1,0.3-1.8,0.7-2.7,1.1c-0.5,0.3-1,0.4-1.2,0.7h-0.1
						c-0.4,0.3-0.8,0.4-1.1,0.5c-0.8,0.4-1.4,0.5-1.9,0.7C-246.3,316.5-246.4,316.5-246.5,316.5z M-246.8,316.4
						c0.1,0.1,0.3,0.1,0.8,0c0.5-0.1,1.1-0.3,1.9-0.7c0.4-0.3,0.7-0.4,1.1-0.5h0.1c0.4-0.3,0.8-0.4,1.2-0.7c1-0.5,1.9-0.8,2.7-1.1
						c1-0.3,1.9-0.5,2.9-0.7c0.8-0.1,1.6-0.1,2.4,0.1c0.7,0.1,1.2,0.3,1.8,0.4c0.3,0.1,0.4,0.1,0.5,0.3c0.1,0.1,0.1,0.1,0.3,0.1
						c0.3,0.1,0.5,0.1,0.8,0c0.3-0.1,0.4-0.3,0.4-0.5c0-0.3,0-0.4-0.1-0.7c-0.1-0.3-0.3-0.4-0.5-0.4c0,0-0.1,0-0.1-0.1
						c-0.1-0.1-0.4-0.1-0.8-0.3c-0.7-0.3-1.4-0.4-2.2-0.4c-1-0.1-1.9,0-3,0.1c-1.1,0.1-2,0.5-3.1,1c-1,0.4-1.9,1-2.9,1.5
						c-0.5,0.3-0.8,0.5-1.2,0.8s-0.7,0.5-1,0.7c-0.7,0.4-1.2,0.7-1.6,0.8c-0.1,0-0.1,0.1-0.3,0.1
						C-246.7,316.3-246.8,316.4-246.8,316.4z"/>
				</g>
			</g>
		</g>
	</g>
</g>
<g id="Layer_3">
	<g id="XMLID_1_">
		<g id="XMLID_570_">
			<g id="XMLID_574_">
				<g id="XMLID_575_">
					<path d="M-277.6,328.5l0.1-0.1c0-0.1,0-0.3-0.1-0.4c-0.1-0.3-0.4-0.7-0.8-1c-0.4-0.3-1.1-0.5-1.6-0.7c-0.4-0.1-0.7-0.1-1.1-0.1
						s-0.8,0-1.1,0.1c-1.5,0.3-2.7,1-3.4,1.5c-0.8,0.7-1.1,1.1-1,1.2c0.1,0.1,0.7-0.1,1.5-0.5s1.9-0.8,3.3-1
						c1.4-0.3,2.4-0.1,3.1,0.3c0.4,0.1,0.7,0.4,0.8,0.5S-277.6,328.5-277.6,328.5L-277.6,328.5z"/>
					<path d="M-286.5,329.2c-0.1,0-0.1,0-0.1-0.1c0,0-0.1-0.1,0-0.1c0-0.3,0.4-0.7,1.1-1.2c1-0.7,2.2-1.2,3.5-1.5
						c0.4-0.1,0.8-0.1,1.1-0.1c0.4,0,0.7,0,1.1,0.1c0.8,0.1,1.4,0.4,1.8,0.7c0.5,0.4,0.7,0.8,0.8,1s0.1,0.3,0.1,0.4
						c0,0.1,0,0.1-0.1,0.3c-0.1,0-0.1,0-0.3,0s-0.1-0.1-0.1-0.1l-0.1-0.1c-0.3-0.1-0.5-0.4-0.8-0.5c-0.8-0.4-2-0.4-3.1-0.3
						c-1.1,0.1-2,0.5-3.3,1c-0.1,0.1-0.3,0.1-0.3,0.1C-286,329.1-286.4,329.2-286.5,329.2z M-281.1,326.5c-0.4,0-0.8,0-1.1,0.1
						c-1.2,0.3-2.6,0.8-3.4,1.5c-0.7,0.5-1,1-1,1.1c0,0,0,0,0,0.1c0.1,0.1,0.5-0.1,1.1-0.4c0.1-0.1,0.3-0.1,0.3-0.1
						c1.2-0.5,2.2-0.8,3.3-1c1.2-0.3,2.3-0.1,3.3,0.3c0.4,0.1,0.7,0.4,0.8,0.5c0.1,0,0.1,0.1,0.1,0.1c0.1,0.1,0.1,0.1,0.1,0.1l0,0
						l0,0c0.1,0.1,0.1,0,0.1,0l0,0c0,0,0.1-0.1,0-0.1c0-0.1,0-0.3-0.1-0.4c-0.1-0.3-0.3-0.5-0.8-1c-0.4-0.3-1-0.5-1.6-0.7
						C-280.4,326.5-280.7,326.5-281.1,326.5z"/>
				</g>
			</g>
		</g>
	</g>
	<g id="XMLID_32_">
		<g id="XMLID_563_">
			<g id="XMLID_567_">
				<g id="XMLID_568_">
					<path d="M-253.6,318.9c0.1,0,0.3-0.3,0.1-0.7c-0.1-0.4-0.3-1-0.7-1.5c-0.4-0.5-1.1-1.1-1.8-1.5c-0.7-0.4-1.5-1.1-2.4-1.4
						c-0.5-0.1-1.1-0.3-1.5-0.3c-0.5,0-1,0.1-1.5,0.1c-0.4,0.1-0.8,0.3-1.2,0.4c-0.4,0.1-0.7,0.3-1,0.4c-0.5,0.4-1,0.7-1.2,0.8
						c-0.3,0.3-0.4,0.4-0.4,0.5c0.1,0.1,0.3,0.1,0.7-0.1c0.4-0.1,0.8-0.3,1.4-0.5c0.3-0.1,0.7-0.3,1-0.3c0.4-0.1,0.7-0.3,1.1-0.3
						c0.8-0.1,1.5-0.1,2.3,0.3c0.8,0.3,1.6,0.7,2.3,1.1c0.7,0.4,1.4,0.8,1.8,1.2s0.7,0.7,0.8,1
						C-253.7,318.7-253.7,318.9-253.6,318.9z"/>
					<path d="M-253.6,318.9c-0.1,0-0.3-0.1-0.3-0.4l-0.1-0.1c-0.1-0.3-0.4-0.7-0.8-1c-0.5-0.4-1.1-0.8-1.8-1.2
						c-0.7-0.4-1.4-0.8-2.3-1.1c-0.8-0.3-1.5-0.3-2.3-0.3c-0.4,0.1-0.7,0.1-1.1,0.3l0,0c-0.3,0.1-0.7,0.3-1,0.3
						c-0.3,0.1-0.4,0.1-0.5,0.3c-0.4,0.1-0.7,0.3-0.8,0.3c-0.4,0.1-0.5,0.1-0.7,0c-0.1-0.1,0.3-0.4,0.4-0.5c0.3-0.3,0.7-0.5,1.2-0.8
						c0.3-0.1,0.7-0.4,1-0.5c0.4-0.1,0.8-0.3,1.2-0.4c0.4-0.1,1-0.1,1.5-0.1s1.1,0.1,1.5,0.3c1.1,0.4,1.9,1,2.4,1.4
						c0.8,0.7,1.4,1.1,1.8,1.5c0.4,0.4,0.7,1,0.7,1.5c0.1,0.4,0,0.5-0.1,0.7C-253.6,318.9-253.6,318.9-253.6,318.9L-253.6,318.9z
						 M-260.3,314.8c0.5,0,1.1,0.1,1.5,0.3c0.8,0.3,1.6,0.7,2.3,1.1c0.7,0.4,1.2,0.8,1.8,1.2c0.5,0.4,0.8,0.8,1,1l0.1,0.1
						c0.1,0.3,0.3,0.4,0.3,0.4l0,0l0,0c0.1-0.1,0.1-0.3,0.1-0.5c-0.1-0.5-0.3-1-0.7-1.5c-0.4-0.5-1-1-1.8-1.5
						c-0.7-0.4-1.5-1-2.4-1.4c-0.5-0.1-1.1-0.3-1.5-0.3c-0.5,0-1.1,0.1-1.4,0.1c-0.4,0.1-0.8,0.3-1.2,0.4c-0.4,0.1-0.7,0.3-1,0.4
						c-0.7,0.4-1.1,0.7-1.2,0.8c-0.4,0.3-0.4,0.4-0.4,0.4c0,0.1,0.3,0.1,0.5-0.1c0.3-0.1,0.5-0.1,0.8-0.3s0.4-0.1,0.5-0.3
						c0.3-0.1,0.7-0.3,1-0.3l0,0c0.4-0.1,0.8-0.3,1.1-0.3C-260.8,314.8-260.6,314.8-260.3,314.8z"/>
				</g>
			</g>
		</g>
	</g>
	<g id="XMLID_33_">
		<g id="XMLID_385_">
			<g id="XMLID_390_">
				<g id="XMLID_391_">
					<path d="M-276.7,306.3c0.1,0,0.1-0.1,0.1-0.3s0-0.3,0-0.5c-0.1-0.4-0.4-1-1-1.5c-0.5-0.5-1.4-1-2.3-1.2c-1-0.3-2-0.3-3.1,0
						c-1.1,0.3-2,0.8-2.9,1.5c-0.8,0.7-1.2,1.4-1.5,2c-0.3,0.7-0.4,1.2-0.4,1.6c0,0.1,0,0.3,0,0.3c0,0.1,0,0.1,0.1,0.3
						c0.1,0.1,0.1,0.1,0.1,0.3c0.3,0.1,0.5-0.7,1.4-1.6c0.4-0.4,0.8-1,1.5-1.4c0.7-0.4,1.4-0.8,2.2-1c0.8-0.3,1.6-0.3,2.3-0.1
						s1.4,0.4,1.8,0.7c0.4,0.3,0.8,0.5,1.1,0.8C-277,306.2-276.9,306.3-276.7,306.3z"/>
					<path d="M-287.5,308.8L-287.5,308.8c-0.1,0-0.3-0.1-0.3-0.3v-0.1c0-0.1,0-0.1,0-0.1c0-0.1,0-0.1,0-0.1c0-0.1,0-0.1,0-0.1
						c0-0.5,0.1-1.1,0.4-1.6c0.3-0.5,0.7-1.4,1.5-2s1.8-1.2,2.9-1.5c1.1-0.3,2.2-0.3,3.3,0c1.2,0.3,1.9,0.8,2.3,1.2
						c0.5,0.5,0.8,1.2,1,1.5c0,0.3,0,0.4,0,0.5c-0.1,0.1-0.1,0.3-0.3,0.3l0,0c-0.1,0-0.3-0.1-0.5-0.3l-0.3-0.1
						c-0.3-0.3-0.5-0.5-1-0.7c-0.4-0.3-1-0.5-1.8-0.5c-0.8-0.1-1.6-0.1-2.3,0.1c-0.8,0.3-1.5,0.5-2.2,1c-0.7,0.5-1.1,1.1-1.4,1.4
						c-0.3,0.4-0.5,0.7-0.7,1C-287.1,308.4-287.2,308.8-287.5,308.8z M-281.4,302.8c-0.5,0-1.1,0.1-1.6,0.3c-1.1,0.3-2,0.8-2.9,1.5
						s-1.2,1.5-1.5,2c-0.3,0.5-0.4,1.2-0.4,1.6c0,0.1,0,0.1,0,0.1c0,0.1,0,0.1,0,0.1c0,0.1,0,0.1,0,0.1v0.1c0.1,0.1,0.1,0.1,0.1,0.1
						c0.1,0,0.4-0.3,0.5-0.7c0.1-0.3,0.4-0.5,0.7-1s0.8-1,1.5-1.4c0.7-0.5,1.4-0.8,2.2-1c0.8-0.3,1.6-0.3,2.4-0.1
						c0.7,0.1,1.4,0.3,1.9,0.7c0.4,0.3,0.8,0.5,1,0.7l0.3,0.1c0.1,0.1,0.3,0.3,0.4,0.3c0.1,0,0.1-0.1,0.1-0.1c0-0.1,0-0.3,0-0.5
						c-0.1-0.4-0.4-1-0.8-1.5c-0.4-0.4-1.2-1-2.3-1.2C-280.4,302.8-280.8,302.8-281.4,302.8z"/>
				</g>
			</g>
		</g>
	</g>
	<g id="XMLID_34_">
		<g id="XMLID_378_">
			<g id="XMLID_382_">
				<g id="XMLID_383_">
					<path d="M-264.1,312.1c0.1,0,0.3-0.3,0.3-0.5c0-0.4-0.3-1-0.7-1.5c-0.3-0.3-0.5-0.5-1-0.7c-0.3-0.1-0.4-0.3-0.7-0.3
						c-0.3-0.1-0.4-0.1-0.7-0.3c-0.5-0.1-1-0.1-1.5-0.1h-0.1l0,0c0,0,0,0-0.1,0l0,0h-0.1v-0.1l0,0l0,0l0,0l0,0l0,0l0,0l0,0v-0.1
						c0-0.5-0.1-1-0.3-1.4c-0.3-0.7-0.7-1.4-1.1-1.8c-0.5-0.5-1.1-1-1.6-1.1c-0.5-0.3-1.2-0.4-1.8-0.4c-0.5,0-1.1,0.1-1.5,0.3
						s-0.8,0.4-1.1,0.5c-0.1,0.1-0.3,0.3-0.4,0.3c-0.1,0.1-0.3,0.3-0.3,0.3c-0.1,0.1-0.1,0.3-0.3,0.3c-0.1,0.1-0.1,0.1-0.1,0.3
						c-0.1,0.1-0.1,0.3,0,0.3c0.1,0.1,0.1,0.1,0.3,0c0.1,0,0.1-0.1,0.3-0.1c0.1,0,0.3-0.1,0.3-0.1c0.4-0.1,1-0.4,1.6-0.4
						c0.7-0.1,1.5,0,2.3,0.4c0.4,0.3,0.7,0.4,1.1,0.8c0.4,0.4,0.5,0.8,0.7,1.2c0.1,0.3,0.3,0.7,0.3,1v0.1c0,0,0,0,0,0.1l0,0v0.1
						c0,0.1,0,0.3,0,0.3c0,0.3,0,0.4-0.1,0.7c-0.1,0.4-0.1,0.8-0.3,1.1c0.4-0.1,1-0.3,1.4-0.3c0.1,0,0.3-0.1,0.4-0.1
						c0.1,0,0.3-0.1,0.4-0.1c0.1,0,0.3,0,0.3-0.1c0.1,0,0.1,0,0.3,0c0.4-0.1,0.8-0.1,1.1-0.1c0.3,0,0.4,0,0.5,0.1
						c0.1,0,0.3,0.1,0.4,0.1c0.3,0.1,0.5,0.3,0.7,0.4C-264.5,311.4-264.4,312.1-264.1,312.1z"/>
					<path d="M-264.1,312.1c-0.1,0-0.3-0.1-0.4-0.3c-0.3-0.3-0.5-0.5-1-1c-0.3-0.1-0.4-0.3-0.7-0.4c-0.1-0.1-0.3-0.1-0.4-0.1
						c-0.1,0-0.3-0.1-0.5-0.1c-0.4,0-0.7,0-1.1,0.1c-0.1,0-0.1,0-0.1,0h-0.1c-0.1,0-0.3,0-0.3,0.1c-0.1,0-0.1,0-0.1,0
						c-0.1,0-0.1,0-0.3,0.1c-0.1,0-0.1,0-0.1,0.1c-0.1,0-0.1,0-0.1,0.1c-0.4,0.1-0.8,0.3-1.2,0.3l-0.3,0.1v-0.1
						c0-0.1,0.1-0.4,0.1-0.5c0.1-0.3,0.1-0.4,0.1-0.7c0.1-0.3,0.1-0.4,0.1-0.5s0-0.1,0-0.1v-0.1v-0.3c0-0.3-0.1-0.5-0.3-1
						c-0.1-0.4-0.4-0.8-0.7-1.2c-0.3-0.3-0.5-0.5-1-0.8c-1-0.5-1.8-0.4-2.2-0.4c-0.7,0.1-1.2,0.3-1.6,0.4h-0.1
						c-0.1,0.1-0.1,0.1-0.3,0.1h-0.1c-0.1,0-0.1,0-0.1,0.1c-0.1,0-0.1,0-0.1,0.1c-0.1,0-0.3,0.1-0.3,0c-0.1-0.1-0.1-0.3-0.1-0.4
						v-0.1c0-0.1,0.1-0.1,0.1-0.1c0-0.1,0.1-0.1,0.1-0.3l0.1-0.1c0.1-0.1,0.3-0.3,0.3-0.3c0.1-0.1,0.1-0.1,0.1-0.1
						c0.1-0.1,0.1-0.1,0.3-0.3c0.3-0.1,0.7-0.4,1.1-0.5c0.5-0.1,1.1-0.3,1.5-0.3c0.7,0,1.2,0.1,1.8,0.4c0.7,0.3,1.2,0.7,1.8,1.2
						s1,1.1,1.1,1.8c0.1,0.5,0.3,1,0.3,1.4v0.1l0,0l0,0h0.1c0.5,0,1,0,1.5,0.1c0.3,0.1,0.5,0.1,0.7,0.3c0.3,0.1,0.4,0.3,0.7,0.3
						c0.4,0.3,0.7,0.4,1,0.8c0.5,0.5,0.7,1.1,0.7,1.5C-263.8,311.9-264,312.1-264.1,312.1L-264.1,312.1z M-267.4,310.3
						c0.1,0,0.1,0,0.3,0c0.3,0,0.4,0,0.5,0.1c0.1,0,0.3,0.1,0.4,0.1c0.3,0.1,0.5,0.3,0.7,0.4c0.5,0.3,0.8,0.7,1.1,1
						c0.1,0.1,0.3,0.3,0.3,0.3l0,0c0.1,0,0.1-0.1,0.1-0.5s-0.1-1-0.7-1.4c-0.3-0.3-0.5-0.5-1-0.7c-0.1-0.1-0.4-0.3-0.7-0.3
						c-0.3-0.1-0.4-0.1-0.7-0.3c-0.4-0.1-1-0.1-1.5-0.1h-0.3l0,0c-0.1,0-0.1-0.1-0.1-0.1l0,0l0,0l0,0v-0.1c0-0.4-0.1-1-0.3-1.4
						c-0.3-0.7-0.7-1.4-1.1-1.8c-0.5-0.5-1.1-1-1.6-1.1c-0.5-0.3-1.2-0.4-1.8-0.4s-1,0.1-1.5,0.3s-1,0.4-1.1,0.5
						c-0.1,0.1-0.3,0.1-0.3,0.3c-0.1,0.1-0.1,0.1-0.1,0.1c-0.1,0.1-0.3,0.3-0.3,0.3l-0.1,0.1c-0.1,0.1-0.1,0.1-0.1,0.1
						c-0.1,0-0.1,0.1-0.1,0.1v0.1c-0.1,0.1,0,0.1,0,0.3c0,0,0.1,0.1,0.3,0c0.1,0,0.1,0,0.1-0.1c0,0,0.1,0,0.1-0.1h0.1
						c0.1,0,0.1-0.1,0.3-0.1h0.1c0.4-0.1,1-0.4,1.6-0.4c0.5-0.1,1.4-0.1,2.3,0.4c0.4,0.3,0.8,0.5,1.1,0.8c0.4,0.4,0.5,0.8,0.7,1.2
						s0.3,0.7,0.3,1v0.3c0,0.1,0,0.1,0,0.1c0,0.1,0,0.1,0,0.1c0,0.3,0,0.4-0.1,0.7s-0.1,0.4-0.1,0.7c0,0.1-0.1,0.3-0.1,0.4h0.1
						c0.4-0.1,0.8-0.1,1.2-0.3c0.1,0,0.1,0,0.1-0.1c0.1,0,0.1,0,0.1-0.1c0.1,0,0.1,0,0.3-0.1c0.1,0,0.1,0,0.1,0c0.1,0,0.3,0,0.3-0.1
						c0.1,0,0.1,0,0.1,0h0.1C-267.9,310.3-267.6,310.3-267.4,310.3z"/>
				</g>
			</g>
		</g>
	</g>
	<g id="XMLID_2_">
		<g id="XMLID_371_">
			<g id="XMLID_375_">
				<g id="XMLID_376_">
					<path d="M-274.6,324.6c0.1-0.1-0.3-0.4-0.8-0.7c-0.1-0.1-0.4-0.1-0.5-0.1c-0.3,0-0.4-0.1-0.7-0.1c-0.4,0-1,0.1-1.4,0.3
						c-1,0.4-1.8,1-2,1.5c-0.1,0.1-0.1,0.3-0.3,0.4c-0.1,0.1-0.1,0.3-0.1,0.4c0,0.3,0.1,0.4,0.1,0.4c0.1,0,0.3-0.1,0.3-0.1
						c0.1-0.1,0.3-0.3,0.5-0.4l0.1-0.1c0,0,0.1,0,0.1-0.1c0.1-0.1,0.1-0.1,0.3-0.1c0.1-0.1,0.3-0.1,0.4-0.3c0.3-0.1,0.7-0.4,1.1-0.4
						c0.4-0.1,0.8-0.3,1.1-0.3c0.3,0,0.4-0.1,0.5-0.1s0.3,0,0.4,0C-275,324.7-274.6,324.7-274.6,324.6z"/>
					<path d="M-280.1,326.6c-0.1,0-0.1,0-0.1-0.1c-0.1-0.1-0.1-0.1-0.1-0.4c0-0.1,0-0.3,0.1-0.4c0.1-0.1,0.1-0.3,0.3-0.4
						c0.4-0.7,1.2-1.2,2-1.5c0.5-0.3,1.1-0.3,1.5-0.3c0.1,0,0.3,0,0.5,0c0.1,0,0.1,0,0.3,0c0.3,0,0.4,0.1,0.5,0.1
						c0.4,0.1,0.8,0.4,0.8,0.5s0,0.1,0,0.1c-0.1,0.1-0.4,0.3-0.8,0.3h-0.3c-0.1,0-0.1,0-0.3,0s-0.1,0-0.3,0s-0.4,0-0.5,0.1
						c-0.4,0.1-0.8,0.1-1.1,0.3c-0.4,0.1-0.8,0.3-1,0.4c-0.1,0.1-0.3,0.1-0.3,0.1c-0.1,0-0.1,0.1-0.1,0.1l-0.1,0.1l-0.1,0.1
						l-0.1,0.1l-0.1,0.1c-0.3,0.1-0.4,0.3-0.5,0.4l0,0C-280,326.5-280,326.6-280.1,326.6z M-276.5,323.8c-0.4,0-0.8,0.1-1.4,0.3
						c-1,0.3-1.6,1-2,1.5c-0.1,0.1-0.1,0.3-0.3,0.4c-0.1,0.1-0.1,0.3-0.1,0.4c0,0.1,0.1,0.3,0.1,0.3h0.1c0.1,0,0.1-0.1,0.3-0.1l0,0
						c0.1-0.1,0.3-0.3,0.5-0.4l0.1-0.1l0,0c0,0,0.1,0,0.1-0.1c0.1,0,0.1-0.1,0.1-0.1l0.1-0.1c0.1-0.1,0.1-0.1,0.1-0.1
						c0.1-0.1,0.1-0.1,0.3-0.1c0.3-0.1,0.7-0.3,1.1-0.4c0.4-0.1,0.7-0.3,1.1-0.3c0.3,0,0.4-0.1,0.5-0.1s0.1,0,0.3,0s0.1,0,0.3,0h0.3
						c0.4,0,0.8-0.1,0.8-0.1l0,0v0.1c-0.1-0.1-0.4-0.4-0.8-0.5c-0.1-0.1-0.4-0.1-0.5-0.1s-0.1,0-0.3,0
						C-276.2,323.8-276.3,323.8-276.5,323.8z"/>
				</g>
			</g>
		</g>
	</g>
	<g id="XMLID_9_">
		<g id="XMLID_364_">
			<g id="XMLID_368_">
				<g id="XMLID_369_">
					<path d="M-269.3,320.6c0.1-0.1-0.4-0.4-1.2-0.7c-0.4-0.1-1-0.1-1.5,0s-1.1,0.3-1.6,0.7c-0.5,0.4-1,0.7-1.4,1.1
						c-0.3,0.3-0.4,0.4-0.5,0.5c-0.1,0.3-0.3,0.4-0.4,0.5c-0.3,0.4-0.3,0.8-0.1,1.1c0.1,0.3,0.3,0.4,0.3,0.3c0.1,0,0.1-0.1,0.3-0.4
						s0.3-0.4,0.4-0.5s0.3-0.3,0.4-0.4c0.1-0.1,0.4-0.3,0.5-0.4c0.4-0.3,0.8-0.7,1.2-0.8c0.4-0.3,0.8-0.4,1.4-0.5
						c0.4-0.1,0.8-0.3,1.2-0.3C-269.8,320.8-269.3,320.8-269.3,320.6z"/>
					<path d="M-275.7,324.3L-275.7,324.3c-0.1-0.1-0.3-0.1-0.4-0.4c-0.1-0.3-0.1-0.7,0.1-1.1c0.1-0.3,0.3-0.4,0.4-0.5
						c0.1-0.1,0.1-0.1,0.1-0.3c0.1-0.1,0.3-0.3,0.4-0.4c0.4-0.5,0.8-0.8,1.4-1.1c0.5-0.3,1.1-0.5,1.6-0.7c0.7-0.1,1.1-0.1,1.5,0
						c0.7,0.1,1.1,0.4,1.2,0.5c0,0.1,0,0.1,0,0.1c-0.1,0.1-0.3,0.3-0.8,0.3c-0.1,0-0.3,0.1-0.5,0.1h-0.1c-0.4,0.1-0.7,0.1-1.1,0.3
						c-0.5,0.1-1,0.4-1.4,0.5c-0.4,0.3-0.8,0.5-1.2,0.8c-0.1,0.1-0.3,0.3-0.4,0.4l-0.1,0.1c-0.1,0.1-0.1,0.1-0.1,0.1
						c-0.1,0.1-0.1,0.1-0.3,0.3c-0.3,0.3-0.4,0.4-0.4,0.5c0,0,0,0.1-0.1,0.1C-275.5,324.2-275.5,324.2-275.7,324.3L-275.7,324.3z
						 M-271.2,320.1c-0.3,0-0.5,0-0.8,0.1c-0.5,0.1-1.2,0.3-1.6,0.7c-0.5,0.3-1,0.7-1.4,1.1c-0.1,0.1-0.3,0.3-0.4,0.4
						c-0.1,0.1-0.1,0.1-0.1,0.3c-0.1,0.1-0.3,0.4-0.4,0.5c-0.3,0.4-0.3,0.8-0.1,1.1c0.1,0.1,0.1,0.3,0.3,0.3c0,0,0,0,0.1,0
						c0.1,0,0.1-0.1,0.1-0.3c0,0,0-0.1,0.1-0.1c0.1-0.3,0.3-0.4,0.4-0.5c0.1-0.1,0.1-0.1,0.3-0.3s0.1-0.1,0.1-0.1l0.1-0.1
						c0.1-0.1,0.3-0.3,0.4-0.4c0.4-0.3,0.8-0.7,1.2-0.8c0.4-0.1,0.8-0.4,1.4-0.5c0.4-0.1,0.7-0.3,1.1-0.3h0.1c0.1,0,0.4-0.1,0.5-0.1
						c0.4-0.1,0.7-0.1,0.7-0.3l0,0v-0.1c-0.1-0.1-0.4-0.4-1.2-0.5C-270.6,320.1-270.9,320.1-271.2,320.1z"/>
				</g>
			</g>
		</g>
	</g>
	<g id="XMLID_31_">
		<g id="XMLID_357_">
			<g id="XMLID_361_">
				<g id="XMLID_362_">
					<path d="M-264.6,316.1c0.1-0.1,0-0.3-0.3-0.4c-0.3-0.3-0.7-0.4-1.2-0.7c-0.5-0.1-1.2-0.3-1.9-0.1c-0.7,0.1-1.5,0.4-2.2,0.8
						s-1.4,0.8-1.9,1.4c-0.3,0.3-0.4,0.5-0.7,0.8c-0.1,0.3-0.3,0.7-0.3,1c-0.1,0.5,0,1.1,0.1,1.4s0.3,0.4,0.4,0.4
						c0.3-0.1,0.1-0.7,0.4-1.5c0.3-0.4,0.5-0.8,1-1.2c0.4-0.4,1-0.8,1.6-1.1c0.7-0.4,1.2-0.7,1.8-0.8s1.1-0.3,1.5-0.3
						C-265.5,316-264.8,316.3-264.6,316.1z"/>
					<path d="M-272.7,320.6c-0.1,0-0.3-0.1-0.4-0.4c-0.1-0.1-0.3-0.7-0.1-1.4c0.1-0.3,0.1-0.7,0.3-1c0.3-0.4,0.4-0.7,0.7-1
						c0.4-0.5,1.1-1,1.9-1.4c0.8-0.4,1.5-0.7,2.2-0.8s1.5-0.1,2,0.1c0.7,0.3,1,0.4,1.2,0.7c0.3,0.3,0.4,0.4,0.3,0.5l0,0
						c-0.1,0.1-0.3,0.1-0.5,0c-0.3-0.1-0.7-0.1-1.1-0.1c-0.5,0-1.1,0.1-1.5,0.3c-0.5,0.1-1.2,0.4-1.8,0.8s-1.2,0.7-1.6,1.1
						c-0.4,0.4-0.7,0.8-1,1.2c-0.3,0.4-0.3,0.8-0.3,1.1C-272.5,320.5-272.5,320.6-272.7,320.6L-272.7,320.6z M-267.2,315
						c-0.3,0-0.5,0-0.8,0.1c-0.7,0.1-1.5,0.4-2.2,0.8c-0.8,0.4-1.4,1-1.9,1.4c-0.3,0.3-0.4,0.5-0.7,0.8c-0.1,0.3-0.3,0.5-0.3,1
						c-0.1,0.7,0,1.1,0.1,1.4c0.1,0.3,0.3,0.4,0.3,0.4c0.1,0,0.1-0.1,0.1-0.4c0.1-0.3,0.1-0.7,0.3-1.1c0.3-0.4,0.5-0.8,1-1.2
						c0.5-0.4,1.1-0.8,1.6-1.1c0.7-0.4,1.2-0.7,1.8-0.8s1.1-0.3,1.6-0.3c0.5,0,0.8,0.1,1.1,0.1c0.3,0.1,0.4,0.1,0.4,0.1
						s0-0.1-0.3-0.4c-0.3-0.3-0.5-0.4-1.2-0.7C-266.5,315-266.8,315-267.2,315z"/>
				</g>
			</g>
		</g>
	</g>
	<g id="XMLID_39_">
		<g id="XMLID_350_">
			<g id="XMLID_354_">
				<g id="XMLID_355_">
					<path d="M-248.4,320.9l-0.1-0.1c-0.1-0.1-0.3-0.1-0.4-0.3c-0.3-0.1-0.4-0.1-0.7-0.3c-0.3-0.1-0.5-0.1-0.8-0.1
						c-0.5-0.1-1.1-0.1-1.5-0.1s-0.8,0-1,0c-0.3,0-0.4-0.1-0.5-0.4c-0.1-0.3-0.3-0.4-0.3-0.7s0.1-0.5,0.4-0.7
						c0.3-0.1,0.4-0.3,0.8-0.3c0.1,0,0.5,0.1,1,0.4c0.5,0.3,1.1,0.5,1.5,0.8c0.3,0.1,0.5,0.4,0.7,0.5s0.4,0.4,0.5,0.5
						c0.1,0.1,0.3,0.4,0.3,0.4C-248.4,320.8-248.4,320.9-248.4,320.9z"/>
					<path d="M-248.3,321l-0.1-0.1l-0.1-0.1c0,0-0.3-0.1-0.3-0.3l-0.1-0.1c-0.1-0.1-0.4-0.1-0.5-0.3h-0.1c-0.3-0.1-0.5-0.1-0.8-0.1
						c-0.5-0.1-1.1-0.1-1.5-0.1c-0.1,0-0.4,0-0.4,0c-0.3,0-0.4,0-0.4,0c-0.3,0-0.4-0.1-0.7-0.4c-0.1-0.3-0.3-0.4-0.3-0.7
						c0-0.3,0.1-0.5,0.4-0.7s0.5-0.3,0.8-0.3c0.1,0,0.5,0.1,1,0.4c0.5,0.3,1.1,0.5,1.5,0.8c0.3,0.1,0.4,0.3,0.5,0.4
						c0.1,0.1,0.1,0.1,0.3,0.1c0.3,0.1,0.4,0.4,0.5,0.5c0.1,0.1,0.3,0.4,0.3,0.4c0.1,0.1,0.1,0.3,0.1,0.3L-248.3,321z M-252.8,318.2
						c-0.3,0-0.4,0.1-0.5,0.3c-0.3,0.1-0.3,0.4-0.3,0.7c0,0.3,0.1,0.5,0.3,0.7c0.1,0.3,0.4,0.3,0.5,0.4c0.1,0,0.3,0,0.4,0
						s0.3,0,0.4,0c0.4,0,1,0.1,1.5,0.1c0.3,0,0.5,0.1,0.8,0.1h0.1c0.3,0.1,0.4,0.1,0.7,0.3l0.1,0.1c0.1,0.1,0.3,0.1,0.4,0.3l0,0l0,0
						c-0.1-0.1-0.1-0.3-0.3-0.4c-0.1-0.1-0.3-0.4-0.5-0.5c-0.1-0.1-0.1-0.1-0.3-0.1c-0.1-0.1-0.4-0.3-0.5-0.4
						c-0.5-0.3-1.1-0.7-1.5-0.8c-0.5-0.3-0.8-0.4-1-0.4C-252.7,318.2-252.7,318.2-252.8,318.2z"/>
				</g>
			</g>
		</g>
	</g>
	<g id="XMLID_10_">
		<g id="XMLID_343_">
			<g id="XMLID_347_">
				<g id="XMLID_348_">
					<path d="M-225.2,306.3c0-0.1-0.3-0.1-0.4-0.1c-0.3,0-0.7,0-1.2,0.1c-0.3,0.1-0.5,0.1-0.8,0.4l-0.1,0.1l-0.1,0.1
						c-0.1,0.1-0.1,0.1-0.1,0.1c0,0.1-0.1,0.1-0.1,0.1c-0.1,0.1-0.3,0.3-0.3,0.4c-0.1,0.3-0.3,0.5-0.4,0.7l-0.1,0.1c0,0,0,0-0.1,0
						l0,0c0,0,0,0-0.1,0c-0.3,0-0.4,0.1-0.5,0.1c-0.7,0.1-1.4,0.3-1.9,0.5c-0.7,0.3-1.2,0.4-1.6,0.7c-0.4,0.3-0.8,0.5-1,0.8
						c-0.3,0.3-0.3,0.4-0.1,0.4c0.1,0.1,0.3,0,0.4-0.1c0.3-0.1,0.5-0.3,1-0.4c0.4-0.1,1-0.3,1.5-0.4c0.7-0.1,1.2-0.3,1.9-0.4
						c0.3,0,0.4-0.1,0.5-0.1l0.3-0.1c0.1,0,0.1-0.1,0.3-0.1c0.1-0.1,0.1-0.1,0.3-0.1c0.1-0.1,0.1-0.1,0.1-0.1c0.4-0.4,0.5-0.7,0.7-1
						c0.1-0.1,0.1-0.3,0.1-0.4c0,0,0,0,0-0.1l0,0c0,0,0,0,0-0.1l0.1-0.1c0.1-0.1,0.4-0.3,0.5-0.4c0.4-0.1,0.8-0.3,1-0.4
						C-225.2,306.5-225,306.5-225.2,306.3z"/>
					<path d="M-233.9,310.7c-0.1,0-0.1,0-0.1-0.1c-0.1-0.1,0-0.3,0.1-0.5c0.3-0.3,0.5-0.5,1-0.8s1-0.5,1.6-0.7
						c0.7-0.3,1.4-0.4,1.9-0.5c0.1,0,0.1-0.1,0.3-0.1c0.1,0,0.1-0.1,0.3-0.1h0.1l0,0l0,0l0.1-0.1c0.1-0.1,0.3-0.4,0.4-0.5
						c0.1-0.1,0.1-0.1,0.1-0.3c0.1-0.1,0.1-0.1,0.1-0.3l0.1-0.1l0.1-0.1c0,0,0.1,0,0.1-0.1l0.1-0.1c0,0,0.1,0,0.1-0.1
						c0,0,0.1,0,0.1-0.1h0.1c0.3-0.3,0.7-0.3,1-0.4c0.4-0.1,0.8-0.1,1.1-0.1c0.1,0,0.1,0,0.1,0c0.3,0,0.4,0,0.5,0.1l0,0
						c0,0.1,0,0.1,0,0.1c-0.1,0.1-0.3,0.1-0.4,0.3c-0.1,0.1-0.4,0.1-0.5,0.3c-0.1,0.1-0.3,0.1-0.4,0.3c-0.3,0.1-0.4,0.3-0.5,0.4
						l-0.1,0.1l0,0l0,0c0,0,0,0,0,0.1s-0.1,0.1-0.1,0.1c0,0.1-0.1,0.1-0.1,0.3l-0.1,0.1c-0.1,0.3-0.3,0.5-0.5,1l-0.1,0.1l-0.1,0.1
						c0,0-0.1,0-0.1,0.1c-0.1,0-0.1,0.1-0.1,0.1s-0.1,0-0.1,0.1c-0.1,0-0.1,0.1-0.1,0.1l-0.3,0.1c-0.3,0.1-0.4,0.1-0.5,0.1
						c-0.4,0.1-0.8,0.1-1.1,0.3s-0.5,0.1-0.8,0.1c-0.7,0.1-1.1,0.3-1.5,0.4c-0.4,0.1-0.8,0.3-1,0.4
						C-233.6,310.6-233.7,310.7-233.9,310.7z M-228.8,308.1L-228.8,308.1c-0.1,0-0.3,0.1-0.3,0.1s-0.1,0.1-0.3,0.1
						c-0.7,0.1-1.4,0.3-1.9,0.5c-0.7,0.3-1.2,0.4-1.6,0.7c-0.4,0.3-0.7,0.5-1,0.8c-0.3,0.3-0.3,0.4-0.1,0.4c0,0,0.1,0.1,0.4-0.1
						c0.3-0.1,0.5-0.3,1-0.4c0.4-0.1,1-0.3,1.5-0.4c0.3-0.1,0.5-0.1,0.8-0.1c0.4-0.1,0.7-0.1,1.1-0.3c0.3,0,0.4-0.1,0.5-0.1l0.3-0.1
						c0.1,0,0.1-0.1,0.1-0.1s0.1,0,0.1-0.1c0.1,0,0.1-0.1,0.1-0.1s0,0,0.1-0.1l0.1-0.1l0.1-0.1c0.3-0.4,0.4-0.7,0.5-1l0.1-0.1
						c0-0.1,0.1-0.1,0.1-0.3s0.1-0.1,0.1-0.1l0,0l0,0l0,0c0,0,0-0.1,0.1-0.1l0.1-0.1c0.1-0.1,0.4-0.3,0.5-0.4s0.3-0.1,0.4-0.3
						c0.3-0.1,0.4-0.1,0.5-0.3c0.3-0.1,0.3-0.1,0.4-0.3c0,0,0,0,0-0.1c0-0.1-0.1-0.1-0.4-0.1c-0.1,0-0.1,0-0.1,0c-0.3,0-0.5,0-1,0.1
						c-0.3,0.1-0.5,0.1-0.8,0.4c0,0-0.1,0-0.1,0.1h-0.1l-0.1,0.1c0,0,0,0-0.1,0.1l-0.1,0.1l-0.1,0.1c0,0.1-0.1,0.1-0.1,0.1
						c-0.1,0.1-0.1,0.1-0.1,0.3c-0.1,0.1-0.1,0.1-0.1,0.3c-0.1,0.3-0.3,0.5-0.4,0.7l-0.1,0.1C-228.7,308.1-228.8,308.1-228.8,308.1
						L-228.8,308.1z"/>
				</g>
			</g>
		</g>
	</g>
	<g id="XMLID_11_">
		<g id="XMLID_336_">
			<g id="XMLID_340_">
				<g id="XMLID_341_">
					<path d="M-207.1,301.8c0.1-0.1-0.1-0.4-0.4-0.7c-0.4-0.4-1-0.8-1.9-1.1c-0.4-0.1-1-0.3-1.5-0.3c-0.5,0-1.2,0-1.8,0.3
						c-0.3,0.1-0.7,0.3-1,0.4c-0.3,0.1-0.7,0.4-1,0.5c-0.3,0.3-0.5,0.4-0.8,0.7c-0.1,0.1-0.1,0.1-0.3,0.3l-0.1,0.1l0,0l0,0l0,0l0,0
						l-0.1-0.1c-0.7-0.4-1.5-0.7-2.2-0.8c-0.8-0.1-1.5-0.1-2.2,0s-1.4,0.4-1.9,0.7c-0.1,0.1-0.3,0.1-0.4,0.3
						c-0.1,0.1-0.3,0.1-0.4,0.3c-0.1,0.1-0.3,0.1-0.4,0.3s-0.1,0.1-0.1,0.1c-0.1,0.1-0.1,0.1-0.1,0.1c-0.8,0.7-1.1,1.5-1.4,1.9
						c-0.1,0.3-0.1,0.5-0.1,0.7s0,0.3,0.1,0.3c0.1,0,0.1-0.1,0.3-0.1c0.1-0.1,0.3-0.3,0.4-0.5c0.3-0.4,0.8-1,1.5-1.5
						c0.1,0,0.1-0.1,0.1-0.1c0.1,0,0.1-0.1,0.1-0.1c0.1-0.1,0.3-0.1,0.3-0.3c0.1-0.1,0.3-0.1,0.4-0.1c0.1-0.1,0.3-0.1,0.4-0.1
						c0.5-0.3,1-0.4,1.5-0.4c0.5-0.1,1.2,0,1.8,0.1c0.7,0.1,1.2,0.4,1.8,0.7l0,0l0,0l0,0l0.1,0.1c0.1,0.1,0.3,0.1,0.3,0.3
						c0.3,0.1,0.4,0.3,0.5,0.4c0.3-0.3,0.4-0.5,0.5-0.8l0.1-0.3l0,0l0,0v-0.1c0.1-0.1,0.1-0.1,0.1-0.1c0.3-0.3,0.4-0.4,0.7-0.5
						s0.5-0.4,0.7-0.4c0.3-0.1,0.5-0.3,0.8-0.3c0.5-0.1,1.1-0.3,1.5-0.3c0.5,0,1,0,1.4,0.1c0.8,0.1,1.4,0.4,1.8,0.7
						C-207.4,301.8-207.1,302-207.1,301.8z"/>
					<path d="M-224.6,305.2L-224.6,305.2c-0.1-0.1-0.1-0.3-0.1-0.3c0-0.1,0.1-0.4,0.1-0.7c0.1-0.4,0.5-1.2,1.4-1.9
						c0.1,0,0.1-0.1,0.1-0.1l0.1-0.1l0.1-0.1c0.1-0.1,0.3-0.3,0.4-0.3c0.1-0.1,0.1-0.1,0.3-0.1c0.1,0,0.1-0.1,0.1-0.1
						c0.1-0.1,0.1-0.1,0.3-0.1c0.1,0,0.1-0.1,0.1-0.1c0.7-0.3,1.2-0.5,1.9-0.7c0.8-0.1,1.5-0.1,2.2,0c0.8,0.1,1.5,0.4,2.2,0.8
						l0.1,0.1l0,0l0.3-0.3c0.3-0.3,0.5-0.5,0.8-0.7c0.3-0.3,0.7-0.4,1-0.5c0.4-0.1,0.7-0.3,1-0.4c0.5-0.1,1.2-0.3,1.8-0.3
						c0.5,0,1.1,0.1,1.5,0.3c1.1,0.4,1.6,1,1.9,1.2c0.3,0.3,0.5,0.5,0.4,0.7v0.1c-0.1,0.1-0.3,0-0.8-0.4c-0.4-0.3-1-0.5-1.8-0.7
						c-0.4-0.1-1-0.1-1.4-0.1c-0.5,0.1-1.1,0.1-1.5,0.3c-0.3,0.1-0.5,0.3-0.8,0.3c-0.3,0.1-0.5,0.3-0.7,0.4
						c-0.3,0.1-0.4,0.4-0.7,0.5c-0.1,0.1-0.1,0.1-0.1,0.1l-0.1,0.1c0,0,0,0,0,0.1l-0.1,0.3c-0.1,0.1-0.3,0.3-0.3,0.4
						c-0.1,0.1-0.3,0.3-0.3,0.4l0,0l0,0c-0.1-0.1-0.1-0.1-0.3-0.3c-0.1-0.1-0.3-0.1-0.4-0.3s-0.3-0.1-0.3-0.3l-0.1-0.1l-0.1-0.1l0,0
						c-0.5-0.4-1.1-0.5-1.8-0.7c-0.5-0.1-1.2-0.1-1.8-0.1c-0.5,0.1-1.1,0.3-1.5,0.4c-0.1,0.1-0.3,0.1-0.4,0.1c0,0-0.1,0-0.1,0.1
						c-0.1,0-0.1,0.1-0.3,0.1c-0.1,0.1-0.3,0.1-0.3,0.1l-0.1,0.1c-0.1,0.1-0.1,0.1-0.1,0.1c-0.7,0.5-1.2,1.1-1.5,1.5
						c-0.1,0.1-0.1,0.3-0.3,0.3c-0.1,0.1-0.1,0.1-0.1,0.3C-224.5,305.2-224.6,305.2-224.6,305.2z M-219.1,300.9c-0.4,0-0.7,0-1,0.1
						c-0.7,0.1-1.2,0.3-1.8,0.7c-0.1,0-0.1,0.1-0.1,0.1c-0.1,0.1-0.1,0.1-0.3,0.1c-0.1,0-0.1,0.1-0.1,0.1c-0.1,0.1-0.1,0.1-0.3,0.1
						c-0.1,0.1-0.3,0.1-0.4,0.3l-0.1,0.1l-0.1,0.1c-0.1,0.1-0.1,0.1-0.1,0.1c-0.8,0.8-1.2,1.5-1.4,1.9c-0.1,0.3-0.1,0.4-0.1,0.7
						c0,0.1,0,0.3,0,0.3l0.1-0.1c0.1-0.1,0.1-0.1,0.1-0.3c0.1-0.1,0.1-0.1,0.3-0.3c0.3-0.4,0.8-1,1.5-1.5c0.1,0,0.1-0.1,0.1-0.1l0,0
						l0.1-0.1c0.1-0.1,0.3-0.1,0.3-0.3c0.1-0.1,0.1-0.1,0.3-0.1c0,0,0.1,0,0.1-0.1c0.1-0.1,0.3-0.1,0.4-0.1c0.5-0.3,1.1-0.4,1.6-0.4
						c0.5-0.1,1.2,0,1.8,0.1c0.7,0.1,1.2,0.4,1.8,0.7h0.1l0.1,0.1l0.1,0.1c0.1,0.1,0.3,0.1,0.3,0.3c0.1,0.1,0.3,0.1,0.4,0.3
						c0.1,0.1,0.1,0.1,0.3,0.1c0.1-0.1,0.1-0.3,0.3-0.4c0.1-0.1,0.3-0.3,0.3-0.4l0.1-0.3l0,0l0,0l0,0l0,0v-0.1
						c0.1-0.1,0.1-0.1,0.1-0.1c0.3-0.3,0.4-0.4,0.7-0.5c0.3-0.1,0.5-0.4,0.7-0.4c0.3-0.1,0.5-0.3,0.8-0.3c0.4-0.1,1-0.3,1.5-0.3
						c0.4,0,1,0,1.4,0.1c0.8,0.1,1.5,0.5,1.8,0.7c0.5,0.4,0.7,0.4,0.7,0.4l0,0c0-0.1-0.1-0.3-0.4-0.7c-0.3-0.3-0.8-0.8-1.9-1.1
						c-0.5-0.1-1.1-0.3-1.5-0.3c-0.7,0-1.2,0.1-1.8,0.3c-0.3,0.1-0.7,0.3-1,0.4c-0.3,0.1-0.7,0.3-1,0.5c-0.3,0.3-0.5,0.4-0.8,0.7
						l-0.4,0.4l0,0l0,0l-0.1-0.1c-0.7-0.4-1.4-0.7-2.2-0.8C-218.2,300.9-218.6,300.9-219.1,300.9z"/>
				</g>
			</g>
		</g>
	</g>
	<g id="XMLID_74_">
		<g id="XMLID_329_">
			<g id="XMLID_333_">
				<g id="XMLID_334_">
					<path d="M-205.9,293.3c0.1-0.1,0-0.3-0.3-0.5c-0.3-0.3-0.7-0.7-1.4-1c-0.4-0.1-0.7-0.3-1.1-0.3s-1,0-1.4,0.3
						c-0.4,0.1-1,0.4-1.4,0.7c-0.3,0.1-0.4,0.4-0.5,0.5c-0.1,0.1-0.1,0.1-0.1,0.1l0,0l0,0l0,0l0,0l0,0c-1.2-0.4-2.3-0.3-3.3,0.3
						c-0.4,0.3-0.8,0.5-1.1,1s-0.5,0.7-0.7,1.1c-0.3,0.7-0.3,1.4-0.3,1.6c0.1,0.4,0.3,0.5,0.3,0.5c0.1,0,0.1-0.3,0.3-0.5
						c0.1-0.4,0.3-0.8,0.5-1.4c0.3-0.5,0.8-1,1.5-1.4c0.7-0.3,1.5-0.4,2.3-0.1c0.4,0.1,0.7,0.3,1,0.4c0.1-0.3,0.3-0.4,0.4-0.7
						c0-0.1,0.1-0.1,0.1-0.1s0-0.1,0.1-0.1l0.1-0.1c0-0.1,0.1-0.1,0.1-0.1c0.1-0.1,0.3-0.3,0.4-0.4c0.3-0.3,0.7-0.4,1-0.5
						s0.7-0.3,1-0.3s0.7,0,0.8,0.1c0.5,0.1,1,0.3,1.2,0.4C-206,293.1-205.9,293.3-205.9,293.3z"/>
					<path d="M-216.7,297.6L-216.7,297.6c-0.1-0.1-0.3-0.3-0.4-0.7c-0.1-0.4-0.1-1,0.3-1.8c0.1-0.4,0.4-0.8,0.7-1.1
						c0.3-0.4,0.7-0.7,1.1-1c1.1-0.5,2.2-0.7,3.3-0.3l0,0l0,0l0,0c0,0,0,0,0.1-0.1l0.1-0.1c0.3-0.3,0.4-0.4,0.5-0.5
						c0.5-0.4,1-0.5,1.4-0.7c0.4-0.1,1-0.3,1.4-0.3s0.8,0.1,1.1,0.3c0.7,0.3,1.1,0.7,1.4,1s0.3,0.4,0.3,0.5s0,0.1-0.1,0.1
						c-0.1,0.1-0.3,0-0.4-0.1c-0.1,0-0.1-0.1-0.3-0.1l-0.1-0.1c-0.3-0.1-0.7-0.3-1.2-0.4c-0.3-0.1-0.5-0.1-0.8-0.1
						c-0.4,0.1-0.7,0.1-1,0.3c-0.4,0.1-0.7,0.4-1,0.5c-0.1,0.1-0.3,0.3-0.4,0.4l-0.1,0.1v0.1l-0.1,0.1c0,0,0,0,0,0.1c0,0,0,0,0,0.1
						l0,0l-0.1,0.1v0.1c-0.1,0.1-0.3,0.4-0.3,0.5l-0.1,0.1l0,0c-0.1-0.1-0.3-0.1-0.4-0.1c-0.3-0.1-0.4-0.3-0.7-0.3
						c-0.8-0.3-1.6-0.3-2.3,0.1c-0.7,0.3-1.1,0.7-1.5,1.4c-0.3,0.5-0.4,1-0.5,1.4c0,0.1,0,0.1,0,0.1
						C-216.6,297.5-216.6,297.6-216.7,297.6L-216.7,297.6z M-213.1,293c-0.7,0-1.4,0.1-1.9,0.5c-0.4,0.3-0.8,0.5-1.1,1
						c-0.3,0.3-0.5,0.7-0.7,1.1c-0.3,0.8-0.3,1.4-0.3,1.6c0.1,0.4,0.3,0.5,0.3,0.5c0.1,0,0.1-0.3,0.1-0.4c0-0.1,0-0.1,0-0.1
						c0.1-0.4,0.3-0.8,0.5-1.4c0.4-0.5,0.8-1.1,1.5-1.4c0.7-0.4,1.6-0.4,2.3-0.1c0.3,0.1,0.4,0.3,0.7,0.3c0.1,0.1,0.3,0.1,0.3,0.1
						l0.1-0.1c0.1-0.1,0.3-0.4,0.3-0.5V294c0-0.1,0.1-0.1,0.1-0.1s0,0,0-0.1c0,0,0,0,0-0.1l0.1-0.1l0.1-0.1c0.1-0.3,0.3-0.4,0.4-0.4
						c0.3-0.3,0.5-0.4,1-0.5c0.3-0.1,0.5-0.3,1-0.3c0.3,0,0.7,0,1,0.1c0.5,0.1,1,0.3,1.2,0.4l0.1,0.1c0.1,0,0.1,0.1,0.3,0.1
						c0.3,0.1,0.4,0.1,0.4,0.1l0,0l0,0c0-0.1-0.1-0.3-0.3-0.5c-0.3-0.3-0.7-0.7-1.4-1c-0.4-0.1-0.7-0.3-1.1-0.3
						c-0.5,0-1,0.1-1.4,0.3c-0.4,0.1-0.8,0.4-1.4,0.7c-0.3,0.1-0.4,0.3-0.5,0.5l-0.1,0.1l-0.1,0.1l0,0h-0.1l0,0l0,0c0,0,0,0-0.1,0
						l0,0C-212.2,293.1-212.7,293-213.1,293z"/>
				</g>
			</g>
		</g>
	</g>
	<g id="XMLID_75_">
		<g id="XMLID_322_">
			<g id="XMLID_326_">
				<g id="XMLID_327_">
					<path d="M-200.4,296.9c0.1-0.1,0.1-0.3-0.1-0.4c-0.1-0.3-0.3-0.5-0.7-1c-0.3-0.4-0.8-0.8-1.4-1.1c-0.5-0.4-1.4-0.7-2-0.7
						c-0.8-0.1-1.5-0.1-2.2,0.1c-0.7,0.1-1.2,0.4-1.6,0.8c-0.4,0.3-0.7,0.7-0.8,0.8c-0.1,0.3-0.3,0.4-0.1,0.4
						c0.1,0.1,0.7-0.3,1.4-0.5c0.8-0.4,1.9-0.7,3.1-0.4c0.7,0.1,1.2,0.3,1.8,0.5c0.5,0.3,1,0.5,1.2,0.8c0.3,0.3,0.7,0.5,0.8,0.7
						C-200.5,296.9-200.4,296.9-200.4,296.9z"/>
					<path d="M-200.4,296.9c-0.1,0-0.3-0.1-0.4-0.1c-0.3-0.1-0.5-0.4-1-0.7c-0.3-0.3-0.7-0.5-1.2-0.8c-0.5-0.3-1.1-0.4-1.6-0.5
						c-1.4-0.3-2.6,0.1-3.1,0.4c-0.3,0.1-0.4,0.3-0.7,0.3c-0.5,0.3-0.7,0.4-0.8,0.3c-0.1-0.1,0-0.3,0.1-0.5c0.1-0.3,0.5-0.5,0.8-0.8
						c0.4-0.3,1-0.5,1.6-0.8s1.5-0.3,2.2-0.1c0.8,0.1,1.5,0.4,2,0.7c0.5,0.4,1.1,0.8,1.4,1.2c0.3,0.3,0.5,0.7,0.7,1
						C-200.4,296.8-200.4,296.9-200.4,296.9L-200.4,296.9L-200.4,296.9z M-205.4,294.8c0.3,0,0.5,0,0.8,0.1c0.7,0.1,1.2,0.3,1.8,0.5
						s1,0.5,1.2,0.8c0.4,0.3,0.7,0.5,1,0.7c0.1,0.1,0.4,0.1,0.4,0.1s0.1-0.1-0.1-0.4c-0.1-0.4-0.4-0.7-0.7-1
						c-0.4-0.4-0.8-0.8-1.4-1.1c-0.5-0.4-1.4-0.7-2-0.7c-0.7-0.1-1.5-0.1-2.2,0.1s-1.2,0.5-1.6,0.8s-0.7,0.5-0.8,0.8
						c-0.1,0.3-0.3,0.4-0.1,0.4c0.1,0.1,0.4-0.1,0.8-0.3c0.3-0.1,0.4-0.3,0.7-0.3C-207.4,295-206.5,294.8-205.4,294.8z"/>
				</g>
			</g>
		</g>
	</g>
	<g id="XMLID_83_">
		<g id="XMLID_315_">
			<g id="XMLID_319_">
				<g id="XMLID_320_">
					<path d="M-203.5,285.1c0,0,0-0.1,0-0.3s-0.1-0.1-0.1-0.3c-0.1-0.1-0.1-0.1-0.3-0.3c-0.3-0.4-0.7-0.7-1.4-1.1
						c-0.7-0.4-1.5-0.7-2.4-1c-1-0.3-2-0.3-3.3-0.1c-0.7,0.1-1.2,0.3-1.8,0.4c-0.1,0.1-0.3,0.1-0.4,0.1c-0.1,0-0.1,0.1-0.3,0.1h-0.1
						h-0.1l0,0l-0.1,0.1c0,0,0,0,0-0.1s-0.1-0.3-0.1-0.3c-0.1-0.4-0.3-0.7-0.4-0.8c-0.3-0.5-0.7-0.8-1.1-1.1c-0.4-0.3-0.7-0.4-1-0.4
						c-0.3-0.1-0.4-0.1-0.4,0c-0.1,0.1,0.4,0.4,0.8,1c0.3,0.3,0.5,0.7,0.7,1.1c0.1,0.3,0.3,0.4,0.3,0.7v0.1v0.1v0.1
						c0,0.1,0,0.1,0,0.3v0.1v0.1c0,0.3,0,0.7,0.1,1c0.4-0.1,1-0.4,1.4-0.5c0.1,0,0.1-0.1,0.3-0.1s0.1,0,0.3-0.1
						c0.1,0,0.3-0.1,0.4-0.1c0.5-0.1,1.1-0.3,1.6-0.3c1.1-0.1,2-0.1,2.9,0c0.8,0.1,1.6,0.4,2.3,0.7
						C-204.4,284.8-203.7,285.2-203.5,285.1z"/>
					<path d="M-203.5,285.2c-0.1,0-0.4-0.1-0.7-0.3c-0.4-0.3-0.8-0.4-1.4-0.7s-1.4-0.4-2.3-0.7c-1-0.1-1.8-0.1-2.9,0
						c-0.5,0.1-1.1,0.1-1.6,0.3c-0.1,0-0.1,0.1-0.3,0.1s-0.1,0.1-0.3,0.1l-0.3,0.1c-0.1,0-0.1,0.1-0.3,0.1c-0.3,0.1-0.5,0.1-0.8,0.3
						c-0.3,0.1-0.4,0.1-0.7,0.3h-0.1l-0.1-1v-0.4l0,0v-0.1v-0.1v-0.1v-0.1c0,0,0,0,0-0.1v-0.1c-0.1-0.3-0.1-0.5-0.3-0.7
						c-0.3-0.4-0.4-0.8-0.7-1.1c-0.3-0.3-0.4-0.4-0.5-0.5c-0.3-0.3-0.4-0.4-0.3-0.5c0.1-0.1,0.3-0.1,0.4-0.1c0.3,0.1,0.5,0.3,1,0.4
						c0.4,0.4,0.8,0.7,1.1,1.1c0.3,0.3,0.4,0.5,0.4,1c0,0.1,0.1,0.1,0.1,0.3l0,0l0,0c0,0,0.1,0,0.1-0.1l0,0l0,0l0.1-0.1h0.1h0.1
						c0,0,0.1-0.1,0.3-0.1c0.1,0,0.1-0.1,0.3-0.1c0.7-0.1,1.2-0.3,1.8-0.4c1.1-0.1,2.2-0.1,3.3,0.1c1,0.3,1.8,0.5,2.4,1
						c0.5,0.4,1.1,0.8,1.4,1.1c0,0.1,0.1,0.1,0.1,0.1c0,0.1,0.1,0.1,0.1,0.1l0.1,0.1c0,0,0,0.1,0.1,0.1
						C-203.4,285-203.4,285.1-203.5,285.2L-203.5,285.2z M-209.3,283.6c0.5,0,1,0,1.4,0.1c1,0.1,1.8,0.4,2.3,0.7s1.1,0.5,1.4,0.7
						c0.4,0.3,0.7,0.4,0.7,0.3c0,0,0,0-0.1-0.1c0,0,0-0.1-0.1-0.1c0-0.1-0.1-0.1-0.1-0.1l-0.1-0.1l-0.1-0.1
						c-0.3-0.4-0.8-0.8-1.4-1.1c-0.7-0.4-1.5-0.7-2.4-1c-1-0.3-2.2-0.3-3.3-0.1c-0.7,0.1-1.2,0.3-1.8,0.4c-0.1,0-0.1,0.1-0.3,0.1
						c-0.1,0-0.1,0.1-0.3,0.1h-0.1c-0.1,0-0.1,0-0.1,0l-0.1,0.1c0,0,0,0-0.1,0c0,0-0.1,0-0.1,0.1h-0.1v-0.1l0,0l0,0
						c0-0.1-0.1-0.3-0.1-0.3c-0.1-0.3-0.3-0.5-0.4-0.8c-0.3-0.4-0.7-0.8-1.1-1.1c-0.4-0.3-0.7-0.4-1-0.4c-0.3-0.1-0.4-0.1-0.4,0
						c0,0.1,0.1,0.3,0.3,0.4c0.1,0.1,0.3,0.3,0.5,0.5s0.5,0.7,0.7,1.1c0.1,0.1,0.3,0.4,0.3,0.7v0.1l0,0v0.1v0.1v0.1v0.1v0.1v0.1
						l0.1,1c0.3-0.1,0.4-0.1,0.5-0.3c0.3-0.1,0.5-0.3,0.8-0.3c0.1,0,0.1-0.1,0.3-0.1l0.3-0.1c0.1,0,0.1-0.1,0.3-0.1
						c0.1,0,0.1-0.1,0.3-0.1c0.7-0.1,1.2-0.3,1.6-0.3C-210.2,283.6-209.8,283.6-209.3,283.6z"/>
				</g>
			</g>
		</g>
	</g>
	<g id="XMLID_110_">
		<g id="XMLID_308_">
			<g id="XMLID_312_">
				<g id="XMLID_313_">
					<path d="M-200.7,278.9c0.1-0.1,0.1-0.3-0.1-0.4c-0.1-0.3-0.5-0.4-1-0.5s-1-0.3-1.5-0.1c-0.5,0-1.2,0.1-1.8,0.4
						c-0.4,0.1-0.7,0.3-1,0.5c-0.3,0.3-0.5,0.4-0.7,0.7c-0.4,0.4-0.7,0.8-0.8,1c-0.3,0.3-0.4,0.4-0.5,0.7c-0.1,0.1-0.1,0.1-0.3,0.3
						c0,0.1-0.1,0.1-0.1,0.1c0,0.1,0.1,0.1,0.1,0.1c0.1,0,0.3,0,0.3,0c0.3,0,0.7-0.1,1-0.4c0.4-0.3,0.7-0.5,1.1-0.8
						c0.3-0.1,0.4-0.3,0.5-0.4c0.3-0.1,0.4-0.3,0.7-0.4c0.4-0.3,1-0.3,1.5-0.4c0.5-0.1,0.8-0.1,1.2-0.1c0.4,0,0.5,0.1,0.8,0.1
						C-200.8,278.9-200.7,279-200.7,278.9z"/>
					<path d="M-207.6,281.2c-0.1,0-0.3,0-0.3,0c-0.1,0-0.1-0.1-0.1-0.1l0,0c0-0.1,0-0.1,0.1-0.1l0,0l0.3-0.3
						c0.1-0.1,0.1-0.1,0.1-0.3c0.1-0.1,0.3-0.3,0.4-0.4c0.1-0.1,0.3-0.3,0.4-0.4c0.1-0.3,0.4-0.4,0.5-0.7c0.3-0.3,0.4-0.4,0.7-0.7
						c0.3-0.3,0.5-0.4,1-0.5c0.7-0.3,1.4-0.4,1.8-0.4c0.5,0,1.1,0,1.5,0.1c0.4,0.1,0.8,0.4,1,0.7c0.1,0.1,0.1,0.3,0.1,0.4
						c0,0.1,0,0.1-0.1,0.1c-0.1,0.1-0.3,0.1-0.4,0h-0.1c-0.3-0.1-0.4-0.1-0.8-0.1c-0.3,0-0.7,0-1.2,0.1s-1,0.3-1.4,0.4
						c-0.3,0.1-0.4,0.3-0.7,0.4c-0.1,0.1-0.3,0.1-0.4,0.3c-0.1,0.1-0.1,0.1-0.3,0.3c-0.4,0.4-0.7,0.7-1.1,1c-0.4,0.3-0.7,0.4-1,0.4
						C-207.6,281.2-207.6,281.2-207.6,281.2z M-207.9,281C-207.9,281-207.9,281.2-207.9,281c0.1,0.1,0.3,0.1,0.4,0.1s0.5-0.1,1-0.4
						c0.4-0.3,0.7-0.5,1.1-0.8c0.1-0.1,0.1-0.1,0.3-0.3c0.1-0.1,0.3-0.3,0.4-0.3c0.3-0.1,0.4-0.3,0.7-0.4c0.4-0.3,1-0.3,1.5-0.4
						c0.5-0.1,1-0.1,1.2-0.1l0,0c0.4,0,0.5,0.1,0.8,0.1h0.1c0.3,0.1,0.3,0.1,0.4,0l0,0c0,0,0,0,0-0.1s-0.1-0.3-0.1-0.3
						c-0.3-0.3-0.5-0.4-1-0.5s-1-0.3-1.5-0.1c-0.4,0-1.1,0.1-1.8,0.4c-0.4,0.1-0.7,0.3-1,0.5c-0.3,0.1-0.4,0.4-0.7,0.7
						c-0.3,0.3-0.4,0.4-0.5,0.7c-0.1,0.1-0.3,0.3-0.4,0.4c-0.1,0.3-0.3,0.4-0.4,0.4c-0.1,0.1-0.1,0.1-0.1,0.3L-207.9,281L-207.9,281
						z"/>
				</g>
			</g>
		</g>
	</g>
	<g id="XMLID_112_">
		<g id="XMLID_301_">
			<g id="XMLID_305_">
				<g id="XMLID_306_">
					<path d="M-195.1,292.3c0.1,0,0.3-0.1,0.4-0.5s0.3-1,0.3-1.8c0-0.8-0.3-1.6-0.8-2.6c-0.3-0.4-0.7-0.8-1.2-1.2
						c-0.5-0.4-1.1-0.7-1.6-0.7c-0.4-0.1-0.8-0.1-1.2-0.1c-0.4,0-0.8,0.1-1.1,0.3c-0.3,0.1-0.4,0.1-0.5,0.3
						c-0.1,0.1-0.1,0.1-0.3,0.1c-0.1,0-0.1,0.1-0.3,0.1c-0.1,0.1-0.1,0.1-0.1,0.1h-0.1l0,0l0,0h-0.1c0,0.1-0.3-0.3-0.5-0.4
						c-0.3-0.1-0.5-0.4-0.7-0.4c-0.5-0.3-1-0.4-1.4-0.4s-0.7,0-1,0.1s-0.3,0.1-0.3,0.3s0.4,0.1,1.1,0.3c0.3,0.1,0.7,0.3,1,0.5
						c0.3,0.1,0.4,0.3,0.5,0.4c0.1,0.1,0.3,0.1,0.3,0.3l0.1,0.1l0.1,0.1l0.1,0.1c0.1,0.1,0.3,0.1,0.4,0.3c0.3,0.1,0.5,0.1,0.8,0h0.1
						h0.1c0.1,0,0.1-0.1,0.1-0.1c0.1-0.1,0.1-0.1,0.3-0.1c0.1,0,0.1-0.1,0.3-0.1s0.1-0.1,0.3-0.1c0.1-0.1,0.3-0.1,0.4-0.1
						c0.5-0.3,1.1-0.3,1.6-0.1c0.8,0.1,1.6,0.7,2.2,1.4c0.3,0.3,0.4,0.7,0.5,1c0.1,0.4,0.3,0.7,0.3,1c0.1,0.7,0.1,1.2,0.1,1.5
						C-195.1,292-195.1,292.2-195.1,292.3z"/>
					<path d="M-195.1,292.3L-195.1,292.3c-0.1,0-0.1-0.3-0.1-0.8c0-0.4,0-1-0.1-1.5c-0.1-0.4-0.1-0.7-0.3-1c-0.1-0.3-0.4-0.7-0.5-1
						c-0.5-0.7-1.4-1.2-2-1.4c-0.5-0.1-1.1-0.1-1.6,0.1c-0.1,0.1-0.3,0.1-0.4,0.1c0,0-0.1,0-0.1,0.1c0,0-0.1,0-0.1,0.1l-0.1,0.1
						l-0.1,0.1c-0.1,0-0.1,0.1-0.3,0.1h-0.1h-0.1l-0.3,0.1c-0.3,0.1-0.5,0.1-0.8,0c-0.1-0.1-0.3-0.1-0.4-0.3l-0.1-0.1l-0.1-0.1
						c-0.1-0.1-0.1-0.1-0.3-0.3l-0.1-0.1c-0.3-0.3-0.4-0.3-0.5-0.4c-0.4-0.3-0.8-0.4-1-0.5c-0.3-0.1-0.5-0.1-0.7-0.3
						c-0.3-0.1-0.4-0.1-0.4-0.1c0-0.1,0-0.1,0.3-0.3c0.1-0.1,0.5-0.1,1-0.1c0.4,0.1,1,0.3,1.4,0.4c0.3,0.1,0.5,0.3,0.7,0.4
						c0.1,0.1,0.3,0.3,0.4,0.3c0.1,0.1,0.1,0.1,0.1,0.1l0,0c0,0,0,0,0.1,0l0,0l0,0h0.1c0.1,0,0.1-0.1,0.1-0.1s0,0,0.1,0
						c0.1,0,0.1-0.1,0.3-0.1s0.1-0.1,0.3-0.1c0.1-0.1,0.3-0.1,0.5-0.3s0.7-0.3,1.1-0.3c0.4-0.1,0.8,0,1.2,0.1
						c0.7,0.1,1.2,0.4,1.6,0.7c0.5,0.4,1,0.8,1.2,1.2c0.7,1,0.8,1.9,0.8,2.6c0,0.8-0.1,1.4-0.3,1.8
						C-194.8,292-194.8,292.2-195.1,292.3C-195,292.3-195.1,292.3-195.1,292.3z M-198.8,286.6c0.3,0,0.4,0,0.5,0.1
						c0.8,0.1,1.6,0.7,2.2,1.4c0.3,0.3,0.4,0.7,0.5,1c0.1,0.4,0.3,0.7,0.3,1c0.1,0.7,0.1,1.2,0.1,1.5s0,0.7,0.1,0.7l0,0l0,0
						c0.1,0,0.3-0.3,0.3-0.5c0.1-0.4,0.3-1,0.3-1.8c0-0.7-0.1-1.6-0.8-2.4c-0.3-0.4-0.7-0.8-1.2-1.2c-0.5-0.4-1.1-0.7-1.6-0.7
						c-0.4-0.1-0.8-0.1-1.2-0.1c-0.4,0.1-0.8,0.1-1.1,0.3s-0.4,0.1-0.5,0.3c-0.1,0.1-0.1,0.1-0.3,0.1s-0.1,0.1-0.1,0.1s0,0-0.1,0
						c-0.1,0.1-0.1,0.1-0.1,0.1l-0.1,0.1c0,0,0,0-0.1,0l0,0c0,0-0.1,0-0.3-0.1c-0.1-0.1-0.3-0.3-0.4-0.3c-0.3-0.1-0.5-0.4-0.7-0.4
						c-0.4-0.3-1-0.4-1.4-0.4s-0.7,0.1-1,0.1c-0.3,0.1-0.3,0.1-0.3,0.1c0,0.1,0.1,0.1,0.3,0.1c0.3,0,0.4,0.1,0.7,0.3s0.7,0.3,1,0.5
						c0.1,0.1,0.4,0.3,0.5,0.4c0.1,0,0.1,0.1,0.1,0.1c0.1,0.1,0.1,0.1,0.3,0.3l0.1,0.1l0.1,0.1c0.1,0.1,0.3,0.1,0.4,0.3
						c0.3,0.1,0.5,0.1,0.8,0l0.3-0.1h0.1h0.1c0.1-0.1,0.1-0.1,0.3-0.1c0,0,0.1,0,0.1-0.1l0.1-0.1c0,0,0.1,0,0.1-0.1
						c0,0,0.1,0,0.1-0.1c0.1-0.1,0.3-0.1,0.4-0.1C-199.5,286.7-199.2,286.6-198.8,286.6z"/>
				</g>
			</g>
		</g>
	</g>
	<g id="XMLID_114_">
		<g id="XMLID_293_">
			<g id="XMLID_297_">
				<g id="XMLID_298_">
					<path d="M-191,298.7c0.1,0,0.3-0.3,0.3-0.5c0.1-0.4,0.3-1,0.1-1.8c0-0.4-0.1-0.8-0.3-1.2c-0.1-0.4-0.4-0.8-0.8-1.4
						c-0.4-0.4-0.8-0.8-1.4-1c-0.3-0.1-0.5-0.3-1-0.3c-0.1,0-0.1,0-0.3,0c-0.1,0-0.1,0-0.3,0c-0.1,0-0.3,0-0.3,0h-0.1h-0.1l0,0l0,0
						l0,0l0,0c0,0,0,0-0.1,0l0,0l0,0v-0.1c0-0.1-0.1-0.3-0.1-0.4c-0.1-0.3-0.1-0.5-0.3-0.7c-0.1-0.3-0.3-0.4-0.4-0.7
						c-0.3-0.4-0.7-0.7-1-1c-0.4-0.3-0.7-0.4-1.1-0.5c-0.7-0.3-1.2-0.3-1.6-0.3c-0.4,0.1-0.5,0.1-0.5,0.3s0.3,0.1,0.5,0.3
						c0.4,0.1,0.8,0.3,1.4,0.5c0.5,0.3,1,0.7,1.4,1.4c0.1,0.1,0.3,0.4,0.3,0.5c0.1,0.1,0.1,0.4,0.1,0.5s0,0.3,0.1,0.3v0.1l0,0l0,0
						v0.1c0,0.1,0,0.3,0,0.4c0,0.5-0.1,1.1-0.3,1.5c0.3-0.1,0.5-0.3,0.8-0.4l0.3-0.1l0.3-0.1l0.3-0.1c0.1,0,0.1-0.1,0.3-0.1h0.3
						c0.1,0,0.1,0,0.1,0h0.1c0.1,0,0.1,0,0.1,0c0.3,0,0.4,0.1,0.7,0.1c0.4,0.1,0.8,0.4,1,0.7c0.3,0.3,0.5,0.5,0.7,1
						c0.1,0.4,0.3,0.7,0.4,1c0.1,0.7,0.3,1.2,0.3,1.5C-191.2,298.6-191.2,298.7-191,298.7z"/>
					<path d="M-191,298.7L-191,298.7L-191,298.7c-0.1,0-0.1-0.1-0.3-0.7c0-0.1,0-0.1,0-0.3c-0.1-0.4-0.1-0.8-0.3-1.4
						c-0.1-0.3-0.1-0.7-0.4-1c-0.1-0.4-0.4-0.7-0.7-1c-0.3-0.3-0.7-0.5-1-0.7c-0.3-0.1-0.4-0.1-0.5-0.1c-0.1,0-0.1,0-0.1,0h-0.4
						h-0.3c-0.1,0-0.1,0.1-0.3,0.1l-0.4,0.3l-0.3,0.1c-0.3,0.1-0.4,0.3-0.5,0.3c-0.1,0.1-0.3,0.1-0.3,0.1h-0.1v-0.1
						c0-0.3,0.1-0.4,0.1-0.7c0.1-0.3,0.1-0.7,0.1-1v-0.5c0-0.1,0-0.1,0-0.3v-0.1c0-0.1-0.1-0.4-0.1-0.5c0-0.1-0.1-0.4-0.3-0.5
						c-0.3-0.5-0.8-1-1.4-1.4c-0.4-0.3-0.8-0.4-1.2-0.5l-0.1-0.1h-0.1c-0.3-0.1-0.4-0.1-0.4-0.3c0-0.1,0.4-0.3,0.7-0.3
						s0.8-0.1,1.6,0.3c0.4,0.1,0.7,0.3,1.1,0.5s0.7,0.7,1,1c0.1,0.3,0.3,0.4,0.4,0.7c0.1,0.3,0.3,0.4,0.3,0.7c0,0.1,0.1,0.3,0.1,0.4
						v0.1l0,0l0,0h0.1h0.1h0.1c0.1,0,0.3,0,0.3,0h0.1c0.1,0,0.1,0,0.1,0h0.1c0.1,0,0.1,0,0.1,0c0.4,0.1,0.7,0.1,1,0.3
						c0.5,0.3,1.1,0.7,1.4,1c0.4,0.4,0.7,1,0.8,1.4c0.1,0.4,0.3,0.8,0.3,1.2c0.1,0.7,0,1.2-0.1,1.8
						C-190.8,298.6-190.9,298.7-191,298.7z M-191,298.7L-191,298.7c0.1,0,0.1-0.1,0.3-0.5c0.1-0.5,0.3-1.1,0.1-1.8
						c0-0.4-0.1-0.8-0.3-1.2c-0.1-0.4-0.4-0.8-0.8-1.2s-0.8-0.7-1.4-1c-0.3-0.1-0.5-0.3-1-0.3c-0.1,0-0.1,0-0.1,0
						c-0.1,0-0.1,0-0.1,0h-0.1c-0.1,0-0.1,0-0.1,0s-0.1,0-0.3,0h-0.1h-0.1h-0.1c0,0,0,0-0.1,0h-0.1v-0.1l0,0v-0.1v-0.1
						c0-0.1-0.1-0.3-0.1-0.4c-0.1-0.3-0.1-0.5-0.3-0.7c-0.1-0.3-0.3-0.4-0.4-0.7c-0.3-0.4-0.5-0.7-1-1c-0.4-0.3-0.7-0.4-1-0.5
						c-0.8-0.3-1.4-0.3-1.6-0.3c-0.4,0.1-0.5,0.1-0.5,0.3s0.1,0.1,0.4,0.1h0.1l0.1,0.1c0.3,0.1,0.7,0.3,1.2,0.5
						c0.7,0.4,1.1,0.8,1.4,1.4c0.1,0.1,0.1,0.3,0.3,0.5c0.1,0.3,0.1,0.4,0.1,0.5v0.1c0,0.1,0,0.1,0,0.3v0.5c0,0.3-0.1,0.7-0.1,1
						c0,0.3-0.1,0.4-0.1,0.5c0.1,0,0.1-0.1,0.3-0.1c0.3-0.1,0.4-0.3,0.5-0.3l0.3-0.1l0.4-0.3c0.1-0.1,0.1-0.1,0.3-0.1h0.3h0.4
						c0.1,0,0.1,0,0.1,0c0.3,0,0.4,0.1,0.7,0.1c0.4,0.1,0.8,0.4,1.1,0.7c0.3,0.3,0.5,0.5,0.7,1c0.1,0.4,0.3,0.7,0.4,1
						c0.1,0.5,0.3,1,0.3,1.4c0,0.1,0,0.1,0,0.3C-191.2,298.7-191,298.7-191,298.7z"/>
				</g>
			</g>
		</g>
	</g>
	<g id="XMLID_146_">
		<g id="XMLID_285_">
			<g id="XMLID_289_">
				<path class="st1" d="M-196.5,285.2"/>
			</g>
		</g>
	</g>
	<g id="XMLID_154_">
		<g id="XMLID_278_">
			<g id="XMLID_282_">
				<g id="XMLID_284_">
					<path class="st0" d="M-192.4,288.9c-0.1,0.1-0.3-0.3-0.7-0.7c-0.3-0.4-0.7-1-1.2-1.2c-0.5-0.4-1-0.7-1.4-0.8s-0.7-0.1-0.8-0.1
						s-0.1-0.1-0.1-0.3s-0.1-0.4,0-0.7c0-0.3,0.1-0.4,0.3-0.7c0.1-0.1,0.3-0.3,0.3-0.3s0.5,0.1,1.1,0.4c0.5,0.3,1.2,0.8,1.6,1.4
						c0.5,0.7,0.8,1.2,1,1.8C-192.2,288.5-192.2,288.8-192.4,288.9z"/>
					<path d="M-192.4,288.9c-0.1,0-0.3-0.3-0.7-0.7c-0.3-0.4-0.7-1-1.2-1.2c-0.4-0.4-1-0.7-1.4-0.8s-0.7-0.1-0.7-0.1
						s-0.1-0.1-0.3-0.3c0-0.1-0.1-0.4,0-0.7c0-0.3,0.1-0.5,0.3-0.7c0.1-0.1,0.3-0.3,0.4-0.3l0,0c0,0,0.5,0.1,1.1,0.4
						c0.7,0.3,1.2,0.8,1.6,1.4s0.8,1.2,1,1.8C-192.2,288.4-192.2,288.9-192.4,288.9L-192.4,288.9z M-196.3,286.1
						c0.1,0,0.4,0,0.8,0.1s1,0.4,1.4,0.8c0.5,0.4,1,1,1.2,1.2c0.3,0.3,0.5,0.7,0.5,0.7l0,0c0.1,0,0.1-0.4,0-0.8
						c-0.1-0.5-0.4-1.2-1-1.8c-0.4-0.5-1.1-1.1-1.6-1.4c-0.5-0.3-1-0.4-1.1-0.4c-0.1,0-0.3,0.1-0.3,0.3c-0.1,0.1-0.1,0.4-0.1,0.5
						c0,0.3,0,0.4,0,0.7C-196.3,285.9-196.3,286.1-196.3,286.1L-196.3,286.1z"/>
				</g>
			</g>
		</g>
	</g>
	<g id="XMLID_16_">
		<g id="XMLID_270_">
			<g id="XMLID_274_">
				<path class="st1" d="M-264.9,258.8"/>
			</g>
		</g>
	</g>
	<g id="XMLID_177_">
		<g id="XMLID_263_">
			<g id="XMLID_268_">
				<g id="XMLID_269_">
					<path d="M-256.9,256c0-0.1-0.3-0.4-1-0.5s-1.5-0.3-2.4-0.1c-0.5,0.1-1,0.3-1.4,0.4c-0.4,0.1-0.8,0.4-1.1,0.7
						c-0.3,0.3-0.4,0.5-0.4,0.8c0,0.3,0.1,0.4,0.1,0.4l0.3-0.1c0.1-0.1,0.3-0.1,0.5-0.3s0.5-0.1,0.8-0.3c0.4-0.1,0.8-0.1,1.2-0.3
						c0.8-0.1,1.6-0.3,2.2-0.3C-257.3,256.3-256.9,256.3-256.9,256z"/>
					<path d="M-262.9,257.5L-262.9,257.5c-0.1,0-0.1,0-0.1-0.1c-0.1-0.1-0.1-0.3-0.1-0.4c0-0.3,0.3-0.5,0.4-0.8
						c0.3-0.3,0.7-0.5,1.1-0.7c0.4-0.1,0.8-0.3,1.4-0.4c0.8-0.1,1.8-0.1,2.4,0.1c0.7,0.1,1,0.4,1,0.7c-0.1,0.3-0.4,0.3-1.1,0.4
						c-0.1,0-0.3,0-0.5,0.1c-0.5,0.1-1.1,0.1-1.8,0.3c-0.4,0.1-0.8,0.1-1.2,0.3c-0.4,0.1-0.7,0.1-0.8,0.3
						C-262.6,257.4-262.7,257.4-262.9,257.5C-262.7,257.5-262.7,257.5-262.9,257.5z M-259.3,255.4c-0.4,0-0.7,0-1,0.1
						c-0.5,0.1-1,0.3-1.4,0.4c-0.4,0.1-0.8,0.4-1.1,0.7c-0.3,0.3-0.4,0.5-0.4,0.8c0,0.1,0,0.3,0.1,0.3h0.1c0.1,0,0.3-0.1,0.3-0.1
						c0.1-0.1,0.3-0.1,0.5-0.3c0.3-0.1,0.5-0.1,0.8-0.3c0.4-0.1,0.8-0.1,1.2-0.3c0.7-0.1,1.2-0.1,1.8-0.3c0.1,0,0.4,0,0.5-0.1
						c0.5-0.1,1-0.1,1-0.3l0,0c0-0.1-0.3-0.4-1-0.5C-258.2,255.4-258.8,255.4-259.3,255.4z"/>
				</g>
			</g>
		</g>
	</g>
	<g id="XMLID_185_">
		<g id="XMLID_255_">
			<g id="XMLID_260_">
				<path class="st1" d="M-253.2,246.5"/>
			</g>
		</g>
	</g>
	<g id="XMLID_193_">
		<g id="XMLID_247_">
			<g id="XMLID_253_">
				<g id="XMLID_254_">
					<path d="M-260.7,246.1c0-0.1-0.3-0.1-0.5-0.3c-0.4-0.1-0.8-0.1-1.4,0.1c-0.5,0.1-1.2,0.4-1.9,0.8c-0.7,0.4-1.4,1.1-1.8,1.8
						c-0.5,0.8-0.8,1.6-0.8,2.3c-0.1,0.8-0.1,1.5,0.1,2c0.3,0.5,0.3,1,0.4,1.2c0.1,0.3,0.3,0.4,0.4,0.4c0.3-0.1,0.1-0.7,0.1-1.8
						c0-0.5,0.1-1.1,0.3-1.8c0.1-0.7,0.4-1.4,0.8-1.9c0.4-0.7,1-1.1,1.4-1.5c0.4-0.4,1.1-0.7,1.5-1
						C-261.4,246.3-260.7,246.2-260.7,246.1z"/>
					<path d="M-266.3,254.5c-0.1,0-0.3-0.1-0.4-0.4c-0.3-0.4-0.4-0.8-0.4-1.2c-0.1-0.7-0.1-1.4-0.1-2c0.1-0.5,0.3-1.5,0.8-2.3
						c0.5-0.8,1.1-1.4,1.8-1.8c0.7-0.5,1.5-0.7,1.9-0.8c0.7-0.1,1.2-0.1,1.4-0.1c0.5,0.1,0.5,0.3,0.5,0.3c0,0.1-0.3,0.3-0.7,0.4
						c-0.3,0.1-0.7,0.3-1,0.4c-0.5,0.3-1.1,0.5-1.5,1c-0.5,0.4-1.1,1-1.4,1.5c-0.4,0.5-0.7,1.2-0.8,1.9c-0.1,0.7-0.3,1.4-0.3,1.8
						c0,0.4,0,0.7,0,1C-266.1,254.2-266.1,254.5-266.3,254.5L-266.3,254.5z M-261.8,245.8c-0.3,0-0.5,0.1-1,0.1
						c-0.5,0.1-1.2,0.4-1.9,0.8c-0.7,0.4-1.4,1.1-1.8,1.8c-0.5,1-0.8,1.8-0.8,2.3c-0.1,0.7-0.1,1.4,0.1,2c0.1,0.7,0.3,1.1,0.4,1.2
						c0.3,0.4,0.4,0.4,0.4,0.4c0.1,0,0.1-0.4,0.1-0.8c0-0.3,0-0.5,0-1c0-0.4,0.1-1.1,0.3-1.8c0.3-0.7,0.4-1.4,0.8-1.9
						c0.4-0.5,0.8-1.1,1.4-1.5c0.4-0.4,1-0.7,1.5-1c0.4-0.1,0.8-0.3,1.1-0.4c0.4-0.1,0.5-0.3,0.5-0.3s-0.1-0.1-0.5-0.3
						C-261.4,245.8-261.5,245.8-261.8,245.8z"/>
				</g>
			</g>
		</g>
	</g>
	<g id="XMLID_195_">
		<g id="XMLID_237_">
			<g id="XMLID_244_">
				<g id="XMLID_245_">
					<ellipse cx="-260.8" cy="246.2" rx="0" ry="0.3"/>
					<path d="M-260.8,246.5c0,0-0.1,0-0.1-0.4s0.1-0.4,0.1-0.4s0.1,0,0.1,0.4C-260.8,246.5-260.8,246.5-260.8,246.5z M-260.8,245.9
						c0,0.1,0,0.1,0,0.3c0,0.1,0,0.3,0,0.3c0-0.1,0-0.1,0-0.3C-260.8,246.1-260.8,245.9-260.8,245.9z"/>
				</g>
			</g>
		</g>
	</g>
	<g id="XMLID_202_">
		<g id="XMLID_229_">
			<g id="XMLID_233_">
				<g id="XMLID_234_">
					<path d="M-256.6,244.4c0-0.1-0.3-0.3-0.8-0.3c-0.5,0-1.1,0.3-1.8,0.5c-0.3,0.1-0.7,0.4-0.8,0.5c-0.3,0.1-0.5,0.4-0.7,0.5
						c-0.1,0.1-0.3,0.4-0.3,0.7c0,0.1,0.1,0.3,0.1,0.3c0.1,0,0.1-0.3,0.4-0.5c0.1-0.1,0.4-0.3,0.7-0.4c0.3-0.1,0.5-0.3,0.8-0.4
						c0.7-0.3,1.1-0.5,1.5-0.7C-257,244.6-256.6,244.6-256.6,244.4z"/>
					<path d="M-260.7,246.6c-0.1,0-0.1-0.1-0.1-0.3c-0.1-0.3,0-0.4,0.3-0.7c0.1-0.3,0.4-0.4,0.7-0.5c0.3-0.3,0.5-0.4,0.8-0.5
						c0.7-0.4,1.2-0.5,1.8-0.5c0.4,0,0.7,0.1,0.8,0.1v0.1c0,0.1-0.1,0.1-0.5,0.3c-0.1,0-0.1,0.1-0.3,0.1c-0.3,0.1-0.8,0.3-1.5,0.7
						c-0.3,0.1-0.7,0.3-0.8,0.4c-0.3,0.1-0.5,0.3-0.7,0.4c-0.1,0.1-0.3,0.3-0.3,0.4C-260.7,246.5-260.7,246.6-260.7,246.6
						L-260.7,246.6z M-257.4,244.3L-257.4,244.3c-0.5,0-1.2,0.3-1.8,0.5c-0.3,0.1-0.5,0.3-0.8,0.5c-0.3,0.1-0.5,0.3-0.7,0.5
						c-0.1,0.3-0.3,0.4-0.3,0.5c0,0.1,0.1,0.3,0.1,0.3l0.1-0.1c0.1-0.1,0.1-0.3,0.3-0.4c0.1-0.1,0.4-0.3,0.7-0.4
						c0.3-0.1,0.5-0.3,0.8-0.4c0.7-0.4,1.2-0.5,1.5-0.7c0.1,0,0.1-0.1,0.3-0.1c0.3-0.1,0.4-0.1,0.4-0.3l0,0l0,0
						C-256.9,244.3-257,244.3-257.4,244.3z"/>
				</g>
			</g>
		</g>
	</g>
	<g id="XMLID_204_">
		<g id="XMLID_221_">
			<g id="XMLID_225_">
				<g id="XMLID_226_">
					<path d="M-246.8,245.5c0.1,0,0.3-0.3,0.3-0.8c0-0.5-0.1-1.2-0.5-2c-0.3-0.4-0.5-0.8-1-1.2c-0.4-0.4-1-0.7-1.6-0.8
						c-0.7-0.1-1.4-0.1-2,0.1c-0.1,0-0.3,0.1-0.3,0.1c-0.1,0-0.3,0.1-0.3,0.1c-0.1,0.1-0.3,0.1-0.4,0.1h-0.1l0,0l0,0l0,0l0,0
						c0,0,0,0-0.1-0.1l-0.1-0.1c-0.1-0.1-0.1-0.1-0.3-0.3c-0.3-0.1-0.4-0.3-0.5-0.4c-0.4-0.1-0.8-0.3-1.1-0.3c-0.4,0-0.7,0-1.1,0.1
						c-0.1,0-0.1,0-0.3,0c-0.1,0-0.1,0-0.3,0.1c-0.1,0-0.1,0-0.3,0.1c-0.1,0-0.1,0.1-0.3,0.1c-0.5,0.3-1.1,0.4-1.5,0.7
						s-0.8,0.7-1.1,1c-0.7,0.7-1,1.4-1.1,1.8c0,0.1-0.1,0.3-0.1,0.3s0,0.1,0,0.3c0,0.1,0,0.3,0.1,0.3s0.1,0,0.3-0.1
						c0.1-0.1,0.1-0.1,0.1-0.3c0.1-0.1,0.1-0.1,0.3-0.3c0.3-0.4,0.7-0.8,1.2-1.4s1.4-1,2.3-1.2c0.1,0,0.1,0,0.3-0.1
						c0.1,0,0.1,0,0.3,0s0.1,0,0.3,0c0.1,0,0.1,0,0.3,0c0.3,0,0.5,0,0.8,0c0.3,0,0.5,0.1,0.7,0.1c0.1,0.1,0.3,0.1,0.3,0.1
						c0.1,0,0.1,0.1,0.1,0.1l0.1,0.1l0.1,0.1l0.1,0.1l0.1,0.1c0.1,0.1,0.3,0.1,0.4,0.3c0.1,0,0.3,0.1,0.4,0c0.1,0,0.1,0,0.3-0.1
						c0.1,0,0.1,0,0.3-0.1c0.3-0.1,0.4-0.1,0.5-0.3c0.1,0,0.1-0.1,0.3-0.1c0.1,0,0.1-0.1,0.1-0.1c0.4-0.1,1-0.3,1.4-0.1
						c0.5,0.1,0.8,0.3,1.2,0.5s0.7,0.5,0.8,0.8c0.4,0.7,0.7,1.2,0.8,1.6C-246.9,245.2-246.9,245.5-246.8,245.5z"/>
					<path d="M-246.8,245.5c-0.1,0-0.1-0.3-0.3-0.5l-0.1-0.1c-0.1-0.5-0.4-1.1-0.8-1.6c-0.3-0.4-0.5-0.7-0.8-0.8
						c-0.4-0.3-0.8-0.4-1.2-0.5c-0.5-0.1-1,0-1.4,0.1l0,0c-0.1,0-0.1,0-0.1,0.1l0,0c-0.1,0-0.1,0-0.1,0.1c0,0,0,0-0.1,0
						c-0.1,0.1-0.3,0.1-0.5,0.3c-0.1,0-0.1,0.1-0.3,0.1c-0.1,0-0.1,0-0.3,0.1c-0.1,0-0.3,0-0.5,0c-0.1-0.1-0.3-0.1-0.4-0.3
						c0,0,0,0-0.1-0.1c0,0,0,0-0.1-0.1c-0.1,0-0.1-0.1-0.1-0.1l-0.3-0.3c0-0.1-0.1-0.1-0.1-0.1c-0.1-0.1-0.1-0.1-0.3-0.1
						c-0.1-0.1-0.4-0.1-0.7-0.1s-0.5,0-0.8,0c-0.1,0-0.1,0-0.1,0h-0.1h-0.1h-0.1h-0.1h-0.1l-0.3,0.1c-1.1,0.3-1.9,0.8-2.3,1.2
						c-0.5,0.5-1,1-1.2,1.4c0,0.1-0.1,0.1-0.1,0.1l-0.1,0.1l-0.1,0.1c0,0.1-0.1,0.1-0.1,0.1c-0.1,0.1-0.1,0.1-0.3,0.1
						c-0.1,0-0.1-0.1-0.1-0.3c0-0.1,0-0.1,0-0.3c0-0.1,0-0.1,0.1-0.1c0-0.1,0-0.1,0.1-0.1c0.1-0.4,0.4-1.1,1.1-1.8
						c0.3-0.3,0.7-0.7,1.1-1c0.5-0.3,1-0.5,1.5-0.7c0.1,0,0.1,0,0.1,0c0.1,0,0.1,0,0.1,0l0.5-0.1c0.1,0,0.1,0,0.1,0
						c0.1,0,0.1,0,0.1,0c0.3-0.1,0.7-0.1,1.1-0.1c0.3,0,0.7,0.1,1.1,0.3c0.3,0.1,0.4,0.3,0.5,0.4c0,0,0.1,0,0.1,0.1
						c0.1,0.1,0.1,0.1,0.3,0.1l0.1,0.1c0,0,0,0.1,0.1,0.1l0,0c0,0,0,0,0.1,0s0.3-0.1,0.4-0.1c0.1-0.1,0.3-0.1,0.3-0.1l0.3-0.1
						c0.7-0.3,1.4-0.3,2-0.1s1.2,0.4,1.6,0.8c0.4,0.4,0.8,0.7,1,1.2c0.5,0.8,0.5,1.6,0.5,2C-246.5,245.2-246.7,245.5-246.8,245.5z
						 M-250.3,241.8c0.1,0,0.3,0,0.4,0c0.4,0.1,0.8,0.3,1.2,0.5c0.3,0.3,0.7,0.5,0.8,0.8c0.4,0.5,0.7,1.1,0.8,1.6l0.1,0.1
						c0.1,0.3,0.1,0.5,0.3,0.5c0,0,0.1-0.3,0.1-0.7s-0.1-1.1-0.5-2c-0.3-0.4-0.5-0.8-1-1.1c-0.4-0.4-1-0.7-1.6-0.8
						c-0.7-0.1-1.4-0.1-2,0.1c-0.1,0.1-0.3,0.1-0.3,0.1c-0.1,0-0.3,0.1-0.3,0.1c-0.1,0.1-0.3,0.1-0.4,0.1l0,0l0,0l0,0h-0.1l0,0
						c0,0,0,0-0.1-0.1l-0.1-0.1c-0.1-0.1-0.1-0.1-0.3-0.1c0,0-0.1,0-0.1-0.1c-0.3-0.1-0.4-0.3-0.5-0.4c-0.4-0.1-0.7-0.3-1.1-0.3
						c-0.4,0-0.7,0-1,0.1c-0.1,0-0.1,0-0.1,0h-0.1l-0.5,0.1c-0.1,0-0.1,0-0.1,0h-0.1c-0.5,0.1-1.1,0.4-1.5,0.7s-0.8,0.7-1.1,1
						c-0.7,0.7-1,1.4-1.1,1.8c0,0.1,0,0.1-0.1,0.1c0,0.1,0,0.1-0.1,0.1c0,0.1,0,0.1,0,0.3s0,0.1,0.1,0.1c0,0,0.1,0,0.1-0.1l0.1-0.1
						c0,0,0-0.1,0.1-0.1c0-0.1,0.1-0.1,0.1-0.1c0-0.1,0.1-0.1,0.1-0.1c0.3-0.4,0.7-1,1.2-1.4c0.5-0.4,1.2-1,2.3-1.2l0.3-0.1h0.1h0.1
						h0.1h0.1c0.1,0,0.1,0,0.1,0h0.1c0.3,0,0.5,0,0.8,0c0.3,0.1,0.5,0.1,0.7,0.1c0.1,0.1,0.3,0.1,0.3,0.1c0.1,0,0.1,0.1,0.1,0.1
						l0.3,0.3l0.1,0.1l0,0c0,0,0,0,0.1,0.1c0,0,0.1,0,0.1,0.1c0.1,0.1,0.3,0.1,0.4,0.1c0.1,0.1,0.3,0.1,0.4,0c0.1,0,0.1,0,0.3-0.1
						c0.1,0,0.1,0,0.1-0.1c0.3-0.1,0.4-0.1,0.5-0.3h0.1c0.1,0,0.1-0.1,0.1-0.1l0.1-0.1l0,0C-251,242-250.8,241.8-250.3,241.8z"/>
				</g>
			</g>
		</g>
	</g>
	<g id="XMLID_212_">
		<g id="XMLID_211_">
			<g id="XMLID_216_">
				<g id="XMLID_217_">
					<path d="M-244.6,249.6c0.1,0,0.1-0.3,0-0.7c-0.1-0.4-0.4-1-1.1-1.5c-0.3-0.3-0.7-0.5-1.1-0.7c-0.4-0.3-1-0.4-1.5-0.4
						c-0.5-0.1-1.1-0.1-1.6-0.1c-0.3,0-0.5,0.1-0.8,0.1c-0.1,0-0.3,0.1-0.4,0.1c-0.1,0.1-0.3,0.1-0.4,0.1c-0.5,0.1-1.1,0.4-1.6,0.7
						c-0.5,0.3-1,0.5-1.4,1c-0.4,0.4-0.8,0.7-1.1,1.1c-0.3,0.4-0.5,0.7-0.7,1.1c-0.1,0.1-0.1,0.1-0.1,0.3c0,0.1-0.1,0.1-0.1,0.3
						s-0.1,0.1-0.1,0.3c0,0.1-0.1,0.1-0.1,0.3c-0.1,0.3-0.1,0.5-0.1,0.8c0,0.3,0.1,0.4,0.1,0.5c0.1,0.1,0.1,0.1,0.3,0.1
						c0,0,0-0.1,0.1-0.3c0-0.1,0-0.3,0.1-0.4c0.1-0.1,0.3-0.4,0.3-0.7c0-0.1,0.1-0.1,0.1-0.3c0.1-0.1,0.1-0.1,0.1-0.3
						c0-0.1,0.1-0.1,0.1-0.3c0.1-0.1,0.1-0.1,0.1-0.3c0.3-0.3,0.4-0.5,0.7-0.8c0.3-0.3,0.7-0.5,1-0.8c0.4-0.3,0.8-0.5,1.2-0.7
						c0.4-0.3,1-0.4,1.4-0.5c0.1,0,0.3-0.1,0.4-0.1s0.3-0.1,0.4-0.1c0.3-0.1,0.5-0.1,0.8-0.1c0.5-0.1,1-0.1,1.4,0
						c0.4,0.1,0.8,0.1,1.2,0.3s0.7,0.3,1,0.5c0.5,0.4,1,0.8,1.1,1.1C-244.8,249.5-244.6,249.6-244.6,249.6z"/>
					<path d="M-256.2,252.5c-0.1,0-0.1-0.1-0.3-0.1c-0.1-0.1-0.1-0.3-0.1-0.5c0-0.3,0-0.5,0.1-0.8c0-0.1,0-0.1,0.1-0.3
						c0-0.1,0-0.1,0.1-0.1c0-0.1,0-0.1,0.1-0.1c0.1-0.1,0.1-0.1,0.1-0.3c0-0.1,0.1-0.1,0.1-0.1l0.1-0.1c0.3-0.4,0.4-0.7,0.7-1.1
						c0.3-0.4,0.7-0.8,1.1-1.1c0.5-0.4,1-0.7,1.4-1c0.5-0.3,1.1-0.5,1.6-0.7c0.1,0,0.1,0,0.1-0.1c0.1,0,0.1-0.1,0.3-0.1l0.4-0.1
						c0.3-0.1,0.5-0.1,0.8-0.1c0.5-0.1,1.1,0,1.6,0.1c0.5,0.1,1,0.3,1.5,0.5c0.4,0.3,0.8,0.4,1.1,0.8c0.7,0.7,1,1.4,1.1,1.5
						c0.1,0.4,0.1,0.5,0,0.7c0,0.1-0.1,0.1-0.1,0.1c-0.1,0.1-0.3-0.1-0.4-0.4l-0.1-0.1c-0.3-0.3-0.5-0.7-1.1-1.1
						c-0.3-0.3-0.7-0.4-1-0.5c-0.4-0.1-0.8-0.3-1.2-0.3c-0.4,0-1-0.1-1.4,0c-0.3,0-0.4,0.1-0.7,0.1h-0.1c-0.1,0-0.1,0-0.3,0.1
						c-0.1,0-0.1,0-0.1,0.1c-0.1,0.1-0.3,0.1-0.4,0.1c-0.4,0.1-1,0.4-1.4,0.5c-0.4,0.3-0.8,0.4-1.2,0.7c-0.3,0.3-0.7,0.5-1,0.8
						c-0.4,0.4-0.5,0.7-0.7,0.8s-0.1,0.1-0.1,0.3l-0.1,0.1l-0.1,0.1l-0.1,0.1c0,0,0,0.1-0.1,0.1c-0.1,0.1-0.1,0.1-0.1,0.1v0.1
						c-0.1,0.3-0.3,0.4-0.3,0.5s-0.1,0.3-0.1,0.4l0,0v0.1C-256.2,252.5-256.2,252.5-256.2,252.5L-256.2,252.5L-256.2,252.5z
						 M-249.3,246.1c-0.3,0-0.4,0-0.5,0c-0.3,0-0.7,0.1-0.8,0.1l-0.4,0.1c-0.1,0-0.1,0.1-0.3,0.1c-0.1,0-0.1,0-0.1,0.1
						c-0.5,0.1-1.1,0.4-1.6,0.7c-0.4,0.3-0.8,0.5-1.4,1c-0.4,0.3-0.7,0.7-1,1.1c-0.3,0.4-0.5,0.7-0.7,1.1c0,0.1-0.1,0.1-0.1,0.1
						c0,0.1-0.1,0.1-0.1,0.1c0,0.1-0.1,0.1-0.1,0.3c0,0.1,0,0.1-0.1,0.1c0,0.1,0,0.1-0.1,0.1c0,0.1-0.1,0.1-0.1,0.3
						c-0.1,0.4-0.1,0.5-0.1,0.8c0,0.3,0.1,0.4,0.1,0.5c0.1,0.1,0.1,0.1,0.1,0.1v-0.1v-0.5l0,0c0-0.1,0-0.3,0.1-0.4
						c0.1-0.1,0.1-0.4,0.3-0.5v-0.1c0-0.1,0.1-0.1,0.1-0.3c0,0,0-0.1,0.1-0.1c0-0.1,0.1-0.1,0.1-0.1l0.1-0.1l0.1-0.1
						c0.1-0.1,0.1-0.1,0.1-0.3c0.1-0.3,0.4-0.5,0.7-0.8c0.4-0.4,0.7-0.7,1-0.8c0.4-0.3,0.8-0.5,1.2-0.7c0.5-0.3,1-0.4,1.4-0.5
						c0.1,0,0.3-0.1,0.4-0.1c0.1,0,0.1,0,0.3-0.1c0.1,0,0.1,0,0.3-0.1h0.1c0.3-0.1,0.4-0.1,0.7-0.1c0.5-0.1,1-0.1,1.4,0
						c0.4,0.1,0.8,0.1,1.2,0.3c0.4,0.1,0.7,0.3,1,0.5c0.5,0.4,1,0.8,1.2,1.1l0.1,0.1c0.1,0.3,0.3,0.4,0.3,0.4l0,0l0,0
						c0-0.1,0.1-0.3,0-0.7c-0.1-0.3-0.3-1-1-1.5c-0.3-0.3-0.7-0.5-1.1-0.7c-0.5-0.3-1-0.4-1.5-0.4
						C-248.4,246.2-248.9,246.1-249.3,246.1z"/>
				</g>
			</g>
		</g>
	</g>
	<g id="XMLID_220_">
		<g id="XMLID_203_">
			<g id="XMLID_208_">
				<g id="XMLID_209_">
					<path d="M-238,250.5c0.1-0.1,0.1-0.3-0.1-0.5c-0.3-0.3-0.5-0.7-1.2-1c-0.3-0.1-0.7-0.3-1.1-0.3c-0.3,0-0.4,0-0.7,0
						c-0.1,0-0.3,0-0.3,0c-0.1,0-0.3,0-0.3,0c-0.8,0.1-1.8,0.4-2.6,0.8c-0.4,0.3-0.8,0.5-1.2,0.8c-0.4,0.3-0.7,0.7-1,1
						c-0.5,0.7-0.8,1.4-1,1.9c-0.3,0.7-0.3,1.1-0.3,1.5c0,0.4,0.1,0.5,0.3,0.5s0.3-0.1,0.3-0.4c0.1-0.3,0.3-0.7,0.5-1.2
						c0.3-0.5,0.7-1.1,1.1-1.5c0.3-0.3,0.5-0.5,0.8-0.8c0.3-0.3,0.7-0.4,1-0.7c0.4-0.3,0.7-0.4,1.1-0.5s0.7-0.3,1.1-0.3
						c0.1,0,0.3,0,0.3-0.1c0.1,0,0.3,0,0.3,0c0.3,0,0.4,0,0.5,0c0.3,0,0.5,0,0.8,0.1c0.5,0.1,0.8,0.4,1.1,0.5
						C-238.1,250.4-238,250.5-238,250.5z"/>
					<path d="M-247.1,255.2c-0.1,0-0.3-0.3-0.3-0.5c0-0.3,0-0.8,0.3-1.5c0.1-0.7,0.5-1.4,1-1.9c0.3-0.4,0.5-0.7,1-1
						c0.4-0.4,0.8-0.7,1.2-0.8c0.8-0.5,1.8-0.8,2.6-0.8c0.1,0,0.3,0,0.3,0h0.3c0.3,0,0.4,0,0.7,0c0.4,0.1,0.8,0.1,1.1,0.3
						c0.7,0.4,1.1,0.8,1.2,1c0.1,0.1,0.1,0.3,0.3,0.4c0,0.1,0,0.3-0.1,0.3c-0.1,0.1-0.3,0-0.5-0.3l-0.1-0.1
						c-0.4-0.3-0.8-0.4-1.1-0.5s-0.4-0.1-0.8-0.1c-0.1,0-0.3,0-0.4,0h-0.1c-0.1,0-0.1,0-0.1,0h-0.1c0,0-0.1,0-0.3,0.1h-0.1
						c-0.4,0.1-0.7,0.1-1,0.3c-0.4,0.1-0.8,0.3-1.1,0.5c-0.4,0.3-0.7,0.4-1,0.7c-0.3,0.3-0.5,0.4-0.8,0.8c-0.4,0.5-0.8,1-1.1,1.5
						c-0.3,0.4-0.4,0.7-0.4,1c-0.1,0.1-0.1,0.3-0.1,0.3C-246.9,255-247.1,255.2-247.1,255.2z M-241.2,248.8c-0.1,0-0.3,0-0.3,0
						c-1,0.1-1.8,0.4-2.6,0.8c-0.4,0.3-0.8,0.5-1.2,0.8c-0.4,0.3-0.7,0.7-1,1c-0.5,0.7-0.8,1.4-1,1.9c-0.3,0.7-0.3,1.1-0.3,1.4
						c0,0.4,0.1,0.5,0.1,0.5s0.1-0.1,0.3-0.4c0-0.1,0.1-0.1,0.1-0.3c0.1-0.3,0.3-0.5,0.4-1c0.3-0.5,0.7-1.1,1.1-1.5
						c0.3-0.4,0.5-0.5,0.8-0.8c0.3-0.3,0.7-0.5,1-0.7c0.4-0.3,0.7-0.4,1.1-0.5c0.4-0.1,0.7-0.3,1.1-0.3h0.1c0.1,0,0.3,0,0.3-0.1
						c0.1,0,0.1,0,0.1,0h0.1h0.1c0.1,0,0.3,0,0.4,0c0.4,0,0.7,0,0.8,0.1c0.4,0.1,0.8,0.3,1.1,0.5l0.1,0.1c0.3,0.1,0.4,0.3,0.4,0.3
						v-0.1c0-0.1-0.1-0.3-0.1-0.4c-0.1-0.3-0.5-0.7-1.2-1c-0.3-0.1-0.7-0.3-1.1-0.3c-0.3,0-0.4,0-0.5,0L-241.2,248.8L-241.2,248.8z"
						/>
				</g>
			</g>
		</g>
	</g>
	<g id="XMLID_228_">
		<g id="XMLID_192_">
			<g id="XMLID_199_">
				<g id="XMLID_200_">
					<path d="M-239.7,239.7c0.1-0.1,0-0.3-0.1-0.4c-0.1-0.1-0.4-0.4-0.8-0.7c-0.4-0.3-0.8-0.4-1.5-0.5c-0.1,0-0.1,0-0.3,0
						s-0.1,0-0.3,0c-0.1,0-0.3,0-0.3,0h-0.1c-0.1,0-0.1,0-0.1,0c-0.3,0.1-0.4,0.1-0.7,0.3c-0.1,0.1-0.3,0.1-0.3,0.3
						c0,0.1-0.3,0.3-0.3,0.4l0.8-0.4c-0.4-0.1-0.7-0.3-1.1-0.3c-0.8-0.1-1.6-0.1-2.3,0.1c-0.4,0.1-0.7,0.3-1,0.4s-0.5,0.4-0.8,0.5
						c-0.3,0.3-0.4,0.4-0.4,0.7c-0.1,0.3-0.1,0.4-0.1,0.5c0,0.4,0.1,0.5,0.3,0.5c0.1,0,0.1-0.1,0.3-0.4c0.1-0.3,0.4-0.4,0.7-0.7
						c0.3-0.1,0.4-0.3,0.7-0.3c0.3-0.1,0.5-0.1,0.8-0.3c0.5-0.1,1.2-0.1,1.8,0c0.3,0.1,0.5,0.1,0.8,0.3l0.7-0.5c0,0,0,0,0.1,0
						c0,0,0,0,0.1,0l0,0l0,0c0,0,0.1-0.1,0.3-0.1h0.1h0.1c0.1,0,0.1,0,0.3,0s0.1,0,0.3,0c0.1,0,0.1,0,0.3,0c0.4,0,0.8,0.1,1.2,0.1
						C-240.3,239.5-239.9,239.8-239.7,239.7z"/>
					<path d="M-248.9,241.2C-248.9,241.2-249,241.2-248.9,241.2c-0.1-0.1-0.3-0.3-0.3-0.5s0.1-0.4,0.1-0.5c0.1-0.3,0.3-0.4,0.5-0.7
						s0.5-0.4,0.8-0.5c0.3-0.1,0.5-0.3,1-0.4c0.8-0.3,1.5-0.3,2.3-0.1c0.3,0,0.4,0.1,0.5,0.1c0.1-0.1,0.1-0.1,0.1-0.1
						c0.3-0.1,0.5-0.3,0.7-0.3s0.1,0,0.1,0h0.1c0.1,0,0.3,0,0.3,0h0.3c0.1,0,0.1,0,0.3,0c0.5,0.1,1.1,0.3,1.5,0.5
						c0.4,0.3,0.7,0.5,0.8,0.7c0.1,0.3,0.1,0.4,0.1,0.4c-0.1,0.1-0.3,0-0.7-0.1c-0.1-0.1-0.4-0.1-0.7-0.3c-0.3-0.1-0.7-0.1-1.2-0.1
						h-0.1h-0.1c-0.1,0-0.1,0-0.1,0c-0.1,0-0.1,0-0.1,0l0,0h-0.1l0,0c0,0,0,0-0.1,0c-0.1,0-0.1,0.1-0.3,0.1l0,0l0,0h-0.1
						c0,0-0.1,0-0.1-0.1l0,0l-0.7,0.5h-0.1c-0.3-0.1-0.5-0.1-0.7-0.1c-0.7-0.1-1.2-0.1-1.8,0c-0.3,0.1-0.5,0.1-0.8,0.3
						c-0.3,0.1-0.4,0.1-0.7,0.3c-0.4,0.3-0.5,0.4-0.7,0.7c0,0.1-0.1,0.1-0.1,0.1C-248.7,241-248.7,241.2-248.9,241.2L-248.9,241.2z
						 M-245.3,238.3c-0.5,0-1,0.1-1.5,0.3c-0.4,0.1-0.7,0.3-1,0.4c-0.3,0.1-0.5,0.3-0.8,0.5c-0.3,0.3-0.4,0.4-0.4,0.7
						c-0.1,0.1-0.1,0.4-0.1,0.5c0,0.3,0.1,0.4,0.1,0.4s0,0,0.1,0s0.1-0.1,0.3-0.3c0-0.1,0.1-0.1,0.1-0.1c0.1-0.3,0.4-0.4,0.7-0.7
						c0.3-0.1,0.4-0.3,0.7-0.3c0.3-0.1,0.5-0.1,0.8-0.3c0.7-0.1,1.2-0.1,1.8,0c0.3,0.1,0.5,0.1,0.8,0.1h0.1l0.7-0.5l0,0h0.3
						l-0.1,0.1l0,0l0,0c0.1-0.1,0.1-0.1,0.3-0.1l0,0c0,0,0,0,0.1,0h0.1c0.1,0,0.1,0,0.1,0c0.1,0,0.1,0,0.3,0h0.1h0.1
						c0.5,0,1,0.1,1.2,0.1c0.3,0.1,0.5,0.1,0.7,0.3c0.3,0.1,0.4,0.1,0.5,0.1l0,0c0,0,0-0.1-0.1-0.4s-0.4-0.5-0.8-0.7
						c-0.4-0.3-1-0.4-1.5-0.5c-0.1,0-0.1,0-0.3,0h-0.3c-0.1,0-0.1,0-0.3,0h-0.1c-0.1,0-0.1,0-0.1,0c-0.1,0.1-0.4,0.1-0.7,0.3
						c-0.1,0-0.1,0.1-0.1,0.1c0.1,0.1,0.3,0.1,0.4,0.1h0.1l-1,0.5V239c0-0.1,0.1-0.3,0.3-0.5c0-0.1,0.1-0.1,0.1-0.1
						c-0.1-0.1-0.4-0.1-0.5-0.1C-244.8,238.3-245,238.3-245.3,238.3z M-244,238.6c-0.1,0.1-0.1,0.1-0.1,0.1
						c-0.1,0.1-0.1,0.3-0.3,0.4l0.7-0.4C-243.5,238.6-243.8,238.6-244,238.6z"/>
				</g>
			</g>
		</g>
	</g>
	<g id="XMLID_236_">
		<g id="XMLID_184_">
			<g id="XMLID_189_">
				<g id="XMLID_190_">
					<path d="M-235.2,245.1c0.1,0,0.3-0.3,0.3-0.7s0-1-0.3-1.6c-0.1-0.4-0.4-0.7-0.7-1c-0.3-0.4-0.7-0.7-1.1-1c-0.8-0.5-1.9-1-3-0.8
						c-0.5,0.1-1.1,0.3-1.6,0.4s-1,0.4-1.4,0.7s-0.8,0.7-1.1,1s-0.4,0.7-0.5,1.1c-0.3,0.7-0.3,1.2-0.3,1.6s0.1,0.7,0.3,0.7
						c0.1,0,0.3-0.3,0.3-0.5c0.1-0.4,0.3-0.8,0.7-1.4c0.1-0.3,0.4-0.5,0.5-0.8c0.3-0.3,0.5-0.4,0.8-0.7c0.4-0.3,0.7-0.4,1.1-0.5
						c0.4-0.1,0.8-0.3,1.4-0.3c0.8-0.1,1.6,0.1,2.3,0.5c0.7,0.4,1.1,0.8,1.5,1.4c0.4,0.5,0.5,1,0.7,1.2
						C-235.4,244.8-235.4,245.1-235.2,245.1z"/>
					<path d="M-244.6,245.4c-0.1,0-0.3-0.3-0.3-0.7s0-1,0.3-1.6c0.1-0.4,0.4-0.8,0.5-1.1c0.3-0.4,0.7-0.7,1.1-1s1-0.5,1.4-0.7
						c0.5-0.3,1.1-0.3,1.6-0.4c1.1-0.1,2.2,0.3,3.1,0.8c0.4,0.3,0.8,0.7,1.1,1s0.5,0.7,0.7,1c0.4,0.8,0.4,1.4,0.3,1.6
						c0,0.4-0.1,0.7-0.3,0.7s-0.1-0.1-0.3-0.5c-0.1-0.3-0.3-0.8-0.7-1.2c-0.3-0.4-0.7-1-1.5-1.4c-0.7-0.4-1.5-0.5-2.3-0.5
						c-0.4,0.1-0.8,0.1-1.2,0.3c-0.4,0.1-0.8,0.3-1.1,0.5c-0.3,0.1-0.5,0.4-0.8,0.7c-0.3,0.3-0.4,0.5-0.5,0.8
						c-0.3,0.5-0.4,0.8-0.5,1.2l-0.1,0.1C-244.4,245.2-244.5,245.4-244.6,245.4z M-239.6,240.2c-0.1,0-0.3,0-0.4,0
						c-0.5,0.1-1.1,0.1-1.6,0.4c-0.5,0.1-1,0.4-1.4,0.7s-0.8,0.5-1.1,1c-0.3,0.3-0.4,0.7-0.5,1.1c-0.3,0.7-0.3,1.2-0.3,1.6
						s0.1,0.5,0.1,0.5s0.1-0.1,0.3-0.5l0.1-0.1c0.1-0.4,0.3-0.8,0.5-1.2c0.1-0.3,0.4-0.5,0.5-0.8c0.3-0.3,0.5-0.5,0.8-0.7
						c0.4-0.1,0.7-0.4,1.2-0.5c0.5-0.1,1-0.3,1.4-0.3c0.8-0.1,1.6,0.1,2.3,0.5c0.8,0.4,1.2,1,1.5,1.4c0.4,0.5,0.5,1,0.7,1.2
						c0.1,0.5,0.3,0.5,0.3,0.5c0.1,0,0.1-0.1,0.1-0.5c0-0.3,0-0.8-0.3-1.6c-0.1-0.4-0.4-0.7-0.7-1c-0.3-0.4-0.7-0.7-1.1-1
						C-237.7,240.5-238.6,240.2-239.6,240.2z"/>
				</g>
			</g>
		</g>
	</g>
	<g id="XMLID_249_">
		<g id="XMLID_176_">
			<g id="XMLID_181_">
				<g id="XMLID_182_">
					<path d="M-230.3,249.7c0.1-0.1,0.1-0.3-0.1-0.4c-0.1-0.3-0.4-0.5-0.7-0.8c-0.3-0.1-0.4-0.3-0.7-0.4c-0.3-0.1-0.5-0.3-0.8-0.4
						c-0.3-0.1-0.7-0.1-1-0.3c-0.4,0-0.8,0-1.1,0c-0.8,0.1-1.4,0.4-1.9,0.7c-0.5,0.3-1,0.7-1.4,1c-0.1,0.1-0.1,0.1-0.3,0.3l-0.1,0.1
						c0,0.1-0.1,0.1-0.1,0.1c-0.1,0.1-0.3,0.4-0.3,0.5c0,0.1,0,0.3,0.1,0.4c0.1,0.1,0.1,0.1,0.1,0.1c0.1,0,0.1-0.1,0.1-0.1
						c0-0.1,0.1-0.1,0.1-0.1c0.1-0.1,0.1-0.1,0.3-0.3c0.1-0.1,0.3-0.1,0.5-0.3c0.8-0.4,1.8-1,2.9-1.1c0.5-0.1,1.1-0.1,1.6,0.1
						c0.3,0.1,0.5,0.1,0.7,0.3c0.3,0.1,0.4,0.1,0.7,0.3c0.4,0.1,0.7,0.4,0.8,0.4C-230.6,249.7-230.5,249.7-230.3,249.7z"/>
					<path d="M-238.4,250.5L-238.4,250.5c0,0-0.1,0-0.3-0.1c-0.1-0.1-0.1-0.3-0.1-0.4c0-0.1,0.1-0.4,0.3-0.5l0.1-0.1l0.1-0.1
						l0.1-0.1c0,0,0-0.1,0.1-0.1c0.1-0.1,0.1-0.1,0.1-0.1c0.1-0.1,0.1-0.1,0.1-0.1c0.4-0.3,0.8-0.7,1.4-1c0.7-0.4,1.2-0.5,1.9-0.7
						c0.4-0.1,0.7-0.1,1.1,0s0.7,0.1,1,0.3c0.4,0.1,0.7,0.3,0.8,0.4c0.3,0.1,0.4,0.3,0.7,0.4h0.1c0.4,0.3,0.7,0.7,0.8,0.8
						c0.1,0.3,0.1,0.4,0.1,0.5l0,0c-0.1,0.1-0.3,0-0.5-0.1c-0.1,0-0.1-0.1-0.3-0.1c-0.3-0.1-0.4-0.3-0.7-0.4
						c-0.1-0.1-0.4-0.1-0.5-0.3h-0.1c-0.1,0-0.1-0.1-0.3-0.1c-0.1-0.1-0.4-0.1-0.5-0.1c-0.5-0.1-1.1-0.1-1.6-0.1
						c-1.2,0.3-2.2,0.8-2.9,1.1c-0.1,0.1-0.3,0.1-0.4,0.3c-0.1,0-0.1,0.1-0.1,0.1c-0.1,0.1-0.3,0.1-0.3,0.3l0,0
						c-0.1,0-0.1,0.1-0.1,0.1l0,0C-238.4,250.4-238.4,250.5-238.4,250.5L-238.4,250.5z M-234,247.4c-0.3,0-0.4,0-0.7,0.1
						c-0.7,0.1-1.4,0.4-1.9,0.7c-0.5,0.3-1,0.7-1.4,1c-0.1,0.1-0.1,0.1-0.1,0.1c-0.1,0.1-0.1,0.1-0.1,0.1s0,0-0.1,0.1
						c0,0,0,0.1-0.1,0.1l-0.1,0.1l-0.1,0.1c-0.1,0.1-0.3,0.4-0.3,0.5s0,0.3,0.1,0.4s0.1,0.1,0.1,0.1s0.1,0,0.1-0.1l0,0
						c0-0.1,0.1-0.1,0.1-0.1c0.1-0.1,0.1-0.1,0.3-0.3c0.1,0,0.1-0.1,0.1-0.1c0.1-0.1,0.3-0.1,0.4-0.3c0.7-0.4,1.8-1,2.9-1.1
						c0.5-0.1,1.1-0.1,1.6,0.1c0.3,0.1,0.4,0.1,0.5,0.1c0.1,0,0.1,0.1,0.3,0.1h0.1c0.3,0.1,0.4,0.1,0.5,0.3c0.3,0.1,0.5,0.3,0.7,0.4
						c0.1,0.1,0.1,0.1,0.3,0.1c0.3,0.1,0.4,0.1,0.4,0.1s0.1-0.1-0.1-0.4c-0.1-0.3-0.4-0.5-0.7-0.8h-0.1c-0.3-0.1-0.4-0.3-0.7-0.4
						c-0.3-0.1-0.5-0.3-0.8-0.4c-0.3-0.1-0.7-0.1-1-0.3C-233.7,247.4-233.9,247.4-234,247.4z"/>
				</g>
			</g>
		</g>
	</g>
	<g id="XMLID_251_">
		<g id="XMLID_168_">
			<g id="XMLID_173_">
				<g id="XMLID_174_">
					<path d="M-226.5,252.7c0,0,0.1-0.1,0-0.1c0-0.1,0-0.1-0.1-0.1c0-0.1-0.1-0.1-0.1-0.3c-0.1-0.3-0.4-0.7-1-1
						c-0.5-0.4-1.1-0.7-1.9-0.8c-0.4-0.1-0.8-0.1-1.2-0.1c-0.4,0.1-0.8,0.1-1.4,0.3c-0.4,0.1-0.8,0.4-1.2,0.5
						c-0.4,0.1-0.7,0.4-1,0.7c-0.5,0.5-1,1.1-1.2,1.6c-0.3,0.5-0.3,1.1-0.1,1.4c0.1,0.4,0.3,0.5,0.3,0.4c0.3,0,0.3-0.7,0.7-1.5
						c0.3-0.4,0.7-0.8,1.1-1.2c0.3-0.3,0.5-0.4,0.8-0.5c0.3-0.1,0.7-0.3,1-0.4c0.7-0.3,1.4-0.4,1.9-0.3c0.7,0.1,1.2,0.3,1.6,0.4
						C-227.1,252.3-226.7,252.7-226.5,252.7z"/>
					<path d="M-235.1,255.3c-0.1,0-0.3-0.3-0.3-0.5c-0.1-0.3-0.1-0.7,0.1-1.4c0.3-0.7,0.7-1.2,1.2-1.8c0.3-0.3,0.5-0.4,1-0.7
						c0.4-0.3,0.8-0.4,1.2-0.5c0.4-0.1,1-0.3,1.4-0.3c0.4-0.1,0.8,0,1.2,0.1c1,0.1,1.5,0.5,1.9,0.8c0.5,0.4,0.8,0.8,1,1
						c0,0.1,0.1,0.1,0.1,0.3c0,0,0,0.1,0.1,0.1c0,0,0,0,0,0.1c0,0.1,0,0.1-0.1,0.3l0,0c-0.1,0.1-0.3,0-0.7-0.3
						c-0.3-0.1-0.5-0.4-1-0.5c-0.4-0.1-1-0.4-1.6-0.4c-0.7-0.1-1.2,0.1-1.9,0.3c-0.4,0.1-0.7,0.3-1,0.4s-0.5,0.3-0.8,0.5l-0.1,0.1
						c-0.5,0.4-0.8,0.8-1.1,1.2c-0.3,0.4-0.4,0.8-0.5,1.1C-234.8,255.2-234.8,255.3-235.1,255.3L-235.1,255.3z M-230.2,250.4
						c-0.1,0-0.3,0-0.4,0c-0.4,0.1-0.8,0.1-1.2,0.3c-0.4,0.1-0.8,0.3-1.2,0.5c-0.4,0.3-0.7,0.5-1,0.7c-0.5,0.5-1,1.1-1.2,1.6
						c-0.3,0.7-0.1,1.1-0.1,1.4c0.1,0.4,0.3,0.4,0.3,0.4c0.1,0,0.1-0.1,0.3-0.4c0.1-0.3,0.3-0.7,0.5-1.1c0.3-0.4,0.7-0.8,1.1-1.2
						l0.1-0.1c0.3-0.1,0.5-0.4,0.8-0.5c0.3-0.1,0.7-0.3,1-0.4c0.7-0.3,1.4-0.4,1.9-0.3c0.7,0.1,1.2,0.3,1.6,0.4
						c0.4,0.3,0.7,0.4,1,0.5c0.3,0.1,0.5,0.3,0.5,0.3v-0.1c0,0,0,0,0-0.1v0.1c0-0.1-0.1-0.1-0.1-0.3c-0.1-0.3-0.4-0.7-1-1
						c-0.4-0.3-1-0.7-1.9-0.8C-229.7,250.4-229.9,250.4-230.2,250.4z"/>
				</g>
			</g>
		</g>
	</g>
	<g id="XMLID_259_">
		<g id="XMLID_161_">
			<g id="XMLID_165_">
				<g id="XMLID_166_">
					<path d="M-215.9,256.4c0.1-0.1,0.1-0.3-0.1-0.5c-0.1-0.3-0.4-0.7-0.8-1c-0.4-0.4-1-0.7-1.5-1.1c-0.7-0.3-1.4-0.5-2.2-0.5
						c-0.8,0-1.6,0.1-2.3,0.4c-0.7,0.3-1.2,0.5-1.6,1c-0.4,0.4-0.7,0.7-0.8,1c-0.1,0.3-0.1,0.5,0,0.5c0.1,0,0.3-0.1,0.4-0.3
						c0.3-0.1,0.5-0.4,0.8-0.5c0.4-0.3,1-0.4,1.5-0.5c0.5-0.1,1.2-0.3,1.9-0.3s1.4,0.1,1.8,0.4c0.5,0.3,1.1,0.4,1.4,0.7
						C-216.5,256.1-216.1,256.5-215.9,256.4z"/>
					<path d="M-215.9,256.5c-0.1,0-0.3-0.1-0.5-0.3s-0.5-0.3-0.8-0.5c-0.3-0.3-0.8-0.5-1.4-0.7c-0.5-0.3-1.2-0.4-1.8-0.4
						s-1.2,0.1-1.8,0.3c-0.5,0.1-1,0.3-1.5,0.5c-0.3,0.1-0.5,0.3-0.7,0.4c-0.1,0.1-0.1,0.1-0.1,0.1l-0.1,0.1
						c-0.1,0.1-0.3,0.3-0.4,0.3c-0.1-0.1-0.1-0.3-0.1-0.5c0-0.3,0.4-0.7,0.8-1.1c0.5-0.4,1.1-0.7,1.6-1c0.7-0.3,1.5-0.4,2.3-0.4
						c0.8,0,1.5,0.3,2.2,0.5c0.7,0.3,1.2,0.7,1.5,1.1c0.4,0.3,0.5,0.7,0.8,1C-215.8,256.3-215.8,256.4-215.9,256.5L-215.9,256.5
						L-215.9,256.5z M-220.8,254.6c0.1,0,0.3,0,0.3,0c0.7,0,1.2,0.1,1.8,0.4c0.7,0.3,1.1,0.5,1.4,0.7c0.4,0.1,0.7,0.4,0.8,0.5
						c0.3,0.1,0.5,0.3,0.5,0.3s0.1-0.1-0.1-0.4c-0.1-0.4-0.4-0.7-0.8-1c-0.4-0.4-1-0.7-1.5-1.1c-0.7-0.4-1.5-0.5-2.2-0.5
						c-0.8,0-1.5,0.1-2.2,0.4c-0.7,0.3-1.1,0.5-1.6,1c-0.4,0.4-0.7,0.7-0.8,1c-0.1,0.3-0.1,0.4,0,0.4c0.1,0,0.1-0.1,0.3-0.1l0.1-0.1
						c0.1,0,0.1-0.1,0.1-0.1c0.3-0.1,0.4-0.3,0.7-0.4c0.5-0.3,1-0.4,1.5-0.5C-221.8,254.8-221.2,254.6-220.8,254.6z"/>
				</g>
			</g>
		</g>
	</g>
	<g id="XMLID_267_">
		<g id="XMLID_153_">
			<g id="XMLID_158_">
				<g id="XMLID_159_">
					<path class="st0" d="M-220.3,250.3c0-0.1,0.4-0.3,1.1-0.3c0.4,0,0.8,0.1,1.2,0.3c0.4,0.1,0.8,0.4,1.2,0.7
						c0.4,0.3,0.8,0.5,1.1,0.8c0.4,0.3,0.7,0.5,0.8,0.8c0.5,0.5,0.8,1,0.8,1c0.1,0.3-0.1,0.5-0.5,0.8c-0.4,0.3-0.8,0.4-1,0.1
						c0,0-0.3-0.4-0.5-1c-0.4-0.5-0.8-1.1-1.4-1.6c-0.5-0.5-1.2-1-1.8-1.2C-219.7,250.4-220.1,250.4-220.3,250.3z"/>
					<path d="M-215.2,254.5c-0.1,0-0.3-0.1-0.3-0.1s-0.3-0.4-0.5-1c-0.3-0.4-0.8-1.1-1.4-1.6c-0.5-0.5-1.2-1-1.8-1.2
						c-0.1-0.1-0.3-0.1-0.4-0.1c-0.4-0.1-0.7-0.3-0.7-0.4v-0.1c0.1-0.1,0.5-0.3,1.1-0.3c0.4,0.1,0.8,0.1,1.2,0.3
						c0.4,0.1,0.8,0.4,1.2,0.7c0.4,0.3,0.7,0.5,1.1,0.8c0.4,0.3,0.7,0.5,0.8,0.8c0.5,0.5,0.8,1,0.8,1c0.1,0.1,0.1,0.1,0,0.3
						c-0.1,0.3-0.3,0.5-0.5,0.7C-214.8,254.5-215.1,254.5-215.2,254.5z M-219.5,250c-0.4,0-0.7,0.1-0.8,0.1l0,0l0,0
						c0,0.1,0.3,0.3,0.7,0.3c0.1,0.1,0.3,0.1,0.4,0.1c0.7,0.3,1.4,0.8,1.8,1.2c0.7,0.5,1.1,1.2,1.4,1.6c0.4,0.5,0.5,1,0.5,1
						c0.1,0.1,0.5,0.1,1-0.1c0.3-0.3,0.5-0.4,0.5-0.7c0-0.1,0-0.1,0-0.1c0-0.1-0.4-0.4-0.8-1c-0.3-0.3-0.5-0.5-0.8-0.8
						c-0.4-0.4-0.8-0.7-1.1-0.8c-0.5-0.3-0.8-0.5-1.2-0.7c-0.4-0.1-0.8-0.3-1.2-0.3C-219.2,250-219.3,250-219.5,250z"/>
				</g>
			</g>
		</g>
	</g>
	<g id="XMLID_275_">
		<g id="XMLID_143_">
			<g id="XMLID_150_">
				<g id="XMLID_151_">
					<path class="st0" d="M-243.3,236.1c0-0.1,0.4-0.1,1,0c0.3,0.1,0.5,0.3,1,0.4c0.3,0.1,0.7,0.4,1,0.7s0.7,0.5,0.8,0.7
						c0.3,0.3,0.5,0.5,0.7,0.8c0.4,0.5,0.5,1,0.5,1.1c0,0.1,0,0.3-0.1,0.3c-0.1,0.1-0.3,0.1-0.3,0.1c-0.1,0-0.3,0-0.3-0.1
						c-0.1-0.1-0.1-0.1-0.1-0.1s0-0.3-0.3-0.7c-0.1-0.3-0.3-0.4-0.5-0.7s-0.5-0.5-0.7-0.7c-0.5-0.5-1.1-1-1.5-1.1
						C-242.9,236.3-243.3,236.3-243.3,236.1z"/>
					<path d="M-238.9,240.1c-0.1,0-0.3,0-0.4-0.1c-0.1-0.1-0.1-0.1-0.1-0.1l0,0c0,0,0-0.3-0.3-0.7c-0.1-0.3-0.4-0.5-0.5-0.7
						c-0.3-0.3-0.5-0.5-0.7-0.7c-0.5-0.5-1.1-1-1.5-1.1c-0.3-0.1-0.4-0.3-0.5-0.3c-0.1-0.1-0.3-0.1-0.3-0.1l0,0
						c0.1-0.1,0.4-0.1,1,0.1c0.3,0.1,0.5,0.1,1,0.4s0.7,0.4,1,0.7s0.7,0.5,0.8,0.7c0.3,0.3,0.5,0.5,0.7,0.8c0.4,0.5,0.5,1,0.5,1.1
						c0,0.1,0,0.3-0.1,0.4C-238.6,239.9-238.8,240.1-238.9,240.1z M-239.3,239.8c0,0.1,0.1,0.1,0.1,0.1l0.3,0.1
						c0.1,0,0.3-0.1,0.3-0.1l0.1-0.3l0,0c0-0.1-0.1-0.5-0.5-1.1c-0.3-0.3-0.5-0.5-0.7-0.8c-0.3-0.3-0.5-0.5-0.8-0.7
						c-0.3-0.3-0.7-0.4-1-0.7c-0.4-0.3-0.7-0.3-1-0.4c-0.5-0.1-0.8-0.1-1-0.1c0,0,0.1,0.1,0.3,0.1c0.1,0.1,0.4,0.1,0.5,0.3
						c0.5,0.3,1.1,0.7,1.5,1.1c0.3,0.3,0.5,0.5,0.7,0.7c0.3,0.3,0.4,0.4,0.5,0.7C-239.5,239.4-239.3,239.7-239.3,239.8z"/>
				</g>
			</g>
		</g>
	</g>
	<g id="XMLID_283_">
		<g id="XMLID_129_">
			<g id="XMLID_137_">
				<g id="XMLID_141_">
					<path d="M-229.4,245c0.1-0.1,0.1-0.3,0-0.4c-0.1-0.3-0.4-0.5-0.8-1c-0.4-0.3-1-0.5-1.6-0.5c-0.4,0-0.7,0-1.1,0.1
						c-0.4,0.1-0.7,0.3-1.1,0.4c-0.7,0.4-1.2,0.8-1.5,1.4c-0.4,0.5-0.7,1-0.8,1.4c-0.4,0.8-0.4,1.4-0.1,1.5c0.3,0.1,0.5-0.4,1-1.1
						c0.3-0.4,0.5-0.7,1-1.1s0.8-0.7,1.2-1c0.3-0.1,0.5-0.3,0.8-0.3c0.3,0,0.5-0.1,0.7-0.1c0.5,0,1,0.1,1.2,0.1
						c0.4,0.1,0.7,0.3,0.8,0.4C-229.7,245-229.5,245-229.4,245z"/>
					<path d="M-236.5,247.8L-236.5,247.8c-0.3-0.1-0.3-0.8,0.1-1.5c0.3-0.5,0.5-1,0.8-1.4c0.5-0.5,1-1.1,1.5-1.4
						c0.4-0.3,0.7-0.4,1.1-0.4s0.7-0.1,1.1-0.1c0.7,0,1.2,0.3,1.6,0.5c0.5,0.4,0.7,0.8,0.8,1c0.1,0.3,0.1,0.4,0,0.5l0,0
						c-0.1,0.1-0.3,0-0.5-0.1l-0.1-0.1c-0.3-0.1-0.4-0.3-0.7-0.4c-0.3-0.1-0.7-0.3-1.2-0.1c-0.3,0-0.5,0.1-0.7,0.1
						c-0.3,0.1-0.5,0.3-0.8,0.3c-0.4,0.3-0.8,0.5-1.2,1c-0.3,0.4-0.5,0.7-0.8,1l-0.1,0.1c-0.1,0.1-0.3,0.3-0.3,0.4
						C-236.1,247.6-236.3,247.8-236.5,247.8z M-232.1,243.1c-0.3,0-0.5,0-1,0.1s-0.7,0.3-1.1,0.4c-0.5,0.4-1.1,0.8-1.5,1.4
						c-0.4,0.4-0.7,1-0.8,1.4c-0.4,1-0.3,1.4-0.3,1.4c0.1,0.1,0.4-0.3,0.7-0.7c0.1-0.1,0.3-0.3,0.3-0.4l0.1-0.1
						c0.3-0.3,0.5-0.7,0.8-1c0.4-0.4,0.8-0.8,1.2-1c0.3-0.1,0.5-0.3,0.8-0.3c0.3-0.1,0.4-0.1,0.8-0.1c0.5-0.1,1,0.1,1.2,0.1
						c0.3,0.1,0.5,0.3,0.7,0.4l0.1,0.1c0.1,0.1,0.4,0.3,0.4,0.1l0,0c0.1,0,0.1-0.1-0.1-0.4c-0.1-0.1-0.3-0.5-0.8-0.8
						C-230.9,243.3-231.4,243.2-232.1,243.1C-232,243.1-232,243.1-232.1,243.1z"/>
				</g>
			</g>
		</g>
	</g>
	<g id="XMLID_291_">
		<g id="XMLID_119_">
			<g id="XMLID_126_">
				<g id="XMLID_127_">
					<path d="M-223.1,237.8c0.1,0,0.3-0.3,0.1-0.7s-0.4-1-1-1.4c-0.4-0.3-0.7-0.4-1.2-0.4c-0.4-0.1-1-0.1-1.4,0
						c-1,0.1-1.9,0.7-2.7,1.5c-0.8,0.8-1.4,1.6-1.5,2.4c-0.3,0.8-0.4,1.6-0.3,2.3c0,0.7,0.1,1.2,0.3,1.5c0.1,0.4,0.3,0.5,0.3,0.5
						c0.1,0,0.1-0.3,0.3-0.5c0.1-0.3,0.1-0.8,0.3-1.5c0.1-0.7,0.3-1.2,0.5-2c0.1-0.4,0.4-0.7,0.5-1.1c0.3-0.4,0.5-0.7,0.8-1
						c0.7-0.7,1.4-1,2-1.2s1.4-0.1,1.9,0.1c0.5,0.3,0.8,0.5,1,0.8C-223.3,237.5-223.3,237.8-223.1,237.8z"/>
					<path d="M-230.5,243.7c-0.1,0-0.3-0.3-0.4-0.5s-0.3-0.8-0.3-1.5c-0.1-0.8,0.1-1.5,0.3-2.3c0.3-1,0.8-1.9,1.5-2.6
						c0.8-0.8,1.8-1.2,2.7-1.5c0.4-0.1,1-0.1,1.4,0c0.4,0.1,0.8,0.3,1.2,0.4c0.8,0.5,1,1.2,1.1,1.4c0.1,0.4,0,0.5-0.1,0.7
						c0,0.1-0.1,0.1-0.1,0.1c-0.1,0-0.1-0.1-0.3-0.3c-0.1-0.1-0.1-0.1-0.1-0.3c-0.1-0.3-0.4-0.5-1-0.8c-0.5-0.3-1.2-0.3-1.8-0.1
						c-0.8,0.3-1.5,0.7-2,1.2c-0.3,0.3-0.5,0.5-0.8,1c-0.3,0.4-0.4,0.7-0.5,1.1c-0.3,0.8-0.4,1.5-0.5,2c-0.1,0.4-0.1,0.7-0.1,1
						c0,0.3-0.1,0.4-0.1,0.5C-230.3,243.5-230.3,243.7-230.5,243.7L-230.5,243.7z M-225.7,235.4c-0.3,0-0.5,0-0.7,0.1
						c-1,0.1-1.9,0.7-2.7,1.4c-0.7,0.7-1.2,1.6-1.5,2.4c-0.3,0.8-0.4,1.5-0.3,2.3c0,0.8,0.1,1.2,0.3,1.5c0.1,0.4,0.3,0.5,0.3,0.5
						c0.1,0,0.1-0.4,0.1-0.5s0.1-0.4,0.1-0.5c0-0.3,0.1-0.5,0.1-1c0.1-0.5,0.3-1.2,0.5-2c0.1-0.4,0.4-0.7,0.5-1.1
						c0.3-0.4,0.5-0.7,0.8-1c0.5-0.5,1.4-1,2-1.2c0.7-0.1,1.4-0.1,1.9,0.1c0.5,0.3,0.8,0.7,1,0.8c0.1,0.1,0.1,0.1,0.1,0.3
						c0.1,0.1,0.1,0.3,0.1,0.3l0,0c0.1-0.1,0.1-0.3,0.1-0.5c-0.1-0.3-0.3-0.8-1-1.4c-0.4-0.3-0.8-0.4-1.1-0.4
						C-225.3,235.4-225.6,235.4-225.7,235.4z"/>
				</g>
			</g>
		</g>
	</g>
	<g id="XMLID_299_">
		<g id="XMLID_109_">
			<g id="XMLID_116_">
				<g id="XMLID_117_">
					<path d="M-212.2,234.5c0.1,0,0.3-0.3,0.1-0.7c0-0.4-0.3-1.1-0.8-1.6c-0.3-0.3-0.7-0.5-1.1-0.8c-0.3-0.1-0.5-0.3-0.8-0.3
						c-0.3-0.1-0.5-0.1-0.8-0.1c-1.1,0-2.3,0.4-3.1,1.2c-0.5,0.5-1,1.1-1.2,1.6c-0.1,0.3-0.3,0.5-0.4,0.8c0,0.1-0.1,0.1-0.1,0.3l0,0
						v0.1h-0.1l0,0l0,0l0,0l0,0h-0.1c-0.1,0-0.3,0-0.3,0c-0.4,0-0.7,0.1-1,0.1s-0.5,0.3-0.8,0.4c-0.3,0.1-0.4,0.3-0.7,0.5
						c-0.1,0.1-0.1,0.3-0.3,0.3c-0.1,0.1-0.1,0.3-0.1,0.3c-0.1,0.3,0,0.4,0,0.5c0.1,0.3,0.3,0.4,0.3,0.3c0.1,0,0.1-0.1,0.1-0.4
						c0.1-0.1,0.3-0.4,0.4-0.5s0.3-0.1,0.5-0.3c0.3-0.1,0.4-0.1,0.7-0.1s0.5-0.1,0.8-0.1c0.1,0,0.1,0,0.3,0h0.1h0.1h0.1
						c0.3,0.1,0.7,0.1,1,0.3c0.1-0.3,0.1-0.5,0.1-0.7s0.1-0.3,0.1-0.4s0-0.1,0.1-0.1c0.1-0.3,0.3-0.4,0.3-0.7c0.3-0.4,0.5-1,1-1.2
						c0.7-0.7,1.5-1,2.3-1.1c0.3,0,0.4,0,0.5,0c0.3,0,0.4,0.1,0.5,0.1c0.4,0.1,0.7,0.3,0.8,0.4c0.5,0.4,0.8,0.8,1,1.1
						C-212.5,233.9-212.4,234.5-212.2,234.5z"/>
					<path d="M-223.1,237.5L-223.1,237.5c-0.1-0.1-0.3-0.1-0.3-0.4c0-0.1-0.1-0.3,0-0.5c0-0.1,0.1-0.3,0.1-0.3
						c0.1-0.1,0.1-0.3,0.3-0.3c0.1-0.1,0.4-0.4,0.7-0.5c0.3-0.1,0.5-0.3,0.8-0.4c0.3-0.1,0.5-0.1,1-0.1c0.1,0,0.1,0,0.3,0h0.3
						c0,0,0,0,0.1,0v-0.1c0-0.1,0-0.1,0-0.1v-0.1c0.1-0.3,0.1-0.5,0.4-0.8c0.3-0.7,0.7-1.2,1.2-1.6c0.8-0.8,2-1.4,3.3-1.2
						c0.3,0,0.5,0,0.8,0.1c0.3,0.1,0.5,0.1,0.8,0.3c0.4,0.3,0.8,0.5,1.1,0.8c0.7,0.8,0.8,1.5,0.8,1.6c0,0.4-0.1,0.7-0.1,0.7
						l-0.1,0.1c-0.1,0-0.1-0.1-0.3-0.4c0-0.1-0.1-0.1-0.1-0.3c-0.3-0.5-0.5-0.8-1-1.1c-0.3-0.3-0.5-0.4-0.8-0.4
						c-0.3-0.1-0.4-0.1-0.5-0.1l0,0c-0.3,0-0.4,0-0.5,0c-0.8,0.1-1.6,0.4-2.3,1.1c-0.4,0.4-0.7,0.8-1,1.2c-0.1,0.3-0.3,0.4-0.3,0.7
						l0,0l-0.1,0.1c0,0,0,0.1-0.1,0.3c0,0.1,0,0.1-0.1,0.3c0,0.1-0.1,0.3-0.1,0.4c0,0.1-0.1,0.3-0.1,0.4v0.1h-0.1
						c-0.1,0-0.4-0.1-0.5-0.1c-0.1,0-0.3-0.1-0.4-0.1h-0.1h-0.1h-0.1c-0.1,0-0.1,0-0.3,0c-0.3,0-0.5,0-0.8,0.1
						c-0.3,0-0.5,0.1-0.7,0.1c-0.3,0.1-0.4,0.1-0.5,0.3c-0.3,0.1-0.4,0.4-0.4,0.5s0,0.1,0,0.1C-223,237.4-223.1,237.4-223.1,237.5
						L-223.1,237.5z M-220.5,235.2c-0.1,0-0.1,0-0.3,0c-0.4,0.1-0.7,0.1-1,0.1c-0.3,0.1-0.5,0.3-0.8,0.4c-0.3,0.1-0.5,0.4-0.7,0.5
						s-0.1,0.3-0.3,0.3c-0.1,0.1-0.1,0.3-0.1,0.3c-0.1,0.3,0,0.4,0,0.4c0.1,0.1,0.1,0.3,0.1,0.3l0,0l0.1-0.1v-0.1
						c0.1-0.3,0.3-0.4,0.4-0.5c0.1-0.1,0.3-0.1,0.5-0.3c0.3-0.1,0.4-0.1,0.7-0.1c0.3,0,0.5-0.1,0.8-0.1c0.1,0,0.1,0,0.3,0h0.1h0.1
						h0.1c0.1,0,0.3,0.1,0.4,0.1c0.1,0,0.3,0.1,0.5,0.1c0-0.1,0.1-0.3,0.1-0.3c0-0.1,0.1-0.3,0.1-0.4s0-0.1,0.1-0.3
						c0-0.1,0-0.1,0.1-0.3c0-0.1,0-0.1,0.1-0.1c0.1-0.3,0.3-0.4,0.3-0.7c0.3-0.4,0.5-1,1-1.2c0.7-0.7,1.5-1,2.3-1.1
						c0.3,0,0.4,0,0.5,0l0,0c0.3,0,0.4,0.1,0.5,0.1c0.4,0.1,0.7,0.3,1,0.5c0.4,0.3,0.7,0.7,1,1.2c0.1,0.1,0.1,0.3,0.1,0.3
						c0.1,0.1,0.1,0.3,0.1,0.3l0,0l0,0c0.1-0.1,0.1-0.3,0.1-0.7c0-0.4-0.3-1.1-0.8-1.6c-0.3-0.3-0.7-0.5-1.1-0.8
						c-0.3-0.1-0.5-0.3-0.8-0.3c-0.3-0.1-0.5-0.1-0.8-0.1h-0.1c-1.2,0-2.3,0.5-3.1,1.2c-0.5,0.4-0.8,1-1.2,1.6
						c-0.1,0.3-0.3,0.7-0.4,0.8c0,0.1,0,0.1,0,0.1v0.1v0.1h-0.1L-220.5,235.2L-220.5,235.2L-220.5,235.2L-220.5,235.2z"/>
				</g>
			</g>
		</g>
	</g>
	<g id="XMLID_15_">
		<g id="XMLID_102_">
			<g id="XMLID_106_">
				<g id="XMLID_107_">
					<path d="M-266,259.4c-0.1-0.1-0.4,0-0.8,0.3c-0.4,0.3-1.1,0.7-1.6,1.4c-0.7,0.7-1.2,1.6-1.5,2.7c-0.3,1.2-0.3,2.4,0.1,3.8
						c0.1,0.3,0.3,0.7,0.4,0.8l0,0l0,0l0,0l0,0l0,0l0,0l0,0l0,0l0,0h-0.1l0,0l0,0l0,0c-0.1,0-0.1,0-0.3,0.1c-0.1,0-0.3,0.1-0.4,0.1
						c-0.5,0.1-1,0.3-1.4,0.4c-1,0.3-1.6,0.5-2.3,0.7c-1.4,0.4-2,0.8-2,1c0.1,0.1,0.8,0.1,2.2-0.3c0.7-0.1,1.5-0.3,2.3-0.4
						c0.4-0.1,1-0.3,1.4-0.3c0.3-0.1,0.7-0.1,1-0.3c0.5-0.1,1-0.3,1.5-0.4c-0.1-0.3-0.3-0.5-0.4-0.7c-0.1-0.1-0.1-0.3-0.3-0.4
						c0-0.1-0.1-0.1-0.1-0.3c0,0,0-0.1-0.1-0.1v-0.1c-0.1-0.3-0.3-0.5-0.3-0.7c-0.4-1.1-0.4-2.2-0.3-3.1c0.3-1,0.7-1.8,1.1-2.4
						s1-1.1,1.2-1.5C-266.1,259.7-266,259.5-266,259.4z"/>
					<path d="M-275.5,270.8c-0.3,0-0.4-0.1-0.4-0.1c-0.1-0.3,0.7-0.5,2-1c0.7-0.3,1.5-0.5,2.3-0.7c0.5-0.1,1-0.3,1.4-0.4
						c0.1,0,0.3-0.1,0.4-0.1l0.3-0.1h0.1l0,0h0.1l0,0l0,0l0,0l0,0c0-0.1-0.1-0.1-0.1-0.1c-0.1-0.3-0.3-0.5-0.3-0.7
						c-0.4-1.2-0.4-2.6-0.1-3.8c0.4-1.2,1-2.2,1.5-2.7c0.7-0.8,1.4-1.2,1.6-1.4c0.4-0.1,0.8-0.4,0.8-0.3l0,0
						c0.1,0.1-0.1,0.3-0.5,0.7s-0.8,0.8-1.2,1.5c-0.5,0.8-0.8,1.6-1.1,2.4c-0.3,1.1-0.1,2.2,0.3,3.1c0.1,0.3,0.1,0.5,0.3,0.7
						l0.1,0.1c0,0.1,0.1,0.1,0.1,0.3c0.1,0.1,0.1,0.1,0.1,0.3c0.1,0.1,0.1,0.1,0.1,0.3c0.1,0.1,0.1,0.3,0.1,0.3
						c0.1,0.1,0.1,0.3,0.3,0.4v0.1h-0.1c-0.3,0.1-0.5,0.1-0.7,0.1c-0.3,0.1-0.5,0.1-0.8,0.3c-0.4,0.1-0.7,0.1-1,0.3
						c-0.3,0.1-0.5,0.1-0.8,0.3s-0.4,0.1-0.5,0.1c-0.5,0.1-1.1,0.3-1.6,0.3c-0.3,0.1-0.5,0.1-0.8,0.1
						C-274.7,270.8-275.2,270.8-275.5,270.8z M-269.4,268.5L-269.4,268.5l-0.3,0.1c-0.1,0-0.3,0.1-0.4,0.1c-0.4,0.1-1,0.3-1.4,0.4
						c-0.8,0.3-1.6,0.5-2.3,0.7c-1.6,0.5-2,0.8-2,1s0.3,0.1,2.2-0.3c0.3-0.1,0.5-0.1,0.8-0.1c0.5-0.1,1.1-0.3,1.6-0.3
						c0.3-0.1,0.4-0.1,0.5-0.1c0.3-0.1,0.5-0.1,0.8-0.3c0.3-0.1,0.5-0.1,1-0.3c0.3-0.1,0.5-0.1,0.8-0.3s0.4-0.1,0.7-0.1
						c-0.1-0.1-0.1-0.3-0.3-0.4c-0.1-0.1-0.1-0.3-0.1-0.3c-0.1-0.1-0.1-0.1-0.1-0.3c-0.1-0.1-0.1-0.1-0.1-0.3c0-0.1-0.1-0.1-0.1-0.3
						l-0.1-0.1c-0.1-0.3-0.3-0.5-0.3-0.8c-0.4-1.1-0.4-2.2-0.3-3.3c0.1-0.8,0.5-1.6,1.1-2.4c0.4-0.7,0.8-1.1,1.2-1.5
						c0.3-0.3,0.5-0.5,0.5-0.5s-0.3-0.1-0.7,0.3c-0.4,0.1-1,0.5-1.6,1.4c-0.5,0.5-1.1,1.5-1.5,2.7c-0.3,1.2-0.3,2.6,0.1,3.8
						c0.1,0.3,0.3,0.5,0.3,0.7s0.1,0.1,0.1,0.1l0,0l0,0l0.1,0.1h-0.1l0,0h-0.1L-269.4,268.5L-269.4,268.5z"/>
				</g>
			</g>
		</g>
	</g>
	<g id="XMLID_17_">
		<g id="XMLID_95_">
			<g id="XMLID_99_">
				<g id="XMLID_100_">
					<path d="M-261.8,250.8c0-0.1-0.3-0.1-0.5-0.1c-0.3,0-0.8,0.1-1.4,0.4c-0.5,0.3-1.1,0.7-1.6,1.4c-0.1,0.1-0.3,0.4-0.4,0.5
						s-0.1,0.3-0.1,0.3c-0.1,0.1-0.1,0.3-0.1,0.4c0,0.1,0,0.1-0.1,0.1c0,0.1,0,0.1,0,0.1c0,0.1,0,0.3-0.1,0.3v0.1l0,0h-0.1l0,0h-0.1
						h-0.1c-0.1,0-0.1,0-0.3,0s-0.3,0-0.4,0c-0.5,0.1-1.1,0.1-1.6,0.4c-0.4,0.1-0.7,0.3-1,0.5c-0.3,0.3-0.5,0.4-0.8,0.7
						c-0.5,0.5-0.8,1-1.1,1.5c-0.4,1.1-0.4,2.2-0.3,3c0.3,0.8,0.7,1.5,1.1,1.8c0.3,0.1,0.4,0.3,0.5,0.3c0.1,0,0.3,0,0.3,0
						c0.1-0.1-0.1-0.3-0.4-0.7c-0.1-0.1-0.3-0.4-0.3-0.7c-0.1-0.3-0.3-0.7-0.3-1c-0.1-0.7,0-1.6,0.4-2.3c0.3-0.4,0.5-0.8,0.8-1.1
						c0.3-0.1,0.4-0.4,0.7-0.4c0.3-0.1,0.4-0.3,0.7-0.4c0.4-0.1,0.8-0.3,1.2-0.3c0.1,0,0.3,0,0.3,0c0.1,0,0.1,0,0.1,0h0.3
						c0.3,0,0.4,0.1,0.7,0.1s0.4,0.1,0.7,0.1c0-0.3,0-0.4-0.1-0.7c0-0.3,0-0.4,0-0.5c0-0.3,0-0.3,0-0.4v-0.1c0-0.1,0-0.1,0-0.1
						c0-0.1,0-0.1,0.1-0.3c0-0.1,0.1-0.1,0.1-0.3c0.1-0.1,0.1-0.3,0.3-0.4c0.3-0.5,0.8-1,1.1-1.2c0.4-0.3,0.8-0.4,1.1-0.5
						C-262,251-261.8,250.8-261.8,250.8z"/>
					<path d="M-269.7,262.4c-0.1,0-0.1,0-0.1,0c-0.1-0.1-0.3-0.1-0.5-0.3c-0.4-0.4-0.8-1.1-1.1-1.8c-0.1-0.5-0.3-1.8,0.3-3
						c0.3-0.5,0.7-1.1,1.1-1.5c0.3-0.3,0.5-0.5,0.8-0.7c0.4-0.3,0.7-0.4,1-0.5c0.5-0.3,1.1-0.4,1.6-0.4c0.1,0,0.3,0,0.4,0h0.4l0,0
						l0,0l0,0v-0.1c0-0.1,0-0.1,0.1-0.3v-0.1c0-0.1,0-0.1,0.1-0.1c0.1-0.1,0.1-0.3,0.1-0.4c0-0.1,0.1-0.1,0.1-0.1
						c0-0.1,0.1-0.1,0.1-0.1c0.1-0.3,0.3-0.4,0.4-0.5c0.4-0.5,1-1.1,1.6-1.4c0.5-0.3,1-0.4,1.4-0.4l0,0c0.3,0,0.5,0.1,0.5,0.1
						c0,0.1-0.1,0.1-0.3,0.3l-0.1,0.1c-0.3,0.1-0.7,0.3-1,0.5c-0.5,0.4-0.8,0.8-1.1,1.2c-0.1,0.1-0.1,0.3-0.1,0.4l-0.1,0.1v0.1
						c0,0.1,0,0.1-0.1,0.1c0,0.1-0.1,0.1-0.1,0.3l0,0v0.1v0.1v0.1c0,0.1,0,0.1,0,0.3c0,0.3,0,0.4,0,0.5c0,0.3,0,0.4,0.1,0.7v0.1
						h-0.1c-0.1,0-0.3,0-0.3-0.1c-0.1,0-0.3-0.1-0.4-0.1c-0.1,0-0.1,0-0.3-0.1c-0.1,0-0.3-0.1-0.4-0.1h-0.4c-0.1,0-0.3,0-0.3,0
						c-0.4,0.1-0.8,0.1-1.2,0.3c-0.3,0.1-0.5,0.3-0.7,0.4c-0.3,0.1-0.4,0.3-0.7,0.4c-0.4,0.3-0.7,0.7-0.8,1.1
						c-0.4,0.7-0.5,1.6-0.4,2.3c0,0.3,0.1,0.7,0.3,1c0.1,0.3,0.3,0.5,0.3,0.7c0.1,0.1,0.1,0.3,0.3,0.4c0.1,0.1,0.1,0.3,0.1,0.3
						C-269.5,262.4-269.5,262.4-269.7,262.4z M-266.4,254.2c-0.1,0-0.3,0-0.4,0c-0.7,0.1-1.1,0.3-1.6,0.4c-0.3,0.1-0.7,0.3-1,0.5
						c-0.3,0.1-0.5,0.4-0.8,0.7c-0.5,0.5-0.8,1-1.1,1.5c-0.5,1.4-0.4,2.4-0.3,3c0.3,0.8,0.5,1.4,1.1,1.8c0.3,0.1,0.4,0.3,0.5,0.3
						s0.3,0,0.3,0s-0.1-0.1-0.1-0.3c-0.1-0.1-0.1-0.3-0.3-0.4c-0.1-0.1-0.3-0.4-0.3-0.7c-0.1-0.3-0.3-0.7-0.3-1
						c-0.1-0.8,0.1-1.6,0.4-2.4c0.3-0.5,0.5-0.8,0.8-1.2c0.3-0.1,0.4-0.4,0.7-0.5c0.3-0.1,0.4-0.3,0.7-0.4c0.4-0.1,0.8-0.3,1.2-0.3
						c0.1,0,0.3,0,0.3,0h0.4c0.1,0,0.3,0.1,0.5,0.1c0.1,0,0.1,0,0.3,0.1c0.1,0,0.3,0.1,0.4,0.1c0.1,0,0.1,0,0.3,0.1
						c0-0.3,0-0.4-0.1-0.7c0-0.3,0-0.4,0-0.5c0-0.3,0-0.3,0-0.4v-0.3c0-0.1,0-0.1,0-0.1l0,0c0-0.1,0-0.1,0.1-0.3
						c0-0.1,0-0.1,0.1-0.1v-0.1l0.1-0.1c0.1-0.1,0.1-0.3,0.3-0.4c0.3-0.5,0.7-1,1.1-1.2c0.4-0.3,0.7-0.4,1-0.5l0.1-0.1
						c0.1-0.1,0.3-0.1,0.3-0.1s-0.1-0.1-0.4-0.1c-0.4,0-0.8,0.1-1.4,0.4c-0.7,0.4-1.2,0.8-1.6,1.4c-0.1,0.1-0.3,0.4-0.4,0.5
						c0,0.1-0.1,0.1-0.1,0.1c0,0.1-0.1,0.1-0.1,0.1c-0.1,0.1-0.1,0.3-0.1,0.4c0,0.1,0,0.1-0.1,0.1c0,0.1,0,0.1,0,0.1
						c0,0.1,0,0.3-0.1,0.3v0.1v0.1h-0.1C-266.3,254.2-266.3,254.2-266.4,254.2c0,0,0,0-0.1,0L-266.4,254.2L-266.4,254.2z"/>
				</g>
			</g>
		</g>
	</g>
	<g id="XMLID_54_">
		<g id="XMLID_79_">
			<g id="XMLID_92_">
				<g id="XMLID_93_">
					<path d="M-296.1,276.5c0,0.1,0.3,0.1,0.8,0.3c0.5,0.1,1.2,0.3,2,0.4s1.8,0.4,2.7,0.8c0.1,0.1,0.3,0.1,0.4,0.3s0.3,0.1,0.4,0.3
						c0.1,0,0.1,0.1,0.3,0.1l0.1,0.1c0.1,0.1,0.1,0.1,0.3,0.1c0.3,0.3,0.5,0.4,0.8,0.5l0.1,0.1c0,0,0-0.1,0.1-0.1l0.1-0.3
						c0.1-0.1,0.1-0.3,0.3-0.4c0.1-0.1,0.1-0.3,0.3-0.4l0.1-0.1l0.1-0.1l0.1-0.1c0.1-0.3,0.4-0.5,0.5-0.7s0.1-0.1,0.3-0.3
						c0.1-0.1,0.1-0.1,0.3-0.1c0.1-0.1,0.3-0.1,0.4-0.3c0.1-0.1,0.3-0.1,0.4-0.1h0.1l0,0l0,0h0.1c0.1,0,0.1,0,0.1,0l0.1,0.1
						c0.3,0.1,0.4,0.1,0.7,0.3c0-0.1,0.1-0.3,0.1-0.4c0-0.1,0.1-0.3,0.1-0.4c0-0.1,0.1-0.3,0.1-0.4s0-0.1,0.1-0.1
						c0.1-0.1,0.3-0.4,0.3-0.5c0.3-0.3,0.5-0.5,1-0.8c0.4-0.3,0.7-0.4,1-0.4c0.3-0.1,0.7-0.1,0.8-0.1c0.3,0.1,0.5,0.1,0.7,0.3
						c0.3,0.1,0.3,0.3,0.4,0.4c0.3,0.3,0.3,0.4,0.3,0.4c0.1,0,0.3-0.3,0.1-0.7c-0.1-0.4-0.5-1-1.2-1.2c-0.4-0.1-0.8-0.1-1.2-0.1
						c-0.4,0.1-0.8,0.3-1.4,0.4c-0.4,0.3-0.8,0.5-1.2,1c-0.3,0.3-0.4,0.4-0.5,0.7c0,0.1-0.1,0.1-0.1,0.3l0,0l0,0l0,0l0,0l0,0l0,0
						l0,0h-0.1c-0.3,0-0.5,0.1-0.8,0.1c-0.3,0.1-0.5,0.3-0.8,0.4c-0.1,0.1-0.3,0.1-0.4,0.3s-0.3,0.3-0.3,0.3c-0.3,0.3-0.5,0.7-0.7,1
						l-0.1,0.1l0,0l0,0l0,0l0,0l0,0l0,0h-0.1l0,0l0,0l0,0c-0.1-0.1-0.1-0.1-0.3-0.1c-0.1-0.1-0.3-0.1-0.4-0.3
						c-0.1-0.1-0.3-0.1-0.4-0.3c-1.2-0.4-2.3-0.7-3.1-0.7c-1-0.1-1.6,0-2.2,0.1C-295.8,276.4-296.1,276.4-296.1,276.5z"/>
					<path d="M-288.3,279.4l-0.1-0.1c-0.1-0.1-0.4-0.3-0.5-0.4c-0.1-0.1-0.3-0.1-0.3-0.3c-0.1,0-0.1-0.1-0.3-0.1l-0.1-0.1l-0.1-0.1
						l-0.1-0.1c-0.1-0.1-0.3-0.1-0.4-0.3c-0.1,0-0.1-0.1-0.3-0.1s-0.1-0.1-0.1-0.1c-0.8-0.4-1.8-0.7-2.7-0.8c-0.5-0.1-1-0.1-1.2-0.3
						c-0.4-0.1-0.5-0.1-0.8-0.1c-0.5-0.1-0.8-0.3-0.8-0.4c0-0.1,0.3-0.3,0.8-0.3c0.7-0.1,1.4-0.1,2.2-0.1c1.2,0.1,2.2,0.3,3.1,0.7
						c0.1,0.1,0.3,0.1,0.4,0.3s0.1,0.1,0.3,0.1c0.1,0.1,0.1,0.1,0.3,0.1s0.1,0.1,0.1,0.1s0.1,0,0.1,0.1l0,0h0.1v-0.1l0.1-0.1
						c0.3-0.4,0.4-0.7,0.7-1c0.1-0.1,0.1-0.1,0.3-0.3l0.1-0.1c0.1-0.1,0.1-0.1,0.3-0.3l0.1-0.1c0.3-0.1,0.5-0.3,0.8-0.4
						c0.3-0.1,0.5-0.1,0.8-0.1h0.1l0,0l0,0l0,0l0.1-0.1l0.1-0.1c0.1-0.3,0.3-0.5,0.5-0.7c0.4-0.4,0.8-0.7,1.2-1
						c0.5-0.3,1-0.4,1.4-0.4c0.5-0.1,1,0,1.2,0.1c0.8,0.3,1.1,0.8,1.2,1.2c0.1,0.3,0.1,0.5,0,0.7l-0.1,0.1c-0.1,0-0.1-0.1-0.1-0.1
						c-0.1-0.1-0.1-0.1-0.3-0.3s-0.3-0.3-0.4-0.4c-0.3-0.1-0.4-0.3-0.7-0.3c-0.3-0.1-0.5,0-0.8,0.1s-0.7,0.3-1,0.4
						c-0.4,0.3-0.7,0.5-1,0.8c-0.1,0.1-0.3,0.3-0.3,0.5l0,0l-0.1,0.1c0,0.1-0.1,0.1-0.1,0.3s0,0.1,0,0.1c0,0.1,0,0.1-0.1,0.3
						c0,0.1,0,0.1-0.1,0.3c0,0.1,0,0.3-0.1,0.4v0.1h-0.1c-0.1-0.1-0.3-0.1-0.3-0.1c-0.1-0.1-0.3-0.1-0.3-0.1l-0.1-0.1h-0.1h-0.1
						h-0.1h-0.1c-0.1,0-0.3,0.1-0.4,0.1h-0.1c-0.1,0.1-0.3,0.1-0.4,0.1c-0.1,0-0.1,0.1-0.1,0.1l-0.1,0.1c-0.1,0.1-0.1,0.1-0.3,0.1
						c-0.3,0.3-0.4,0.4-0.5,0.7l-0.1,0.3l-0.1,0.1c-0.1,0.1-0.1,0.1-0.1,0.3c-0.1,0.1-0.1,0.1-0.1,0.3c-0.1,0.1-0.1,0.1-0.1,0.3
						c-0.1,0.1-0.1,0.1-0.1,0.3L-288.3,279.4C-288.3,279.3-288.3,279.3-288.3,279.4C-288.3,279.3-288.3,279.3-288.3,279.4
						L-288.3,279.4z M-295.9,276.5c0,0.1,0.4,0.1,0.7,0.3c0.3,0.1,0.5,0.1,0.8,0.1c0.4,0.1,0.8,0.1,1.2,0.3c1.1,0.3,2,0.5,2.9,0.8
						c0.1,0,0.1,0.1,0.1,0.1c0.1,0.1,0.1,0.1,0.3,0.1c0.1,0.1,0.3,0.1,0.4,0.3l0.1,0.1l0.1,0.1l0.1,0.1c0.1,0.1,0.1,0.1,0.3,0.1
						c0.1,0.1,0.3,0.1,0.3,0.3c0.1,0.1,0.3,0.3,0.5,0.4l0.1,0.1c0,0,0-0.1,0.1-0.1l0.1-0.3c0.1-0.1,0.1-0.1,0.1-0.3
						c0.1-0.1,0.1-0.1,0.1-0.3c0.1-0.1,0.1-0.1,0.1-0.3c0.1-0.1,0.1-0.1,0.1-0.3l0.1-0.3l0.1-0.1c0.1-0.3,0.4-0.5,0.5-0.7
						c0.1-0.1,0.1-0.1,0.3-0.3c0,0,0.1,0,0.1-0.1c0.1-0.1,0.1-0.1,0.1-0.1c0.1-0.1,0.3-0.1,0.4-0.3h0.1c0.1-0.1,0.3-0.1,0.4-0.1h0.1
						h0.1h0.1h0.1l0.1,0.1c0.1,0.1,0.3,0.1,0.3,0.1c0.1,0,0.3,0.1,0.3,0.1c0-0.1,0.1-0.3,0.1-0.4c0-0.1,0-0.1,0.1-0.3
						c0-0.1,0-0.1,0.1-0.3c0-0.1,0-0.1,0-0.1c0-0.1,0.1-0.1,0.1-0.3s0-0.1,0.1-0.1c0.1-0.1,0.3-0.4,0.3-0.5c0.3-0.3,0.5-0.5,1-0.8
						c0.4-0.3,0.7-0.4,1-0.4c0.3-0.1,0.7-0.1,0.8-0.1c0.3,0.1,0.5,0.1,0.7,0.3c0.1,0.1,0.3,0.3,0.4,0.4c0.1,0.1,0.1,0.3,0.3,0.3
						c0,0.1,0.1,0.1,0.1,0.1l0,0c0.1-0.1,0.1-0.3,0-0.5c-0.1-0.4-0.5-1-1.2-1.2c-0.4-0.1-0.8-0.1-1.2-0.1c-0.4,0.1-0.8,0.3-1.4,0.4
						c-0.4,0.3-0.8,0.5-1.2,1c-0.3,0.3-0.4,0.4-0.5,0.7l-0.1,0.1l-0.1,0.1l0,0l0,0l0,0h-0.1c0,0,0,0-0.1,0h-0.1
						c-0.3,0-0.5,0.1-0.8,0.1c-0.3,0.1-0.5,0.3-0.7,0.4l-0.1,0.1c-0.1,0.1-0.1,0.1-0.3,0.1l-0.1,0.1c-0.1,0.1-0.1,0.1-0.1,0.1
						c-0.3,0.3-0.5,0.5-0.7,1l-0.1,0.1c0,0.1-0.1,0.1-0.1,0.1l0,0l0,0h-0.1l0,0c0,0-0.1,0-0.1-0.1c-0.1,0-0.1-0.1-0.1-0.1
						c-0.1-0.1-0.1-0.1-0.3-0.1c-0.1-0.1-0.1-0.1-0.3-0.1c-0.1-0.1-0.3-0.1-0.4-0.3c-1-0.4-2-0.5-3.1-0.7c-0.7-0.1-1.4,0-2,0.1
						C-295.8,276.4-295.9,276.5-295.9,276.5z"/>
				</g>
			</g>
		</g>
	</g>
	<g id="XMLID_18_">
		<g id="XMLID_68_">
			<g id="XMLID_72_">
				<g id="XMLID_73_">
					<path d="M-276.2,290.6c0.1,0.1,0.3,0,0.8-0.3c0.4-0.3,1.1-0.5,1.8-1.2c0.4-0.4,0.7-0.7,1-1.2c0.1-0.1,0.1-0.3,0.3-0.4
						c0.1-0.1,0.1-0.3,0.1-0.4c0.1-0.3,0.1-0.7,0.3-1c0-0.4,0-0.7-0.1-1c-0.1-0.4-0.3-0.7-0.4-1.1c-0.3-0.4-0.4-0.7-0.8-1
						c-0.1-0.1-0.1-0.1-0.3-0.3l-0.1-0.1l0,0l0,0l0,0c0,0,0,0,0-0.1l0,0l0,0l0,0c0-0.1,0.1-0.1,0.1-0.1c0.1-0.1,0.1-0.3,0.3-0.4
						c0.3-0.4,0.4-1,0.4-1.5c0-0.3,0-0.5,0-0.8s-0.1-0.5-0.1-0.7c-0.1-0.5-0.3-1-0.5-1.4s-0.5-0.8-0.8-1.1c-0.3-0.1-0.4-0.3-0.5-0.4
						l-0.1-0.1l0,0l0,0l0,0l0,0l0,0c0,0,0,0,0-0.1c0-0.1,0-0.1,0-0.3s0-0.1,0-0.3c0-0.4,0-0.7-0.1-1c-0.1-0.3-0.3-0.5-0.4-0.8
						c-0.1-0.3-0.4-0.4-0.5-0.7c-0.4-0.4-1-0.5-1.4-0.7c-0.5-0.1-1,0-1.2,0.1c-0.7,0.3-1.1,0.7-1.4,1c-0.3,0.4-0.3,0.5-0.3,0.5
						c0.1,0,0.3-0.1,0.4-0.4c0.3-0.3,0.7-0.4,1.2-0.5s1.4,0,1.8,0.5c0.1,0.1,0.3,0.3,0.4,0.4c0.1,0.1,0.1,0.4,0.3,0.5
						c0.1,0.3,0.1,0.4,0.1,0.7c0,0.1,0,0.1,0,0.1v0.1l0,0l-0.1,0.1c-0.1,0.1-0.1,0.3-0.1,0.4c-0.1,0.1-0.1,0.3-0.1,0.4
						c0.1,0.1,0.3,0.3,0.5,0.3l0.3,0.1h0.1l0,0l0,0l0.1,0.1c0.1,0.1,0.3,0.3,0.4,0.4c0.3,0.3,0.4,0.5,0.7,0.8c0.4,0.7,0.5,1.4,0.4,2
						c-0.1,0.4-0.1,0.8-0.3,1.1c0,0.1-0.1,0.1-0.1,0.3l-0.1,0.1l0,0c0,0,0,0.1-0.1,0.1l-0.1,0.1l-0.3,0.3l-0.3,0.3
						c-0.1,0.1-0.3,0.4-0.4,0.5c0.4,0.1,0.7,0.3,1.1,0.4c0.1,0,0.1,0,0.1,0.1l0.1,0.1c0.1,0,0.1,0.1,0.1,0.1h0.1
						c0.1,0,0.1,0.1,0.1,0.1c0.3,0.1,0.4,0.4,0.5,0.5c0.1,0.3,0.3,0.4,0.3,0.7c0.1,0.3,0.1,0.5,0.1,0.7c0,0.3,0,0.5-0.1,0.7
						c0,0.1-0.1,0.3-0.1,0.4c-0.1,0.1-0.1,0.3-0.1,0.4c-0.3,0.4-0.4,0.8-0.7,1.1c-0.5,0.7-1.1,1.1-1.4,1.4
						C-276.1,290.3-276.2,290.4-276.2,290.6z"/>
					<path d="M-276.1,290.6C-276.2,290.6-276.2,290.6-276.1,290.6L-276.1,290.6c-0.1-0.1-0.1-0.3,0.4-0.7c0.1-0.1,0.3-0.3,0.3-0.3
						c0.3-0.3,0.7-0.7,1.1-1.1c0.3-0.4,0.5-0.7,0.7-1.1c0-0.1,0.1-0.1,0.1-0.1c0-0.1,0.1-0.1,0.1-0.1V287c0-0.1,0.1-0.1,0.1-0.3
						c0.1-0.3,0.1-0.4,0.1-0.7c0-0.3,0-0.5-0.1-0.7c-0.1-0.3-0.1-0.5-0.3-0.7c-0.1-0.3-0.3-0.4-0.5-0.5l-0.1-0.1l-0.1-0.1h-0.1
						c0,0,0,0-0.1,0c0,0-0.1,0-0.1-0.1l-0.1-0.1c0,0-0.1,0-0.1-0.1c-0.3-0.1-0.4-0.1-0.5-0.3c-0.1-0.1-0.4-0.1-0.5-0.1h-0.1l0.1-0.1
						c0.1-0.1,0.3-0.4,0.4-0.5l0.3-0.3l0.3-0.3l0.1-0.1c0,0,0,0,0-0.1c0,0,0,0,0-0.1l0,0l0.1-0.1c0,0,0-0.1,0.1-0.1
						c0-0.1,0.1-0.1,0.1-0.1c0.1-0.4,0.3-0.7,0.3-1.1c0.1-0.7-0.1-1.4-0.4-2c-0.1-0.3-0.4-0.5-0.7-0.8c-0.1-0.1-0.3-0.3-0.4-0.4
						l-0.1-0.1l-0.1-0.1l-0.3-0.1c-0.1-0.1-0.1-0.1-0.3-0.1c-0.1-0.1-0.1-0.1-0.3-0.1l0,0l0,0c0.1-0.1,0.1-0.3,0.1-0.4
						c0-0.1,0.1-0.1,0.1-0.3s0.1-0.1,0.1-0.3l0.1-0.1l0,0v-0.1c0-0.1,0-0.1,0-0.1c0-0.3,0-0.4-0.1-0.5c-0.1-0.1-0.1-0.4-0.3-0.5
						c-0.1-0.1-0.3-0.3-0.4-0.4c-0.5-0.5-1.2-0.7-1.8-0.5c-0.4,0.1-0.8,0.3-1.2,0.5c-0.1,0.1-0.1,0.1-0.3,0.1
						c-0.1,0.1-0.3,0.3-0.3,0.1c-0.1-0.1-0.1-0.3,0.1-0.7c0.3-0.3,0.7-0.8,1.4-1c0.4-0.1,0.8-0.1,1.2-0.1c0.5,0.1,1,0.3,1.4,0.7
						c0.3,0.3,0.4,0.4,0.5,0.7c0.3,0.3,0.3,0.5,0.4,0.8c0.1,0.3,0.1,0.5,0.1,1c0,0.1,0,0.1,0,0.3v0.1v0.1l0,0l0,0l0,0l0.1,0.1
						c0.1,0.1,0.3,0.3,0.4,0.4l0.1,0.1c0.4,0.3,0.7,0.7,1,1.1c0.3,0.4,0.4,0.8,0.5,1.4c0.1,0.3,0.1,0.5,0.1,0.8c0,0.3,0,0.5,0,0.8
						c-0.1,0.5-0.3,1.1-0.4,1.5c-0.1,0.1-0.1,0.3-0.3,0.4c0,0.1-0.1,0.1-0.1,0.1l0,0l0,0l0.1,0.1c0.1,0.1,0.3,0.1,0.3,0.3
						c0.3,0.3,0.5,0.5,0.8,1c0.1,0.3,0.3,0.7,0.4,1.1s0.1,0.7,0.1,1.1s-0.1,0.7-0.3,1c0,0.1-0.1,0.3-0.1,0.3c0,0.1-0.1,0.1-0.1,0.1
						l-0.1,0.1c-0.1,0.1-0.1,0.1-0.1,0.3c-0.3,0.5-0.7,1-1,1.2c-0.7,0.7-1.4,1-1.8,1.2C-275.8,290.6-276.1,290.6-276.1,290.6z
						 M-276.1,290.6c0,0,0.1,0,0.7-0.3c0.4-0.3,1.1-0.5,1.6-1.2c0.4-0.4,0.7-0.7,1-1.2c0.1-0.1,0.1-0.1,0.1-0.3s0.1-0.1,0.1-0.1
						l0.1-0.1c0.1-0.1,0.1-0.1,0.1-0.3c0.1-0.3,0.1-0.5,0.3-1c0-0.4,0-0.7-0.1-1c-0.1-0.4-0.3-0.7-0.4-1c-0.3-0.4-0.4-0.7-0.8-1
						c-0.1-0.1-0.1-0.1-0.3-0.3l-0.1-0.1l0,0l0,0l0,0h-0.1l0.1-0.1l0,0l0,0l0,0c0-0.1,0.1-0.1,0.1-0.1c0.1-0.1,0.1-0.3,0.1-0.4
						c0.3-0.4,0.4-1,0.4-1.5c0-0.3,0-0.5,0-0.8c0-0.3-0.1-0.5-0.1-0.7c-0.1-0.5-0.3-1-0.5-1.4c-0.3-0.4-0.5-0.8-0.8-1.1l-0.1-0.1
						c-0.1-0.1-0.3-0.3-0.4-0.4l-0.1-0.1h-0.1l0,0l0,0v0.8l0,0v-0.1c0-0.1,0-0.1,0-0.3c0-0.4-0.1-0.7-0.1-1
						c-0.1-0.3-0.3-0.5-0.4-0.8c-0.1-0.3-0.4-0.4-0.5-0.7c-0.4-0.4-0.8-0.5-1.4-0.7c-0.4-0.1-0.8,0-1.2,0.1c-0.8,0.3-1.2,0.7-1.4,1
						c-0.3,0.3-0.3,0.5-0.3,0.5s0.1-0.1,0.3-0.1c0.1-0.1,0.1-0.1,0.3-0.1c0.4-0.3,0.8-0.5,1.2-0.5c0.5-0.1,1.4,0,1.8,0.5
						c0.1,0.1,0.3,0.3,0.4,0.4c0.1,0.3,0.1,0.4,0.3,0.5c0.1,0.3,0.1,0.4,0.1,0.7c0,0.1,0,0.1,0,0.1v0.1l0,0l-0.1,0.1
						c0,0.1-0.1,0.1-0.1,0.1c0,0.1-0.1,0.1-0.1,0.3c-0.1,0.1-0.1,0.3-0.1,0.4c0.1,0.1,0.1,0.1,0.3,0.1c0.1,0.1,0.1,0.1,0.3,0.1
						l0.4,0.3l0.1,0.1c0.1,0.1,0.3,0.3,0.4,0.4c0.3,0.3,0.5,0.5,0.7,0.8c0.4,0.7,0.5,1.4,0.5,2c-0.1,0.4-0.1,0.8-0.3,1.1
						c0,0.1-0.1,0.1-0.1,0.1s0,0.1-0.1,0.1l-0.1,0.1c0,0,0,0,0,0.1c0,0,0,0,0,0.1l-0.1,0.1l-0.3,0.3l-0.3,0.3
						c-0.1,0.1-0.3,0.4-0.4,0.4c0.1,0.1,0.3,0.1,0.4,0.1c0.3,0.1,0.4,0.1,0.5,0.3c0.1,0,0.1,0,0.1,0.1l0.1,0.1c0,0,0.1,0,0.1,0.1
						l0,0h0.1l0.1,0.1l0.1,0.1c0.3,0.1,0.4,0.4,0.5,0.5c0.1,0.3,0.3,0.4,0.3,0.7c0.1,0.3,0.1,0.5,0.1,0.8c0,0.3,0,0.5-0.1,0.7
						c0,0.1-0.1,0.1-0.1,0.3s0,0.1-0.1,0.1c0,0.1-0.1,0.1-0.1,0.1c0,0.1-0.1,0.1-0.1,0.1c-0.3,0.4-0.4,0.8-0.7,1.1
						c-0.4,0.5-0.8,0.8-1.1,1.1c-0.1,0.1-0.3,0.3-0.3,0.3C-276.1,290.4-276.1,290.6-276.1,290.6z"/>
				</g>
			</g>
		</g>
	</g>
</g>
<circle class="st1" cx="-245.4" cy="281.3" r="74.7"/>
</svg>
